<?xml version="1.0" encoding="UTF-8"?>
<svg xmlns="http://www.w3.org/2000/svg" version="1.1" xmlns:xlink="http://www.w3.org/1999/xlink" viewBox="0 0 1000 1000">
  <defs>
    <style>
      .cls-1 {
        fill: #3477c1;
      }

      .cls-1, .cls-2 {
        fill-rule: evenodd;
      }

      .cls-3 {
        mask: url(#mask-1);
      }

      .cls-4 {
        mask: url(#mask);
      }

      .cls-2 {
        fill: #fff;
      }
    </style>
    <mask id="mask" x="245" y="245" width="510" height="510" maskUnits="userSpaceOnUse">
      <g id="mask-2">
        <path id="path-1" class="cls-2" d="M245,245h510v510H245V245Z"/>
      </g>
    </mask>
    <mask id="mask-1" x="280.3" y="293.9" width="474.7" height="213.4" maskUnits="userSpaceOnUse">
      <g id="mask-4">
        <path id="path-3" class="cls-2" d="M280.3,293.9h474.7v213.4h-474.7v-213.4Z"/>
      </g>
    </mask>
  </defs>
  <!-- Generator: Adobe Illustrator 28.7.1, SVG Export Plug-In . SVG Version: 1.2.0 Build 142)  -->
  <g>
    <g id="Layer_2">
      <g id="Atom_x2F_Logo_x2F_Digital">
        <path class="cls-2" d="M245,245h510v510H245V245Z"/>
        <g id="Group-7">
          <g id="Group-3">
            <g class="cls-4">
              <path id="Fill-1" class="cls-1" d="M436.9,322.6h-15.8l-4.8,38.7c-1.3,10.6-8.4,16.9-17.5,16.9s-13.9-6-12.6-16.6l4.8-38.9h-15.7l-5.3,43.6c-2,16,5.7,26.3,21.2,26.3s17.7-5.6,22.9-12.1l-1.3,10.6h15.8l8.4-68.5h0ZM280.3,391.1h42c20.3,0,34.7-8.7,36.7-24.9v-.3c1.5-12.3-5.1-18.4-15.3-22.1,7.2-3.5,14.1-9.4,15.5-20.2v-.3c.8-6.1-.7-11-4.2-15-4.5-5.2-12.4-8-22.8-8h-40.7l-11.1,90.9h0ZM441,411.9h15.7l3.9-31.4c4,6.4,10.4,12.1,21.9,12.1,16.2,0,33.4-12.8,36.2-35.6v-.2c2.8-22.8-11.3-35.6-27.4-35.6s-19,5.7-24.9,12.8l1.4-11.4h-15.7l-11,89.3ZM554.2,392.6c11.1,0,19-5.7,24.9-12.8l-1.4,11.4h15.7l8.4-68.5h-15.7l-1.3,10.7c-4.1-6.5-10.6-12.1-21.9-12.1-16.4,0-33.4,12.9-36.2,35.6v.2c-2.8,22.7,11.3,35.6,27.4,35.6ZM435.9,453.4l-1.7,14.2h126.6c26.4,0,41.3-14.2,49-24.3l15.5,28.7c1.9,3.4,6.1,4.7,9.6,2.9,1.8-1,3-2.6,3.5-4.6l31.9-139.4,14.9,168.9c.4,4.5,4.4,7.9,8.9,7.6,2.9-.2,5.4-2,6.7-4.6l23.9-49.7c4.5,6.9,11.5,14.5,22.1,14.5h8.2v287.4H245V245h510v208.4h-8.2c-6.4,0-11.3-9.4-13.9-14.5-1.3-2.6-2.2-4.3-3.6-5.6-2.8-2.7-7.3-2.6-10,.2-.5.5-.9,1-1.2,1.6l-20.8,44.5-16.1-177.5c-.5-5-5-8.6-10-8.1-3.8.4-7,3.1-7.9,6.9l-34.4,148.3-12.3-22.7c-1.9-3.4-6.2-4.7-9.6-2.8-.2,0-.4.2-.5.3-1.6,1-2.4,2.4-3.7,4.5-4.3,6.9-15.6,25.1-42.1,25.1,0,0-124.8,0-124.8,0ZM559.7,378.9c10.5,0,20.9-8.8,22.6-21.9v-.2c1.7-13.2-6.6-21.9-17.1-21.9s-20.8,8.3-22.4,21.9v.2c-1.7,13.2,6.4,21.9,17,21.9ZM480.3,378.9c10.8,0,20.6-8.4,22.3-21.9v-.2c1.7-13.2-6.2-21.9-16.9-21.9s-21.1,8.8-22.7,21.9v.2c-1.6,13.1,6.6,21.9,17.3,21.9h0ZM343.2,364.5v-.2c1-7.7-4.6-12.2-17.2-12.2h-25.3l-3.1,24.9h26.5c10.9,0,18.1-4.3,19.1-12.5h0ZM324.2,338.6h-21.8l3-24.1h23c10.2,0,15.4,4.4,14.5,11.5v.3c-1.1,8.3-8.4,12.3-18.7,12.3h0Z"/>
            </g>
          </g>
          <g id="Group-6">
            <g class="cls-3">
              <path id="Fill-4" class="cls-2" d="M480.3,378.9c10.8,0,20.6-8.4,22.3-21.9v-.3c1.7-13.2-6.2-21.9-16.9-21.9s-21.1,8.8-22.7,21.9v.3c-1.6,13.1,6.6,21.9,17.3,21.9h0ZM456.7,411.9h-15.7l11-89.3h15.7l-1.4,11.4c5.9-7.1,13.8-12.8,24.9-12.8,16.1,0,30.2,12.7,27.4,35.6v.3c-2.8,22.7-20,35.6-36.2,35.6s-17.8-5.7-21.9-12.1l-3.9,31.4h0ZM421.1,322.6l-4.8,38.7c-1.3,10.6-8.4,16.9-17.5,16.9s-13.9-6-12.6-16.6l4.8-38.9h-15.7l-5.4,43.6c-1.9,16,5.7,26.3,21.2,26.3s17.7-5.6,22.9-12.1l-1.3,10.6h15.8l8.4-68.6h-15.8,0ZM326.1,352.1h-25.3l-3.1,24.9h26.5c10.9,0,18-4.3,19.1-12.5v-.3c1-7.6-4.6-12.2-17.2-12.2h0ZM302.4,338.6h21.8c10.3,0,17.6-4,18.7-12.3v-.3c.9-7.1-4.3-11.5-14.5-11.5h-23l-3,24.1h0ZM343.7,343.9c10.2,3.6,16.8,9.7,15.3,22.1v.3c-2,16.2-16.5,24.9-36.7,24.9h-42.1l11.1-90.9h40.8c10.4,0,18.2,2.9,22.8,8,3.5,4,5,9,4.3,15.1v.3c-1.4,10.9-8.3,16.7-15.5,20.2ZM559.7,378.9c10.5,0,20.9-8.8,22.5-21.9v-.3c1.7-13.2-6.6-21.9-17.1-21.9s-20.8,8.3-22.4,21.9v.3c-1.7,13.2,6.4,21.9,17,21.9h0ZM526.8,357v-.3c2.8-22.7,19.9-35.6,36.2-35.6s17.7,5.6,21.9,12.1l1.3-10.6h15.7l-8.4,68.5h-15.7l1.4-11.4c-5.9,7.1-13.8,12.8-24.9,12.8-16.1,0-30.2-12.8-27.4-35.6h0ZM755,453.4v14.1h-8.2c-10.6,0-17.6-7.6-22.1-14.5l-23.9,49.7c-2,4.1-7,5.8-11.1,3.8-2.6-1.3-4.3-3.8-4.6-6.7l-14.9-168.9-31.9,139.4c-.9,3.8-4.7,6.1-8.5,5.2-1.9-.5-3.6-1.7-4.5-3.5l-15.6-28.7c-7.7,10.1-22.6,24.3-49,24.3h-126.5l1.7-14.1h124.8c26.5,0,37.8-18.2,42.1-25.1,1.3-2.1,2.1-3.4,3.7-4.5,3.3-2.2,7.6-1.3,9.8,2,.1.2.2.4.3.5l12.3,22.7,34.4-148.3c1.2-4.9,6.1-7.8,11-6.6,3.7.9,6.4,4.1,6.8,7.9l16.1,177.5,20.8-44.5c1.8-3.5,6.1-4.8,9.6-3,.6.3,1.1.7,1.6,1.2,1.4,1.3,2.3,3,3.6,5.6,2.6,5.1,7.5,14.5,13.9,14.5h8.2,0Z"/>
            </g>
          </g>
        </g>
      </g>
    </g>
  </g>
</svg>