<?xml version="1.0" encoding="utf-8"?>
<!-- Generator: Adobe Illustrator 27.6.1, SVG Export Plug-In . SVG Version: 6.00 Build 0)  -->
<svg version="1.1" id="Layer_1" xmlns="http://www.w3.org/2000/svg" xmlns:xlink="http://www.w3.org/1999/xlink" x="0px" y="0px"
	 viewBox="0 0 1000 1000" style="enable-background:new 0 0 1000 1000;" xml:space="preserve">
<style type="text/css">
	.st0{fill:#EEF2F8;}
	.st1{fill:#49A17B;}
	.st2{fill:#7631CD;}
	.st3{clip-path:url(#SVGID_00000001652833039486142470000006261054003243006615_);}
	.st4{fill:#404041;}
	.st5{clip-path:url(#SVGID_00000013889898068776101530000001124301181163451316_);}
	.st6{clip-path:url(#SVGID_00000054953059347173199420000002111304355382577290_);}
	.st7{fill:#7163EB;}
	.st8{fill:url(#SVGID_00000056390542765721689290000016338876353313000351_);}
	.st9{fill:url(#SVGID_00000134226832892375107830000017539206624102305444_);}
	.st10{fill:url(#SVGID_00000136389993306144775430000000686374327531057838_);}
	.st11{fill:url(#SVGID_00000157266300156951976440000014552880832018269109_);}
	.st12{fill:url(#SVGID_00000139982708955779364090000010270481255200976512_);}
	.st13{fill:url(#SVGID_00000083083690710153351660000001195311634387622310_);}
	.st14{fill:url(#SVGID_00000100374193524052101710000011679776751113164726_);}
	.st15{fill:url(#SVGID_00000076604534283652058540000012599749475898397863_);}
	.st16{fill:url(#SVGID_00000139261065339099441400000007241170594932690310_);}
	.st17{fill:url(#SVGID_00000180332655710085830630000008241492128514644887_);}
	.st18{fill:url(#SVGID_00000032620792560892898910000007894808121250299323_);}
	.st19{fill:url(#SVGID_00000036243849935931015700000014327549852252502663_);}
	.st20{fill:url(#SVGID_00000151501522037843923860000016220438189383889057_);}
	.st21{fill:url(#SVGID_00000052797888374296510570000012557533810083466912_);}
	.st22{fill:url(#SVGID_00000117669510158574458910000017558914631804370579_);}
	.st23{fill:url(#SVGID_00000037681603360850032730000017011587780881376643_);}
	.st24{fill:url(#SVGID_00000170269590524644088550000017397360245499515058_);}
	.st25{fill:url(#SVGID_00000147924371420666274400000008223611006456238768_);}
	.st26{fill:url(#SVGID_00000168820635305724831500000012195683484977256123_);}
	.st27{fill:url(#SVGID_00000173131524960895446250000012130329864834558129_);}
	.st28{fill:url(#SVGID_00000060749744544886822060000009944200552200650419_);}
	.st29{fill:url(#SVGID_00000057116843089414709510000003700353921305707448_);}
	.st30{fill:url(#SVGID_00000124849425379724728280000006900953519456497322_);}
	.st31{fill:url(#SVGID_00000142860337621914856080000017280249165233784494_);}
	.st32{fill:url(#SVGID_00000116206517735159358710000013995589863598458498_);}
	.st33{fill:url(#SVGID_00000118360580663221449250000003264962762283659957_);}
	.st34{fill:url(#SVGID_00000025421650041047169560000004028771020013940921_);}
	.st35{fill:url(#SVGID_00000149369022063411220950000017935921744337370539_);}
	.st36{fill:url(#SVGID_00000183206778951612973850000016936381470556850075_);}
	.st37{fill:url(#SVGID_00000010996844051874634270000015843565754189139329_);}
	.st38{fill:url(#SVGID_00000183945171899296325540000016559202536053915781_);}
	.st39{fill:url(#SVGID_00000047031700597746274530000013607318292797807526_);}
	.st40{fill:#3F4144;}
	.st41{fill:#2E3B89;}
	.st42{clip-path:url(#SVGID_00000129915806779143368720000000368297124313336735_);}
	.st43{clip-path:url(#SVGID_00000119837265485291170360000007580450683942881453_);}
	.st44{clip-path:url(#SVGID_00000174599394703825180270000004211900773761068173_);}
	.st45{fill:#F3B840;}
	.st46{fill:#E04430;}
	.st47{fill:#CA5C6C;}
	.st48{fill:#DD9033;}
	.st49{fill:#CD412D;}
	.st50{fill:#D47935;}
	.st51{fill:#D5709F;}
	.st52{fill:#E9BD8D;}
	.st53{fill:#E19F4B;}
	.st54{fill:#EABF4B;}
	.st55{fill:#CA582D;}
	.st56{fill:#DA8F38;}
	.st57{fill:#C04624;}
	.st58{fill:#C85E26;}
	.st59{fill:#B1341B;}
	.st60{fill:#B24C1F;}
	.st61{fill:#9E2B17;}
	.st62{opacity:0.52;fill:#5EC9E8;enable-background:new    ;}
	.st63{opacity:0.49;fill:#8462DA;enable-background:new    ;}
	.st64{opacity:0.52;fill:#2D63E5;enable-background:new    ;}
	.st65{fill-rule:evenodd;clip-rule:evenodd;fill:#439579;}
	.st66{fill:#3273C2;}
	.st67{fill:#575756;}
	.st68{fill:#1D2C66;}
	.st69{fill:#BCC0DA;}
	.st70{fill:#464B6F;}
	.st71{display:none;fill:#FFFFFF;}
	.st72{fill:#303030;}
	.st73{fill:#B73533;}
	.st74{fill:#04B15C;}
	.st75{fill:url(#SVGID_00000175295850623151873540000007577728151923053230_);}
	.st76{fill:url(#SVGID_00000078012963334959041850000002542875425692111771_);}
	.st77{fill:url(#SVGID_00000003783455117741713790000000816634573771999678_);}
	.st78{fill:url(#SVGID_00000160901339254563429700000006925576697414496140_);}
	.st79{fill:#D33B30;}
	.st80{fill:url(#SVGID_00000127015444460000068810000004382672172404849798_);}
	.st81{fill:url(#SVGID_00000170254662519643634670000017307728808007990428_);}
	.st82{fill:url(#SVGID_00000173857524109112304310000006768415669735396503_);}
	.st83{fill:url(#SVGID_00000135648683577694894030000012605916841975064509_);}
	.st84{fill-rule:evenodd;clip-rule:evenodd;fill:#469BC7;}
	.st85{fill:#222943;}
	.st86{fill-rule:evenodd;clip-rule:evenodd;fill:#1E4B91;}
	.st87{fill-rule:evenodd;clip-rule:evenodd;fill:#F0A140;}
	.st88{fill:#72D24C;}
	.st89{fill-rule:evenodd;clip-rule:evenodd;}
	.st90{display:none;fill:#FBFAFA;}
	.st91{fill:#242323;}
	.st92{fill:#BA3630;}
	.st93{opacity:0.35;fill:#53A0B1;enable-background:new    ;}
	.st94{fill:#20465E;}
	.st95{fill:url(#SVGID_00000116941610565599668270000004901396767850410661_);}
	.st96{fill:#367A8D;}
	.st97{fill:url(#SVGID_00000042703522955791484550000014759235537871950497_);}
	.st98{fill:url(#SVGID_00000036942304919886280310000010629296866409633172_);}
	.st99{opacity:0.88;fill:url(#SVGID_00000080920277143865406320000014375913654438304650_);enable-background:new    ;}
	.st100{fill:url(#SVGID_00000139986425363778614360000008232837780189868220_);}
	.st101{fill:#143661;}
	.st102{fill:#56BC8E;}
	.st103{fill:#2B2B37;}
	.st104{fill:#334C71;}
	.st105{fill:#3777E6;}
	.st106{fill:#A8EDE6;}
	.st107{fill:#EBC18E;}
	.st108{fill:#2A2F44;}
	.st109{fill:#1B4625;}
	.st110{fill:#98C355;}
	.st111{fill:#60B258;}
	.st112{fill:#41914D;}
	.st113{fill:#2B663D;}
	.st114{fill:#CCDA70;}
	.st115{fill:#34516A;}
	.st116{fill:url(#Path_164488_00000098908443995447530300000012977213977520312485_);}
	.st117{fill:#FFFFFF;}
	.st118{fill:#58595B;}
	.st119{fill:#55AC9B;}
	.st120{fill:#464442;}
	.st121{fill:#B7A891;}
	.st122{fill:#265674;}
	.st123{fill:#759ECF;}
	.st124{fill:#C9CACB;}
	.st125{fill:#F2F2F2;}
	.st126{fill:#2B3777;}
	.st127{fill:#27599E;}
	.st128{fill:#25589C;}
	.st129{fill:#2B63A5;}
	.st130{fill-rule:evenodd;clip-rule:evenodd;fill:#B9B9B9;}
	.st131{fill:#B9B9B9;}
	.st132{fill:#7185B5;}
	.st133{fill:#1C4882;}
	.st134{fill:#0F2C5A;}
	.st135{fill:#091C46;}
	.st136{fill:#54565A;}
	.st137{fill:#306541;}
	.st138{fill-rule:evenodd;clip-rule:evenodd;fill:#CAAD5D;}
	.st139{fill-rule:evenodd;clip-rule:evenodd;fill:#0D0D0D;}
	.st140{fill:#181818;stroke:#181818;stroke-width:0.3631;stroke-miterlimit:10;}
	.st141{fill:#305E3C;}
	.st142{fill:#181818;stroke:#181818;stroke-width:0.3631;stroke-miterlimit:9.9999;}
	.st143{fill:#181818;}
	.st144{fill:#141414;}
	.st145{fill:#1F4169;}
	.st146{fill:#49A2D9;}
	.st147{fill:#59585A;}
	.st148{fill:#030F97;}
	.st149{fill:#56A9DC;}
	.st150{fill:#4AA3DB;}
	.st151{fill:#545352;}
	.st152{fill:#412C6F;}
	.st153{fill:#BF2F7C;}
	.st154{fill:#215280;}
	.st155{fill:#7D7D7D;}
	.st156{fill:#456790;}
	.st157{fill:url(#C_00000177445095491830625120000016071871018814980500_);}
	.st158{fill:#C6C7C8;}
	.st159{fill:url(#SVGID_00000085231723149311695480000014944988934784573621_);}
	.st160{fill:#285E96;}
	.st161{fill:#61993F;}
	.st162{fill:#23568C;}
	.st163{fill:#4FA4DA;}
	.st164{fill:#6F80B0;}
	.st165{fill:#265896;}
	.st166{fill:#3B81B6;}
	.st167{fill:#275A6B;}
	.st168{fill:#595A5C;}
	.st169{fill:#D7393A;}
	.st170{fill:#8AC9D5;}
	.st171{fill:#D63939;}
	.st172{fill:#D63838;}
	.st173{fill:#3172B5;}
	.st174{fill:#3475B7;}
	.st175{fill:#3374B7;}
	.st176{fill:#7B7C7F;}
	.st177{fill:#7A7B7E;}
	.st178{fill:#3373B6;}
	.st179{fill:#7B7B7E;}
	.st180{fill:#7C7C7F;}
	.st181{fill:#7E7F81;}
	.st182{fill:#797A7D;}
	.st183{fill:#7D7D80;}
	.st184{fill:#7C7D80;}
	.st185{fill:#7C7B7E;}
	.st186{fill:#808184;}
	.st187{fill:#214167;}
	.st188{fill-rule:evenodd;clip-rule:evenodd;fill:#C8AC47;}
	.st189{fill:none;stroke:#C8AC47;stroke-width:9.5261;}
	.st190{fill:none;stroke:#E6BA5D;stroke-width:9.5261;stroke-miterlimit:10;}
	.st191{fill-rule:evenodd;clip-rule:evenodd;fill:#304567;}
	.st192{fill:#CFCECC;}
	.st193{clip-path:url(#SVGID_00000018211947112055980380000015604214966414770608_);}
	.st194{fill:#265B65;}
	.st195{fill:#767A52;}
	.st196{fill:#808082;}
	.st197{fill-rule:evenodd;clip-rule:evenodd;fill:url(#SVGID_00000005256546352230196400000006474408068140540558_);}
	.st198{fill-rule:evenodd;clip-rule:evenodd;fill:url(#SVGID_00000093144928584290474110000009241793378171551366_);}
	.st199{fill:#3A5CA5;}
	.st200{fill:#2F3A89;}
	.st201{fill:#6D6E71;}
	.st202{fill:#41918E;}
	.st203{fill:#445DA5;}
	.st204{clip-path:url(#SVGID_00000157994959894874073500000010672305735357468581_);}
	.st205{fill:#4A6EAF;}
	.st206{fill:#381D13;}
	.st207{clip-path:url(#SVGID_00000114776883365987571560000003922671138903036571_);}
	.st208{clip-path:url(#SVGID_00000060011986070259166190000012686130836065629843_);}
	.st209{clip-path:url(#SVGID_00000160893618416040416930000006880473718995742097_);}
	.st210{clip-path:url(#SVGID_00000144323459449511496580000012140746783761034150_);}
	.st211{clip-path:url(#SVGID_00000109749473889443333120000018127239452877427844_);}
	.st212{clip-path:url(#SVGID_00000001662791764653646590000016465087254953971605_);}
	.st213{clip-path:url(#SVGID_00000125575808176417934000000005465624892313349534_);}
	.st214{clip-path:url(#SVGID_00000008861972864549132360000005667876673891777974_);}
	.st215{clip-path:url(#SVGID_00000016771673792336359790000002156733935651441294_);}
	.st216{clip-path:url(#SVGID_00000112626076795622364130000003247978125396101554_);}
	.st217{clip-path:url(#SVGID_00000044892800201914835610000015463754472274435217_);}
	.st218{fill:#A2A8AC;}
	.st219{fill:#41834F;}
	.st220{fill:#265BB2;}
	.st221{fill:#293B90;}
	.st222{fill:#C99378;}
	.st223{fill:none;}
	.st224{enable-background:new    ;}
	.st225{fill:#203D35;}
	.st226{fill:#817771;}
	.st227{fill:#265C80;}
	.st228{fill:#2C2926;}
	.st229{fill:#59BCF8;}
	.st230{fill-rule:evenodd;clip-rule:evenodd;fill:#0101C2;}
	.st231{fill-rule:evenodd;clip-rule:evenodd;fill:#0202C6;}
	.st232{fill:#3A42F4;}
	.st233{fill-rule:evenodd;clip-rule:evenodd;fill:#050386;}
	.st234{fill:#3038F4;}
	.st235{clip-path:url(#SVGID_00000146482873820183345870000002562805702251943565_);}
	.st236{fill:#ED7D30;}
	.st237{fill:#479EE6;}
	.st238{fill:url(#Path_6_00000115475578604070123970000014545496663677533353_);}
	.st239{fill:#CC2C79;}
	.st240{fill:#1A1818;}
	.st241{fill-rule:evenodd;clip-rule:evenodd;fill:#FFFFFF;}
	.st242{fill-rule:evenodd;clip-rule:evenodd;fill:#469B88;}
	.st243{fill-rule:evenodd;clip-rule:evenodd;fill:#2C2E6A;}
	.st244{fill:#469B88;}
	.st245{fill:#1E1C44;}
	.st246{fill:#DA6D2A;}
	.st247{clip-path:url(#SVGID_00000050632278213916058130000007600268375485186944_);}
	.st248{fill:#273669;}
	.st249{fill:#567DF6;}
	.st250{fill:#70D3FA;}
	.st251{fill:#88FAC1;}
	.st252{fill:#070E51;}
	.st253{opacity:0.5;}
	.st254{fill:url(#SVGID_00000074412262013577157610000010678620791123703209_);}
	.st255{fill:url(#SVGID_00000050650435351673998520000012001846072162215047_);}
	.st256{fill:url(#SVGID_00000056400927212223252230000005057946985605768367_);}
	.st257{fill:#05039B;}
	.st258{fill:#406DAF;}
	.st259{fill:#808086;}
	.st260{fill:#84C6C9;}
	.st261{fill:#86398D;}
	.st262{fill:#8E599C;}
	.st263{fill:#E7963E;}
	.st264{fill:#70C3ED;}
	.st265{fill:#4B2A50;}
	.st266{fill:#333333;}
	.st267{fill:#75FAAA;}
	.st268{fill:url(#SVGID_00000139256118564127566320000014159777959006878114_);}
	.st269{fill:#160141;}
	.st270{fill:url(#SVGID_00000139261731424596739660000009888991418104016823_);}
	.st271{fill:url(#SVGID_00000142154440723643633090000013081191946450960535_);}
	.st272{fill:url(#SVGID_00000021119566225006826250000006985371144953737355_);}
	.st273{fill-rule:evenodd;clip-rule:evenodd;fill:url(#SVGID_00000098940218356242702650000014008462503362470070_);}
	.st274{fill-rule:evenodd;clip-rule:evenodd;fill:url(#SVGID_00000125577373505506256250000006166461600929598623_);}
	.st275{fill-rule:evenodd;clip-rule:evenodd;fill:url(#SVGID_00000119803187697434082910000006909280472287263385_);}
	.st276{fill-rule:evenodd;clip-rule:evenodd;fill:url(#SVGID_00000055708131198931813080000004687295340299121046_);}
	.st277{fill:#414042;}
</style>
<g>
	<g>
		<path d="M171.04,571.03h9.54l0.05,4.31c0,3.15-0.58,5.13-1.79,6.05c-1.21,0.92-3.82,1.36-7.89,1.36c-3.73,0-6.25-0.58-7.46-1.79
			s-1.84-3.68-1.84-7.41c0-4.74,0.24-7.75,0.73-9c0.58-1.5,1.5-2.57,2.76-3.1c1.21-0.53,3.29-0.77,6.25-0.77
			c3.87,0,6.34,0.44,7.46,1.21s1.69,2.66,1.69,5.47h-4.16c-0.1-1.4-0.39-2.32-0.92-2.66c-0.53-0.34-1.89-0.53-4.12-0.53
			c-2.37,0-3.87,0.29-4.55,0.87c-0.63,0.58-0.97,1.98-0.97,4.16v2.18l0.05,2.76c0,2.13,0.34,3.53,0.97,4.12s2.08,0.87,4.41,0.87
			c2.23,0,3.68-0.24,4.26-0.73c0.58-0.48,0.92-1.69,0.92-3.53v-0.87h-5.37V571.03z"/>
		<path d="M197.47,560.91h4.12v14.43c0,3-0.58,5.03-1.74,6c-1.16,0.97-3.53,1.45-7.12,1.45c-3.78,0-6.25-0.48-7.46-1.4
			c-1.21-0.92-1.74-2.86-1.74-5.81v-14.67h4.12v14.67c0,1.6,0.29,2.61,0.87,3.05c0.58,0.44,1.94,0.63,4.02,0.63
			c2.18,0,3.53-0.24,4.07-0.68c0.58-0.44,0.82-1.5,0.82-3.2v-14.48H197.47z"/>
		<path d="M209.53,560.91v18.01h10.17v3.68h-14.28v-21.69H209.53L209.53,560.91z"/>
		<path d="M225.89,564.35v5.86h9.73v3.44h-9.73v8.91h-4.12v-21.69h14.38v3.44L225.89,564.35L225.89,564.35z"/>
		<path d="M260.7,560.91h4.12v14.43c0,3-0.58,5.03-1.74,6c-1.16,0.97-3.53,1.45-7.12,1.45c-3.78,0-6.25-0.48-7.46-1.4
			c-1.16-0.92-1.74-2.86-1.74-5.81v-14.67h4.12v14.67c0,1.6,0.29,2.61,0.87,3.05c0.58,0.44,1.94,0.63,4.02,0.63
			c2.18,0,3.53-0.24,4.07-0.68c0.53-0.44,0.82-1.5,0.82-3.2L260.7,560.91L260.7,560.91z"/>
		<path d="M288.78,560.91v21.69h-6.97l-6.2-11.91c-0.29-0.58-0.77-1.65-1.45-3.1l-0.68-1.55l-0.68-1.55h-0.19l0.05,1.45l0.05,1.4
			l0.05,2.86v12.44h-4.12v-21.69h6.97l5.62,10.99c0.48,0.97,1.07,2.18,1.74,3.53l0.82,1.74l0.82,1.79h0.15l-0.05-1.4l-0.05-1.4
			l-0.05-2.81v-12.49H288.78L288.78,560.91z"/>
		<path d="M296.67,560.91v21.69h-4.12v-21.69H296.67z"/>
		<path d="M309.55,560.72c3.92,0,6.49,0.68,7.6,1.94c1.11,1.31,1.69,4.26,1.69,8.76c0,4.99-0.58,8.08-1.69,9.39
			c-1.11,1.31-3.87,1.94-8.28,1.94c-3.92,0-6.49-0.63-7.65-1.94c-1.16-1.26-1.74-4.07-1.74-8.42c0-5.18,0.58-8.42,1.69-9.73
			S305.1,560.72,309.55,560.72z M309.21,564.25c-2.76,0-4.36,0.34-4.84,1.07c-0.48,0.73-0.68,3.15-0.68,7.36
			c0,3.1,0.29,4.99,0.82,5.62c0.53,0.63,2.18,0.97,4.84,0.97c2.57,0,4.07-0.34,4.6-1.07s0.77-2.9,0.77-6.49
			c0-3.63-0.24-5.76-0.73-6.44C313.52,564.59,311.87,564.25,309.21,564.25z"/>
		<path d="M341.74,560.91v21.69h-6.97l-6.2-11.91c-0.29-0.58-0.77-1.65-1.45-3.1l-0.68-1.55l-0.68-1.55h-0.15l0.05,1.45l0.05,1.4
			l0.05,2.86v12.44h-4.12v-21.69h6.97l5.62,10.99c0.48,0.97,1.07,2.18,1.74,3.53l0.82,1.74l0.82,1.79h0.15l-0.05-1.4l-0.05-1.4
			l-0.05-2.81v-12.49H341.74L341.74,560.91z"/>
		<path class="st137" d="M366.82,578.44h-9.34l-1.36,4.16h-4.36l7.21-21.69h6.2l7.31,21.69h-4.26L366.82,578.44z M365.85,575.39
			l-3.73-11.28l-3.68,11.28H365.85z"/>
		<path class="st137" d="M378.44,560.91v18.01h10.17v3.68h-14.28v-21.69H378.44L378.44,560.91z"/>
		<path class="st137" d="M411.94,578.44h-9.34l-1.36,4.16h-4.36l7.21-21.69h6.2l7.31,21.69h-4.26L411.94,578.44z M411.02,575.39
			l-3.73-11.28l-3.68,11.28H411.02z"/>
		<path class="st137" d="M437.89,560.91v21.69h-4.12v-9.39h-10.17v9.39h-4.12v-21.69h4.12v8.86h10.17v-8.86H437.89L437.89,560.91z"
			/>
		<path class="st137" d="M445.83,560.91v18.01H456v3.68h-14.28v-21.69H445.83L445.83,560.91z"/>
		<path class="st137" d="M462.19,560.91v21.69h-4.12v-21.69H462.19z"/>
		<path class="st137" d="M479.14,578.44h-9.34l-1.36,4.16h-4.36l7.21-21.69h6.2l7.31,21.69h-4.26L479.14,578.44z M478.17,575.39
			l-3.73-11.28l-3.68,11.28H478.17z"/>
		<path d="M509.2,575.34h2.42v0.82c0,2.95-0.48,4.79-1.5,5.52c-1.02,0.73-3.53,1.11-7.6,1.11c-3.63,0-5.95-0.63-6.92-1.94
			c-0.97-1.31-1.45-4.36-1.45-9.15c0-3.78,0.1-6.1,0.34-7.07c0.24-0.97,0.87-1.84,1.89-2.61c1.21-0.87,3.87-1.36,7.94-1.36
			c2.76,0,4.6,0.44,5.57,1.31c0.97,0.87,1.45,2.52,1.45,4.99v0.58h-2.42v-0.68c0-1.74-0.29-2.86-0.87-3.39
			c-0.58-0.53-1.84-0.73-3.82-0.73c-3.49,0-5.62,0.29-6.39,0.87s-1.16,2.18-1.16,4.84c0,6.1,0.24,9.68,0.77,10.7
			s2.28,1.55,5.33,1.55c2.9,0,4.7-0.24,5.37-0.68c0.68-0.44,1.07-1.6,1.07-3.44V575.34z"/>
		<path d="M522.32,560.67c4.12,0,6.68,0.58,7.7,1.79c1.02,1.21,1.55,4.16,1.55,8.96c0,5.13-0.48,8.33-1.45,9.54
			s-3.58,1.79-7.75,1.79c-4.16,0-6.73-0.58-7.75-1.79s-1.5-4.31-1.5-9.3v-1.5l0.05-2.03c0-2.9,0.63-4.84,1.94-5.91
			S518.74,560.67,522.32,560.67z M522.27,562.75c-3.44,0-5.42,0.39-6,1.16c-0.58,0.77-0.87,3.39-0.87,7.84
			c0,4.45,0.29,7.12,0.87,7.84c0.58,0.73,2.57,1.16,6,1.16c3.44,0,5.47-0.39,6.05-1.16s0.87-3.39,0.87-7.84v-1.4v-2.03
			c0-2.37-0.39-3.92-1.21-4.55C527.16,563.04,525.28,562.75,522.27,562.75z"/>
		<path d="M542.27,560.67c4.12,0,6.68,0.58,7.7,1.79c1.02,1.21,1.55,4.16,1.55,8.96c0,5.13-0.48,8.33-1.45,9.54
			c-0.97,1.21-3.58,1.79-7.75,1.79s-6.73-0.58-7.75-1.79c-1.02-1.21-1.5-4.31-1.5-9.3v-1.5l0.05-2.03c0-2.9,0.63-4.84,1.94-5.91
			C536.36,561.15,538.69,560.67,542.27,560.67z M542.22,562.75c-3.44,0-5.42,0.39-6,1.16c-0.58,0.77-0.87,3.39-0.87,7.84
			c0,4.45,0.29,7.12,0.87,7.84c0.58,0.73,2.57,1.16,6,1.16c3.44,0,5.47-0.39,6.05-1.16c0.58-0.77,0.87-3.39,0.87-7.84v-1.4v-2.03
			c0-2.37-0.39-3.92-1.21-4.55C547.11,563.04,545.22,562.75,542.22,562.75z"/>
		<path d="M554.28,582.6v-21.69h9.1h0.82c2.42,0,4.12,0.48,4.99,1.4c0.87,0.92,1.36,2.71,1.36,5.28c0,2.47-0.48,4.16-1.4,5.08
			c-0.92,0.92-2.66,1.36-5.23,1.36h-0.97h-6.25v8.52h-2.42V582.6z M556.74,572h5.81c2.42,0,3.97-0.24,4.65-0.73s1.02-1.65,1.02-3.44
			c0-2.08-0.24-3.44-0.68-3.97c-0.44-0.53-1.55-0.82-3.29-0.82h-0.92h-6.58L556.74,572L556.74,572z"/>
		<path d="M575.04,562.95v7.41h10.99v2.08h-10.99v8.08h11.47v2.08h-13.94v-21.69h13.94v2.08L575.04,562.95L575.04,562.95z"/>
		<path d="M589.66,582.6v-21.69h10.31c2.32,0,3.97,0.48,4.94,1.4c0.97,0.92,1.45,2.52,1.45,4.79c0,1.98-0.24,3.39-0.77,4.16
			s-1.5,1.31-2.95,1.55v0.05c2.32,0.19,3.44,1.55,3.44,4.21v5.57h-2.42v-4.99c0-2.52-1.11-3.78-3.29-3.78h-0.82h-7.41v8.76
			L589.66,582.6L589.66,582.6z M592.13,571.76h7.07c1.84,0,3.15-0.29,3.82-0.87c0.68-0.58,1.02-1.65,1.02-3.2
			c0-1.94-0.24-3.24-0.77-3.82s-1.6-0.87-3.24-0.87h-7.89V571.76L592.13,571.76z"/>
		<path d="M623.26,578h-10.99l-1.69,4.6h-2.57l7.94-21.69h3.44l8.08,21.69h-2.57L623.26,578z M622.54,576.16l-4.79-13.27L613,576.16
			H622.54z"/>
		<path d="M637.3,563.19v19.41h-2.42v-19.41h-7.07v-2.28h16.51v2.28H637.3z"/>
		<path d="M648.92,560.91v21.69h-2.47v-21.69H648.92z"/>
		<path d="M667.17,560.91h2.61l-7.65,21.69h-3.49l-7.75-21.69h2.61l5.76,16.36l0.58,1.69c0.19,0.63,0.39,1.21,0.53,1.69h0.05
			c0.34-1.07,0.68-2.18,1.07-3.29L667.17,560.91z"/>
		<path d="M673.27,562.95v7.41h10.99v2.08h-10.99v8.08h11.47v2.08H670.8v-21.69h13.94v2.08L673.27,562.95L673.27,562.95z"/>
		<path d="M698.5,560.91v21.69h-2.47v-21.69H698.5z"/>
		<path d="M721.2,560.91v21.69h-4.02l-9.1-14.77l-1.5-2.42l-0.73-1.21l-0.73-1.21h-0.05v0.82v0.82v1.65v16.36h-2.47v-21.69h4.02
			l7.94,12.93l2.08,3.39l1.02,1.69l1.02,1.69h0.05v-0.82v-0.82v-1.65v-16.46H721.2L721.2,560.91z"/>
		<path d="M740.18,566.77h-2.42c0-1.74-0.29-2.86-0.87-3.34s-1.94-0.73-4.12-0.73c-2.57,0-4.21,0.24-4.94,0.68
			c-0.73,0.44-1.11,1.45-1.11,3c0,1.74,0.29,2.81,0.87,3.2c0.58,0.39,2.32,0.63,5.18,0.77c3.39,0.15,5.52,0.58,6.44,1.31
			c0.92,0.73,1.36,2.32,1.36,4.74c0,2.66-0.53,4.41-1.6,5.18c-1.07,0.77-3.39,1.16-6.97,1.16c-3.1,0-5.23-0.39-6.25-1.16
			s-1.55-2.37-1.55-4.79v-0.97h2.42v0.53c0,1.94,0.29,3.15,0.87,3.63c0.58,0.48,2.13,0.73,4.55,0.73c2.81,0,4.55-0.24,5.18-0.73
			c0.63-0.48,0.97-1.74,0.97-3.78c0-1.31-0.24-2.18-0.68-2.66c-0.44-0.44-1.36-0.73-2.76-0.77l-2.52-0.15l-2.42-0.15
			c-3.68-0.24-5.52-2.18-5.52-5.71c0-2.47,0.53-4.12,1.6-4.94c1.07-0.82,3.2-1.26,6.39-1.26c3.24,0,5.37,0.39,6.34,1.16
			C739.69,562.61,740.18,564.25,740.18,566.77z"/>
		<path d="M758.29,560.91h2.47v15.2c0,2.76-0.53,4.55-1.65,5.42c-1.11,0.87-3.44,1.31-6.97,1.31c-3.29,0-5.57-0.44-6.78-1.26
			c-1.21-0.82-1.79-2.42-1.79-4.74v-0.73v-15.2h2.47v15.2c0,2.03,0.34,3.34,1.02,3.87c0.68,0.53,2.32,0.77,4.94,0.77
			c2.86,0,4.6-0.24,5.33-0.77c0.68-0.53,1.07-1.79,1.07-3.87L758.29,560.91L758.29,560.91z"/>
		<path d="M764.82,582.6v-21.69h10.31c2.32,0,3.97,0.48,4.94,1.4c0.97,0.92,1.4,2.52,1.4,4.79c0,1.98-0.24,3.39-0.77,4.16
			s-1.5,1.31-2.95,1.55v0.05c2.32,0.19,3.44,1.55,3.44,4.21v5.57h-2.47v-4.99c0-2.52-1.11-3.78-3.29-3.78h-0.82h-7.41v8.76
			L764.82,582.6L764.82,582.6z M767.29,571.76h7.07c1.84,0,3.15-0.29,3.82-0.87c0.68-0.58,1.02-1.65,1.02-3.2
			c0-1.94-0.24-3.24-0.77-3.82s-1.6-0.87-3.24-0.87h-7.89V571.76L767.29,571.76z"/>
		<path d="M798.42,578h-10.99l-1.65,4.6h-2.57l7.94-21.69h3.44l8.08,21.69h-2.57L798.42,578z M797.69,576.16l-4.79-13.27
			l-4.74,13.27H797.69z"/>
		<path d="M823.4,560.91v21.69h-4.02l-9.1-14.77l-1.5-2.42l-0.73-1.21l-0.73-1.21h-0.05v0.82v0.82v1.65v16.36h-2.47v-21.69h4.02
			l7.94,12.93l2.08,3.39l1.02,1.69l1.02,1.69h0.05v-0.82v-0.82v-1.65v-16.46H823.4L823.4,560.91z"/>
		<path d="M841.75,575.34h2.42v0.82c0,2.95-0.48,4.79-1.5,5.52c-1.02,0.73-3.53,1.11-7.6,1.11c-3.63,0-5.95-0.63-6.92-1.94
			c-0.97-1.31-1.5-4.36-1.5-9.15c0-3.78,0.1-6.1,0.34-7.07c0.24-0.97,0.87-1.84,1.89-2.61c1.21-0.87,3.87-1.36,7.94-1.36
			c2.76,0,4.65,0.44,5.57,1.31c0.92,0.87,1.45,2.52,1.45,4.99v0.58h-2.42v-0.68c0-1.74-0.29-2.86-0.87-3.39
			c-0.58-0.53-1.84-0.73-3.82-0.73c-3.49,0-5.62,0.29-6.39,0.87s-1.16,2.18-1.16,4.84c0,6.1,0.24,9.68,0.77,10.7
			c0.53,1.07,2.28,1.55,5.33,1.55c2.86,0,4.7-0.24,5.37-0.68c0.68-0.44,1.07-1.6,1.07-3.44L841.75,575.34z"/>
		<path d="M848.53,562.95v7.41h10.99v2.08h-10.99v8.08H860v2.08h-13.94v-21.69H860v2.08L848.53,562.95L848.53,562.95z"/>
	</g>
	<g id="Layer_3">
		<g id="svgg_1_">
			<path id="path0_1_" class="st138" d="M202.17,418.53c-0.44,0.1-1.26,0.29-1.74,0.39c-3.29,0.58-4.31,0.82-6.73,1.65
				c-3.49,1.21-9.2,3.92-10.02,4.89c-0.15,0.19-0.68,0.53-1.16,0.87l-0.87,0.53l1.02,0.24c2.95,0.63,6.2,0,6.73-1.31
				c0.1-0.29,3.05-2.28,4.74-3.2c1.89-1.07,4.12-1.98,7.79-3.24C204.74,418.34,205.03,417.66,202.17,418.53 M216.16,418.48
				c0.1,0.15,0.73,0.39,1.4,0.48c0.68,0.1,1.69,0.39,2.28,0.63c2.23,0.92,2.52,1.07,2.86,1.11c2.08,0.44,7.94,4.02,10.46,6.44
				c0.73,0.73,7.84,1.21,7.84,0.58c0-0.34-2.52-2.23-3.39-2.47c-0.15-0.05-0.92-0.44-1.6-0.87c-3.2-1.89-10.26-4.41-14.67-5.23
				c-0.92-0.15-2.32-0.44-3.2-0.63C216.26,418.14,215.97,418.14,216.16,418.48 M203.14,421.05c-3.34,1.16-11.72,5.62-11.72,6.29
				c0,0.1,1.74,0.24,3.87,0.24h3.87l1.02-1.65c0.58-0.92,1.89-2.47,3-3.49C205.32,420.47,205.27,420.27,203.14,421.05
				 M206.33,422.11c-1.65,1.11-4.6,3.73-4.21,3.73c0.05,0-0.15,0.39-0.48,0.77l-0.63,0.77l2.47,0.19c1.36,0.1,3.15,0.24,4.02,0.24
				l1.55,0.05v-3.53C209,420.23,209.09,420.27,206.33,422.11 M211.08,424.19c0,4.02-0.29,3.78,4.41,3.53l3.78-0.24l-0.92-1.31
				c-1.02-1.45-3.2-3.39-5.13-4.6C211.08,420.32,211.08,420.37,211.08,424.19 M218.63,422.79c1.16,1.07,2.47,2.66,3.05,3.53
				l0.97,1.6l1.79-0.05c0.97-0.05,2.76-0.1,3.97-0.24l2.18-0.19l-2.08-1.31c-2.86-1.84-5.18-3-8.33-4.26
				C216.45,420.42,216.26,420.56,218.63,422.79 M176.27,431.75c-2.57,2.66-4.36,4.94-6.1,7.7c-0.63,0.97-1.4,2.18-1.65,2.57
				l-0.53,0.77l1.94,0.24c2.47,0.29,4.79,1.31,5.66,2.47c0.82,1.07,1.07,1.11,1.31,0.24c0.63-1.98,4.21-8.76,6.29-11.91
				c2.81-4.21,2.81-4.02-1.36-4.31l-3.24-0.24L176.27,431.75 M235.43,429.86c0,0.1,0.24,0.44,0.53,0.68s1.07,1.07,1.69,1.84
				s1.36,1.6,1.55,1.79c0.19,0.24,0.39,0.53,0.39,0.68c0,0.15,0.1,0.34,0.24,0.39c0.68,0.29,5.71,8.96,5.47,9.34
				c-0.05,0.1,0.1,0.48,0.39,0.82l0.48,0.68l0.87-0.73c0.44-0.39,1.26-0.87,1.74-1.07c0.48-0.19,1.31-0.53,1.84-0.73
				c0.53-0.24,1.07-0.44,1.21-0.44c0.97,0,2.42-0.92,2.08-1.31c-0.19-0.24-0.29-0.44-0.15-0.44c0.92,0-5.71-7.7-9.3-10.8l-1.11-0.97
				h-3.92C237.22,429.67,235.43,429.76,235.43,429.86 M187.11,431.31c-0.63,0.73-1.65,1.89-2.18,2.57c-0.58,0.63-1.21,1.4-1.4,1.6
				c-0.19,0.24-0.39,0.44-0.39,0.48c0,0.05,1.89,0.05,4.21-0.05c3-0.1,4.6,0,5.71,0.29l1.55,0.44l1.31-2.66
				c0.73-1.45,1.45-2.95,1.6-3.34l0.29-0.73h-4.79h-4.79L187.11,431.31 M199.75,430.68c-0.1,0.39-0.29,0.73-0.44,0.73
				s-0.19,0.1-0.1,0.29c0.1,0.15,0.05,0.29-0.1,0.29c-0.19,0-0.29,0.24-0.29,0.53c0,0.29-0.39,1.31-0.87,2.28
				c-0.87,1.79-0.82,2.08,0.24,2.57c0.39,0.19,2.03,2.52,3.24,4.55l1.26,2.13h3.2h3.2l-0.1-6.97l-0.1-6.97l-4.45-0.1l-4.45-0.1
				L199.75,430.68 M211.51,437.17v7.17h7.26c4.02,0,7.26-0.1,7.26-0.24c0-1.55-2.08-8.23-3.49-11.23c-0.44-0.92-0.73-1.65-0.63-1.65
				c0.05-0.05-0.1-0.29-0.44-0.63c-0.53-0.58-0.87-0.63-5.28-0.63h-4.7L211.51,437.17 M223.38,430.2c0,0.15,0.1,0.39,0.29,0.48
				c0.24,0.15,2.47,4.36,2.61,4.94c0.05,0.1,0.24,0.73,0.53,1.31c1.16,2.71,1.5,3.82,1.74,5.95l0.19,1.74h6.68
				c6.63,0,7.5-0.1,6.78-0.97c-0.15-0.19-0.92-1.6-1.74-3.15c-1.31-2.52-2.95-5.23-3.78-6.05c-0.15-0.19-0.73-0.82-1.21-1.45
				c-0.48-0.63-1.26-1.55-1.74-2.08l-0.82-0.97h-4.79C225.41,429.96,223.38,430.05,223.38,430.2 M181.35,439.93
				c-0.44,0.73-1.11,1.98-1.55,2.86l-0.77,1.55h2.61c1.55,0,2.61-0.1,2.61-0.29c0-0.15-0.1-0.29-0.29-0.29
				c-0.39,0-1.6-2.66-1.79-3.97l-0.1-1.21L181.35,439.93 M203.62,445.98c-0.63,0.63-0.15,2.42,0.97,3.34
				c4.36,3.78,4.7,3.73,4.7-0.34v-3.2h-2.71C205.08,445.79,203.72,445.88,203.62,445.98 M211.18,446.17
				c-0.1,0.24-0.1,1.74-0.05,3.44l0.1,3.05l1.02,0.29c0.68,0.19,1.69,0.92,2.95,2.18c1.07,1.07,2.42,2.18,3.1,2.52
				c0.63,0.34,1.26,0.68,1.31,0.77c0.29,0.34,1.02,0.44,3.24,0.39c2.76-0.05,4.12,0.44,4.94,2.03c1.16,2.08,1.31,1.84,1.11-1.84
				c-0.1-1.84-0.24-3.68-0.29-4.07c-0.05-0.39-0.19-1.4-0.34-2.18c-0.29-2.32-0.73-4.26-1.26-5.62l-0.44-1.26h-7.6
				C212.92,445.79,211.32,445.88,211.18,446.17 M229.23,446.8c0,0.58,0.1,1.36,0.29,1.84c0.15,0.44,0.34,1.4,0.44,2.03
				c0.1,0.63,0.29,2.08,0.44,3.24c0.15,1.11,0.29,2.23,0.29,2.42c0,0.29,0.29,0.19,1.07-0.1c0.97-0.44,1.07-0.44,1.84,0
				c0.44,0.29,1.26,0.58,1.84,0.63c0.53,0.1,1.55,0.29,2.18,0.44c1.16,0.29,2.66,0.19,5.47-0.19c1.31-0.19,1.4-0.29,2.28-1.98
				l0.97-1.84l-0.77-1.5c-0.39-0.82-0.82-1.98-0.92-2.61c-0.1-0.63-0.39-1.65-0.63-2.28l-0.44-1.11h-7.17h-7.17V446.8
				 M178.11,446.76c-0.24,0.39-0.48,1.07-0.58,1.55c-0.39,2.03-0.58,2.71-1.16,3.97c-0.63,1.26-0.63,1.31-0.1,2.66
				c0.97,2.52,1.16,4.26,0.68,5.57c-0.24,0.63-0.39,1.26-0.29,1.31c0.39,0.39,13.89,0.19,14.04-0.19c0.05-0.19,0.15-2.37,0.19-4.84
				l0.1-4.45h-1.31c-1.94,0-2.9-1.07-3.49-3.78c-0.48-2.37-0.53-2.37-4.26-2.37C178.74,446.08,178.5,446.13,178.11,446.76
				 M192.54,458.47c0,1.5-0.05,2.95-0.1,3.15c-0.05,0.39,0.29,0.44,2.42,0.34l2.52-0.1l-0.58-0.63c-0.29-0.34-0.97-1.11-1.5-1.65
				s-1.26-1.65-1.6-2.42C192.73,455.18,192.54,455.42,192.54,458.47 M175.54,464.09c0,0.05,0.19,0.58,0.48,1.07
				c0.82,1.65,0.82,3.44,0,5.91l-0.73,2.28l0.73,2.57c0.39,1.4,0.82,2.95,1.02,3.44l0.29,0.77h6.97c3.82,0,7.07-0.05,7.17-0.15
				c0.15-0.15,0.05-0.92-0.63-5.28c-0.19-1.31-0.39-4.21-0.39-6.54l-0.05-4.21h-7.46C178.88,463.99,175.54,464.04,175.54,464.09
				 M192.15,465.1c0.19,1.21,0.77,7.41,0.87,9.49c0.05,0.73,0.15,1.55,0.24,1.89c0.1,0.34,0.24,1.31,0.34,2.18
				c0.19,2.18-0.19,2.08,8.08,1.98l7.46-0.1l-0.1-3.97c-0.05-2.18-0.1-5.13-0.15-6.49c-0.1-4.21-2.23-5.42-3.44-1.89
				c-1.11,3.2-4.07,1.4-4.07-2.42v-1.74h-4.7H192L192.15,465.1 M232.96,464.47c-0.05,0.1-0.05,0.87,0.1,1.69
				c0.48,2.9-0.1,8.81-1.31,13.27l-0.44,1.55l6.63-0.05l6.63-0.1l0.39-1.89c0.19-1.07,0.44-2.32,0.53-2.81
				c0.19-1.07-0.58-3-1.79-4.26c-1.45-1.55-2.28-3.49-2.42-5.57l-0.15-1.98h-4.07C234.95,464.28,233.06,464.38,232.96,464.47
				 M211.37,479c0,1.74,0.05,1.74,0.77,1.84c0.44,0.05,1.16,0.05,1.6,0.1c4.41,0.29,13.51,0.44,13.31,0.15
				c-0.73-1.16-3.29-1.45-6.73-0.73c-0.97,0.19-3.44-0.29-4.7-0.97c-0.48-0.24-0.97-0.48-1.02-0.48c-0.48-0.1-1.4-0.58-2.08-1.07
				C211.37,476.96,211.37,477.01,211.37,479 M175.21,482c-0.92,1.16-2.28,1.6-5.91,1.89l-2.57,0.19l1.65,2.47
				c0.92,1.4,2.28,3.24,3,4.16c0.73,0.92,1.69,2.08,2.08,2.61c1.65,2.13,1.21,1.98,6.39,2.13c2.61,0.1,4.79,0.1,4.79,0.05
				s-0.19-0.29-0.39-0.48c-0.63-0.63-2.57-3.44-2.57-3.78c0-0.15-0.1-0.29-0.19-0.29c-0.29,0-2.03-3-4.26-7.55l-1.21-2.42
				L175.21,482 M178.5,482.34c0,0.44,1.31,2.86,2.42,4.36c0.29,0.44,0.44,0.77,0.34,0.77c-0.1,0-0.1,0.1,0.05,0.19
				c0.19,0.1,0.77,0.87,1.31,1.69c0.58,0.77,1.07,1.55,1.16,1.6c0.1,0.1,0.92,1.11,1.89,2.28l1.69,2.13h4.55h4.5l-0.19-0.63
				c-0.1-0.39-0.29-0.92-0.44-1.26c-0.97-2.32-2.66-7.55-3.1-9.83c-0.39-1.79-0.19-1.74-7.5-1.74
				C179.51,481.9,178.5,481.95,178.5,482.34 M194.62,482.29c0,1.55,2.42,9.15,4.02,12.39l0.44,0.97h4.94c2.71,0,4.99-0.1,5.08-0.19
				c0.05-0.1,0.19-3.2,0.24-6.83l0.1-6.58l-7.41-0.1C195.83,481.9,194.62,481.95,194.62,482.29 M212.19,488.44
				c0.05,3.58,0.15,6.68,0.19,6.87c0.1,0.29,1.26,0.39,5.03,0.29l4.94-0.1l0.48-1.07c0.92-1.84,3.44-8.91,3.82-10.89
				c0.1-0.44,0.24-0.97,0.39-1.26c0.15-0.44-0.58-0.44-7.41-0.44h-7.6L212.19,488.44 M229.86,482.63c0,1.26-1.26,5.52-3.05,10.26
				c-0.44,1.16-0.77,2.13-0.77,2.28c0,0.15,2.08,0.19,4.6,0.19h4.6l1.02-1.4c0.53-0.77,1.16-1.55,1.36-1.74
				c1.74-1.84,6.25-9.05,6.29-10.02c0-0.29-1.6-0.39-7.02-0.39h-7.07v0.82 M245.74,483.74c-0.19,0.68-0.34,1.26-0.34,1.26
				c0.19,0-3.68,6.83-4.12,7.21c-0.29,0.24-2.08,3.1-2.08,3.34c0,0.1,1.98,0.19,4.41,0.19h4.41l1.16-1.26
				c2.9-3.15,5.18-6.63,5.62-8.57l0.19-0.97l-2.37-0.19c-3-0.24-5.37-0.92-5.86-1.65C246.27,482.24,246.13,482.34,245.74,483.74
				 M177.87,497.88c0,0.19,1.5,1.65,1.69,1.65c0.1,0,0.53,0.29,0.97,0.68c0.77,0.73,4.79,3.44,7.07,4.74
				c5.47,3.2,12.1,5.47,17.82,5.95c2.08,0.19,2.37,0.19,1.89-0.15c-0.29-0.19-0.68-0.39-0.92-0.39c-0.19,0-0.73-0.15-1.21-0.34
				c-0.48-0.19-1.07-0.39-1.4-0.44c-1.98-0.39-9.49-4.31-10.6-5.52c-0.15-0.19-0.87-0.77-1.6-1.31c-1.5-1.16-3.53-3.2-4.21-4.26
				C187.02,497.78,177.87,497.25,177.87,497.88 M189.05,497.98c0,0.53,5.08,4.5,7.84,6.15c2.23,1.31,8.23,3.53,8.57,3.2
				c0.1-0.1-0.1-0.29-0.39-0.48c-1.89-1.07-5.47-5.47-6.63-8.08l-0.39-0.97h-4.45C191.04,497.73,189.05,497.88,189.05,497.98
				 M200.52,497.98c0,0.34,0.92,2.18,1.31,2.61c0.19,0.19,0.53,0.63,0.73,1.02c0.63,0.97,2.42,3,3.15,3.58
				c0.39,0.29,0.82,0.73,1.02,0.92c0.58,0.53,2.47,1.65,2.86,1.65c0.24,0,0.29-0.44,0.19-1.55c-0.1-0.87-0.24-3-0.34-4.74
				c-0.1-1.74-0.24-3.34-0.29-3.44C208.9,497.69,200.52,497.69,200.52,497.98 M212.77,498.65c-0.05,0.48-0.05,0.97-0.1,1.11
				c-0.05,0.15-0.15,1.4-0.29,2.86c-0.15,1.45-0.29,3.29-0.39,4.02c-0.1,0.92-0.05,1.4,0.15,1.4c0.68,0,4.7-3.34,6-4.94
				c0.73-0.92,1.45-1.84,1.6-1.98c0.15-0.19,0.19-0.39,0.1-0.53c-0.1-0.1-0.05-0.19,0.1-0.19c0.29,0,1.55-2.03,1.55-2.47
				c0-0.1-1.98-0.19-4.41-0.19h-4.41L212.77,498.65 M223.23,499.43c-1.26,2.9-3.44,5.57-5.66,6.97c-0.68,0.44-1.26,0.87-1.26,0.97
				c0,0.44,5.52-1.26,7.41-2.32c0.73-0.39,1.65-0.92,2.03-1.16c1.84-1.07,7.36-5.66,7.07-5.95c-0.1-0.1-2.13-0.15-4.55-0.15h-4.36
				L223.23,499.43 M234.99,499.67c-0.97,1.02-2.66,2.61-3.82,3.49c-1.16,0.92-2.37,1.89-2.76,2.23c-1.07,0.92-7.07,3.78-8.33,3.97
				c-0.63,0.1-1.16,0.29-1.26,0.44c-0.1,0.15-0.39,0.24-0.63,0.29c-0.29,0-0.92,0.19-1.4,0.44c-0.82,0.39-0.73,0.44,1.5,0.29
				c5.47-0.34,11.67-2.42,17.77-5.91c2.42-1.4,7.99-5.33,9.1-6.39l0.73-0.73l-4.55,0.05l-4.55,0.05L234.99,499.67"/>
			<path id="path1_1_" class="st139" d="M154.53,442.88c-9.88,0.44-12.78,3.24-9.92,9.49c0.77,1.74,0.82,2.08,0.19,3.24
				c-0.63,1.26-0.82,3.68-0.44,6.34c0.29,1.98,0.24,2.42-0.29,3.97c-0.77,2.18-0.77,3.82,0.05,6.29c0.58,1.84,0.63,1.98,0.19,4.84
				c-0.87,6-1.11,9.15-0.77,10.36c0.97,3.2,3.44,5.95,6.63,7.41c9.97,4.6,10.65,5.52,11.57,16.32c0.34,3.92,0.73,7.02,1.07,7.94
				c0.63,1.94,1.84,4.36,2.42,5.03c0.29,0.29,0.87,1.07,1.31,1.65c1.21,1.6,10.7,10.99,12.78,12.64c6.25,4.94,21.3,9.97,23.87,7.99
				c0.63-0.48,0.77-23.87,0.19-27.93c-0.53-3.49-2.18-4.94-7.26-6.44c-4.74-1.4-9.3-2.86-9.59-3.1c-0.29-0.19-1.26-0.77-3.97-2.32
				c-0.73-0.39-1.4-0.82-1.5-0.92c-0.1-0.1-0.87-0.73-1.74-1.31c-3.78-2.71-7.21-6.2-10.7-10.7c-0.82-1.07-1.65-2.08-1.84-2.32
				c-0.24-0.19-0.39-0.48-0.39-0.58c0-0.1-0.34-0.58-0.77-1.07c-1.74-2.03-2.23-3.2-1.84-4.5l0.39-1.16l2.52-0.19
				c8.71-0.58,10.89-2.57,8.67-7.89c-0.58-1.36-0.58-3.15,0-5.28c0.63-2.37,0.58-4.36-0.1-5.52l-0.58-0.97l0.82-1.5
				c1.74-3.2,1.74-5.37,0.1-8.91c-0.44-0.92-0.44-1.07,0.19-2.08c2.23-3.97-0.58-7.75-6.15-8.42c-0.82-0.1-1.55-0.29-1.65-0.44
				C167.85,442.54,161.75,442.59,154.53,442.88 M251.02,444.09c-0.39,0.15-0.97,0.24-1.26,0.15c-0.29-0.05-0.53,0-0.53,0.1
				s-0.19,0.29-0.44,0.29s-1.07,0.58-1.84,1.31l-1.4,1.31v2.28c0,1.84,0.1,2.42,0.63,3.15c0.63,0.92,0.63,1.02-0.44,3.39
				c-0.87,1.84-0.63,4.84,0.48,7.07l0.97,1.89l-0.63,1.11c-0.73,1.31-0.77,2.32-0.19,4.5c0.87,3.34,0.87,3.97,0.05,6.63
				c-0.73,2.28-0.87,5.33-0.19,4.7c0.1-0.1,0.44,0.19,0.73,0.58c0.97,1.26,3.68,1.89,7.94,1.89c4.36,0.05,4.31,3.1-0.15,7.99
				c-0.29,0.29-0.53,0.68-0.53,0.77s-0.15,0.39-0.39,0.63c-0.19,0.19-1.26,1.5-2.32,2.76c-3.1,3.73-7.55,7.7-11.13,9.97
				c-0.68,0.44-1.31,0.87-1.4,0.97c-0.44,0.53-4.89,2.76-6.49,3.24c-0.73,0.19-1.55,0.48-1.89,0.63c-0.29,0.1-2.03,0.58-3.82,1.07
				c-6.97,1.74-7.89,2.76-8.33,9.25c-0.53,7.55-0.39,24.55,0.19,25.13c0.58,0.58,3.63,0.63,5.86,0.1c11.72-3,16.07-5.47,24.69-13.99
				c9.44-9.34,10.46-11.13,10.94-19.36c0.63-9.78,0.97-10.89,4.31-13.89c1.07-0.97,2.86-2.08,4.79-3c4.74-2.28,4.74-2.32,6.25-3.78
				c3.34-3.2,3.78-6.87,1.94-16.65c-0.29-1.4,0.05-3.24,0.68-3.82c0.48-0.44,0.19-4.36-0.39-6.05c-0.48-1.4-0.53-1.89-0.29-2.61
				c0.48-1.36,0.39-6.1-0.1-6.97c-0.63-1.07-0.53-2.32,0.34-4.12c1.98-4.21,0.39-7.17-4.6-8.62
				C271.01,443.66,252.33,443.51,251.02,444.09 M171.14,445.88c2.18,1.45,2.42,3.53,0.48,4.7c-1.36,0.87-22.46,1.4-23.96,0.63
				c-1.84-0.97-1.74-3.78,0.19-5.03C149.55,445.06,169.59,444.82,171.14,445.88 M273.72,446.8c2.08,0.87,2.61,3.73,0.92,4.99
				c-1.07,0.77-21.74,0.82-23.58,0.05c-2.66-1.11-2.66-3.87-0.05-5.23C252.33,445.88,272.08,446.13,273.72,446.8 M171.04,455.71
				c2.61,1.4,2.47,4.36-0.15,5.03c-2.61,0.68-22.75,0.73-23.58,0.05c-1.5-1.21-1.31-3.58,0.44-4.79
				C149.45,454.74,168.81,454.5,171.04,455.71 M273.72,456.49c1.84,0.77,2.52,3.44,1.26,5.03l-0.63,0.82l-11.18-0.19
				c-12.25-0.19-12.64-0.24-13.6-1.65c-0.92-1.36-0.82-1.98,0.48-3.29l1.16-1.11h10.75C270.58,456.05,272.95,456.15,273.72,456.49
				 M170.02,465.15c1.65,0.44,3,2.13,2.76,3.44c-0.34,2.13-0.1,2.13-9.97,2.13c-4.84,0-9.97,0.15-11.38,0.34
				c-3.92,0.48-5.23-0.15-5.23-2.52c0-2.03,1.45-3.2,4.36-3.39C154.53,464.86,168.86,464.86,170.02,465.15 M270.92,465.93
				c3.1,0.19,4.5,1.11,4.89,3.2c0.44,2.32-0.97,3.1-4.84,2.71c-1.55-0.15-6.63-0.19-11.33-0.1c-9.54,0.19-9.68,0.15-10.26-1.65
				c-0.63-1.84,0.53-3.44,2.9-4.02C253.44,465.78,267.29,465.68,270.92,465.93 M171.04,475.32c1.94,1.11,2.32,2.23,1.4,4.12
				c-0.73,1.55-1.45,1.65-10.75,1.55c-4.55-0.05-9.68,0.05-11.47,0.15l-3.15,0.24l-0.44-1.07c-0.58-1.4-0.53-2.52,0.1-3.73
				c1.07-1.98,1.31-2.08,12.78-2.08h10.26L171.04,475.32 M274.21,476.19c3.05,2.28,1.55,6.54-2.08,6c-0.92-0.1-5.95-0.24-11.33-0.24
				c-9.34-0.05-9.78-0.05-10.46-0.63c-2.18-1.74-1.26-5.08,1.6-5.62C254.41,475.17,273.43,475.61,274.21,476.19"/>
		</g>
	</g>
	<path class="st140" d="M466.65,499.38c0.53,0.29,0.87,0.73,0.97,1.31l-2.03,0.15c-0.19,0-0.34,0.1-0.44,0.19
		c-0.39,0.44-0.53,0.92-0.44,1.55c0.05,0.15,0.15,0.24,0.29,0.29c1.07,0.15,1.89,0.19,2.47,0.05c0.87-0.19,1.11,0.19,0.73,1.07
		c-0.05,0.15-0.19,0.24-0.34,0.24l-5.66-0.05c-0.15,0-0.24-0.1-0.24-0.24c0-0.63,0.34-1.07,0.97-1.21c0.15-0.05,0.24-0.15,0.24-0.29
		C463.36,500.3,464.52,499.28,466.65,499.38z"/>
	<path class="st141" d="M622.49,531.43c0.97,0.05,1.89,0,2.86-0.19c1.21-0.19,2.08-0.77,2.61-1.69c0.29-0.53,0.48-1.5,0.48-2.81
		c0.1-5.86,0.15-11.72,0.1-17.57c0,0,0-0.24-0.05-0.73c-0.05-0.97,0.39-1.55,1.36-1.79c0.77-0.19,1.55-0.39,2.32-0.58
		c0.15-0.05,0.34,0.05,0.39,0.19c0,0.05,0,0.05,0,0.1c0,6.78,0,13.6,0,20.38c0,3.53-1.4,6-4.12,7.36c-0.97,0.48-2.37,0.77-4.16,0.82
		c-3.78,0.15-7.65,0.19-11.52,0.15c-0.34,0-0.58-0.24-0.63-0.53c0-0.1,0-0.19,0.05-0.24l1.4-2.52c0.05-0.1,0.19-0.19,0.39-0.19
		l3.97-0.24c0.15,0,0.24-0.15,0.24-0.24l0.05-21.59c0-0.19,0.15-0.34,0.34-0.44l2.57-0.82c0.68-0.24,1.07,0,1.07,0.68l0.15,22.27
		C622.25,531.33,622.34,531.43,622.49,531.43z"/>
	<circle class="st140" cx="355.06" cy="507.51" r="1.21"/>
	<circle class="st140" cx="359.41" cy="507.51" r="1.21"/>
	<circle class="st140" cx="482.96" cy="507.46" r="1.21"/>
	<circle class="st140" cx="478.56" cy="507.46" r="1.21"/>
	<path class="st140" d="M357.53,531.91c-0.05-0.1-0.15-0.1-0.24-0.05c0,0,0,0-0.05,0.05c-0.92,1.16-2.03,1.98-3.34,2.52
		c-0.87,0.34-2.23,0.53-4.02,0.58c-12.64,0.24-22.42,0.19-29.29-0.05c-1.45-0.05-2.57-0.63-3.24-1.79
		c-0.44-0.68-0.63-1.79-0.68-3.29c-0.05-4.41-0.1-11.33-0.1-20.67c0-0.92,0.05-1.65,0.15-2.23c0.05-0.15,0.15-0.29,0.29-0.34
		c0.87-0.44,1.26-0.19,1.21,0.77c-0.05,0.58-0.05,0.92-0.05,0.92c0.05,7.21,0.05,14.48,0.15,21.69c0,1.07,0.34,1.94,0.97,2.61
		c0.44,0.44,1.07,0.68,1.89,0.77c3,0.19,6.2,0.24,9.63,0.15c0.24,0,0.44-0.24,0.44-0.48c-0.05-2.86-0.05-5.57,0.05-8.13
		c0.05-2.52,0.34-4.36,0.92-5.57c1.4-3.05,4.07-4.5,8.04-4.41c1.11,0.15,2.37,0.87,3.1,1.55c0.1,0.1,0.15,0.24,0.1,0.39
		c-0.15,0.53-0.48,0.82-0.97,0.82c-0.24,0-0.63-0.15-1.02-0.44c-1.5-1.02-3.1-1.11-4.79-0.24c-1.21,0.58-2.08,1.45-2.61,2.57
		c-0.39,0.73-0.58,1.89-0.63,3.44c-0.1,3.24-0.1,6.58-0.05,10.12c0,0.24,0.19,0.48,0.48,0.48c5.62,0.05,11.04,0.05,16.22-0.1
		c1.6-0.05,2.76-0.24,3.49-0.63c0.77-0.44,1.4-1.02,1.89-1.79c0.34-0.58,0.58-1.36,0.68-2.37c0.39-4.02,0.53-7.99,0.39-12.05
		c-0.05-1.02,0.39-1.4,1.26-1.26c0.15,0.05,0.73,0.15,0.73,0.29c0,4.16,0.1,8.28,0.29,12.39c0.05,1.36,0.34,2.37,0.77,3.05
		c0.44,0.63,0.48,1.16,1.16,1.55c0.53,0.34,1.21,0.53,2.08,0.68c1.89,0.29,3.58,0.29,5.13,0.05c2.08-0.34,3.44-1.6,4.02-3.73
		c0.34-1.21,0.48-3.34,0.48-6.39c-0.05-5.23-0.1-10.41-0.1-15.59c0-0.97,2.42-0.87,2.42-0.73c-0.24,11.18-0.29,17.86-0.1,19.95
		c-0.19,4.84-2.13,6.87-6.05,7.99c-1.31,0.39-3.2,0.44-5.71,0.15C360.53,534.77,358.79,533.75,357.53,531.91z"/>
	<path class="st140" d="M496.13,506.88c0.34,0,0.77-0.05,0.77-0.05c0.1,6.05,0,13.56,0.1,19.66c0.05,1.98,0.24,3.44,0.68,4.26
		c0.77,1.5,2.08,2.37,3.92,2.57c0.68,0.1,1.4,0.15,2.18,0.19c0.68,0.05,1.4,0,2.18-0.1c3.15-0.44,4.84-2.23,5.08-5.42
		c0.19-2.86,0.1-15.54,0.1-19.7c0-0.73,1.07-1.36,1.79-1.36h0.24c0,0-0.05,7.6,0.1,11.38c0.05,1.6,0.05,3.05,0.05,4.26
		c0,1.4-0.05,2.86-0.05,4.26c-0.05,2.03-0.73,3.53-1.21,4.45c-0.97,1.89-2.61,3.05-4.99,3.49c-1.74,0.34-3.53,0.44-5.33,0.24
		c-2.08-0.19-3.82-1.16-5.28-2.95c-0.15-0.19-0.44-0.19-0.63-0.05l-0.05,0.05c-1.45,1.74-3.2,2.71-5.28,2.9
		c-1.6,0.15-3.15,0.1-4.74-0.05c-1.98-0.24-3.58-1.16-4.79-2.76c-0.15-0.19-0.44-0.24-0.63-0.1c-0.05,0-0.05,0.05-0.1,0.05
		c-0.92,1.07-1.98,1.84-3.2,2.32c-0.77,0.29-2.03,0.53-3.78,0.58c-2.66,0.15-4.45,0.1-5.33-0.1c-1.45-0.34-2.52-1.11-3.1-2.28
		c-0.34-0.68-0.53-1.84-0.58-3.49c-0.15-7.36-0.15-14.67,0.05-22.03c0-0.15,0.1-0.29,0.19-0.39c0.44-0.24,0.87-0.34,1.36-0.24
		c0.15,0,0.24,0.15,0.24,0.29c0.05,7.79,0.05,15.64,0.05,23.43c0,1.02,0.34,1.84,1.02,2.47c0.53,0.44,1.31,0.68,2.32,0.73
		c1.02,0.05,2.42,0,4.26-0.05c2.13-0.05,3.73-0.82,4.79-2.23c0.44-0.58,0.68-1.4,0.73-2.52c0.34-6.78,0.44-10.8,0.29-12.1
		c-0.1-0.87,0.87-1.31,1.79-1.36c0.19,0,0.34,0.15,0.34,0.29c0.15,1.6,0.19,3.1,0.15,4.41c-0.05,2.42-0.05,4.89,0.1,7.31
		c0.1,1.89-0.05,3.24,0.53,4.07c0.87,1.21,2.23,1.94,4.12,2.08c0.77,0.05,1.45,0.1,2.03,0.1c0.73,0,1.4-0.05,1.98-0.15
		c1.6-0.19,2.76-0.97,3.49-2.23c1.16-1.69,0.82-17.96,0.68-22.8C494.82,507.56,495.41,506.93,496.13,506.88z"/>
	
		<ellipse transform="matrix(0.9578 -0.2874 0.2874 0.9578 -133.7477 104.0074)" class="st142" cx="287.38" cy="507.55" rx="0.97" ry="1.07"/>
	<path class="st141" d="M637.11,534.91c-0.15-0.05-0.24-0.15-0.24-0.29l-0.15-26.87c0-0.15,0.1-0.29,0.24-0.34l2.9-0.87
		c0.29-0.1,0.63,0.1,0.73,0.39c0,0.05,0,0.1,0,0.15v27.45c0,0.19-0.15,0.39-0.34,0.44C639.43,535.16,638.42,535.11,637.11,534.91z"
		/>
	<path class="st143" d="M765.01,534.96c-0.68,0.15-1.4,0.19-2.13,0.15c-0.05,0-0.34,0-0.82,0.05c-0.68,0.05-1.02-0.34-0.97-1.02
		c0.05-0.44,0.05-0.68,0.05-0.68c0-8.47,0-16.94,0-25.42c0-0.24,0.29-0.48,0.68-0.63l2.9-0.73c0.19-0.05,0.48,0.05,0.58,0.29
		c0,0,0,1.69,0,2.37C765.11,515.99,764.87,533.03,765.01,534.96z"/>
	<circle class="st144" cx="847.12" cy="508.48" r="2.08"/>
	<circle class="st144" cx="841.17" cy="508.48" r="2.08"/>
	<path class="st143" d="M857.1,506.79c0,0,0,4.02,0,4.07c-0.05,6.05,0,12.15,0.15,18.2v5.66c0,0.15-0.1,0.24-0.24,0.29
		c-1.11,0.19-2.23,0.19-3.34,0c-0.15,0-0.24-0.15-0.24-0.29l-0.05-26.92c0-0.15,0.1-0.29,0.29-0.34
		C854.67,507.08,857.1,506.79,857.1,506.79z"/>
	<path class="st141" d="M577.46,511.53L577.46,511.53l0.05,3.49c0,3.05,0.05,6.05,0,9.1c0,2.52,0.05,4.02,0.24,4.5
		c0.53,1.79,1.98,2.71,4.36,2.76c1.84,0.05,3.92,0.05,6.15,0.05c0.24,0,0.44-0.19,0.44-0.44c0-0.05,0-0.1,0-0.15
		c-0.63-1.98-0.73-4.16-0.24-6.49c0.39-1.94,1.36-3.29,2.86-4.07c1.4-0.68,2.86-0.82,4.5-0.39c2.13,0.58,3.44,2.08,3.92,4.55
		c0.44,2.18,0.19,4.41-0.73,6.68c-0.05,0.1,0,0.19,0.1,0.24h0.05h3.58c0.15,0,0.24-1.31,0.34-1.84c0.39-2.37,0.15-4.7-0.34-6.92
		c-0.39-1.69-0.97-3-1.79-3.92c-1.07-1.16-2.47-1.79-4.21-1.84c-3.24-0.15-6.44-0.19-9.68-0.1c-0.39,0-0.44-0.1-0.15-0.39
		c0.77-0.77,1.6-1.45,2.47-2.13c0.63-0.48,1.36-0.77,2.13-0.87c2.9-0.39,5.81-0.15,8.67,0.58c2.03,0.53,3.58,1.55,4.7,3.05
		c0.82,1.11,1.45,2.76,1.84,4.94c0.34,1.74,0.48,3.49,0.48,5.28c0,2.52,0,4.99-0.05,7.46c0,0.19-0.15,0.29-0.34,0.29h-24.5
		c-1.94,0-3.87-0.58-5.76-1.69c-0.68-0.39-1.31-0.39-1.98,0.1c-0.97,0.68-2.08,1.16-3.34,1.36c-0.53,0.1-1.69,0.19-3.53,0.24
		c-1.45,0.05-2.86,0.05-4.31-0.05c-1.74-0.1-3.49-0.82-5.23-2.08c-0.19-0.15-0.44-0.15-0.63,0c-1.4,1.07-3.1,1.69-5.03,1.89
		c-2.52,0.24-5.08,0.29-7.6,0.15c-1.89-0.1-3.68-0.97-5.33-2.61c-0.15-0.15-0.39-0.15-0.58,0l0,0c-1.6,1.65-3.53,2.52-5.71,2.57
		c-5.37,0.1-8.33-2.47-8.86-7.79c-0.15-1.55-0.15-3.15,0-4.74c0.39-4.36,2.76-6.83,7.02-7.5c1.65-0.24,4.89-0.24,9.83-0.05
		c0.15,0,0.24,0.1,0.24,0.24c0.24,4.36,0.34,7.6,0.19,9.73c-0.1,1.5,0.05,2.9,0.44,4.16c0.29,0.87,0.77,1.45,1.45,1.84
		c0.77,0.39,1.65,0.58,2.71,0.58c1.79,0,3.63,0,5.42-0.05c1.4,0,2.47-0.48,3.15-1.4c0.48-0.63,0.73-1.65,0.77-3.05
		c0.1-3.05,0.1-6.25,0.05-9.59c0-0.77,0.34-1.26,1.02-1.45l2.32-0.58c0.34-0.1,0.73,0.15,0.82,0.58c0,0.05,0,0.15,0,0.19
		c-0.05,3.97-0.05,7.6,0.05,10.99c0.05,1.31,0.24,2.28,0.63,2.86c0.58,0.92,1.55,1.45,2.81,1.55c0.92,0.1,1.94,0.1,3.15,0.05
		c1.94-0.05,3-0.1,3.15-0.1c2.61-0.34,3.92-2.03,3.87-5.18c-0.05-4.7,0.05-10.51,0.19-17.38c0-0.05,0-0.48,0-0.87
		c0-0.44,0.34-0.82,0.77-0.92c0.97-0.15,2.47-0.34,2.9-0.24C577.56,506.88,577.46,511.48,577.46,511.53z M530.07,530.56
		c1.36,0.87,2.76,1.07,4.21,0.63c0.87-0.24,1.5-0.68,1.98-1.26c0.44-0.58,0.73-1.36,0.87-2.32c0.34-2.81,0.44-5.76,0.15-8.96
		c0-0.15-0.15-0.24-0.29-0.24c-1.5-0.1-2.95-0.05-4.26,0.05c-1.21,0.1-2.08,0.34-2.61,0.73c-0.77,0.53-1.26,1.36-1.55,2.47
		c-0.63,2.61-0.44,5.23,0.53,7.79C529.34,529.88,529.68,530.27,530.07,530.56z M592.42,530.7c1.6,1.11,2.81,0.87,3.63-0.82
		c0.82-1.69,0.92-3.44,0.29-5.33c-0.24-0.63-0.53-1.11-0.97-1.45c-0.58-0.39-1.16-0.53-1.84-0.39c-0.73,0.19-1.26,0.73-1.6,1.6
		c-0.68,1.69-0.73,3.58-0.05,5.62C591.99,530.27,592.18,530.51,592.42,530.7z"/>
	<path class="st143" d="M786.8,514.97c1.69,0.39,3,0.87,3.97,1.36c2.23,1.21,3.39,3.2,3.49,5.91c0.15,4.16,0.15,8.33-0.05,12.49
		c0,0.15-0.1,0.24-0.24,0.24c-5.52,0.19-11.04,0.19-16.56,0c-0.1,0-0.15-0.1-0.15-0.15v-0.05c0.48-1.11,1.16-2.03,2.03-2.9
		c0.1-0.1,0.24-0.15,0.39-0.19l10.36-0.24c0.15,0,0.24-0.1,0.24-0.24c0.05-2.76,0.05-5.57,0.05-8.33c0-1.65-0.63-2.86-1.84-3.73
		c-1.21-0.82-2.71-1.07-4.41-0.58c-1.65,0.44-3.1,1.4-4.31,2.9c-0.1,0.1-0.15,0.1-0.15-0.05c-0.05-0.77-0.05-1.5-0.1-2.28
		c-0.05-1.16,0.44-1.98,1.4-2.52c1.11-0.63,2.28-1.11,3.49-1.45l0.29-0.05c0.63-0.15,1.26-0.15,1.89-0.1L786.8,514.97z"/>
	<path class="st143" d="M757.46,506.84v-0.05c-0.05-0.1-0.15-0.15-0.24-0.15l-3.73,1.16c0,0,0,5.42,0,8.18c0,0.05,0,0.1,0,0.1
		s0.05,6.44,0.05,9.68c0,1.5-0.19,2.66-0.53,3.49c-0.63,1.36-1.84,2.08-3.58,2.13c-2.52,0.05-4.99,0.1-7.5,0.1h-0.05
		c-0.29,0-0.48-0.29-0.48-0.58c0.24-3.24-0.1-6.25-1.07-9.1c-0.44-1.31-0.97-2.37-1.6-3.2c-0.77-1.07-1.74-1.84-2.81-2.37
		c-1.11-0.53-2.37-0.92-3.92-1.16c-1.4-0.19-2.76-0.19-3.97,0.1c-2.42,0.58-4.74,1.79-6.87,3.58l-0.05,0.05
		c-0.24,0.24-0.24,0.58,0,0.82l2.08,1.98c0.1,0.1,0.29,0.1,0.39,0c0.34-0.24,0.97-0.77,1.89-1.55c1.6-1.36,3.73-1.84,6.25-1.5
		c1.65,0.24,2.95,0.97,3.87,2.23c0.68,0.92,1.11,2.23,1.4,3.92c0.29,1.98,0.39,4.12,0.29,6.39c0,0.19-0.19,0.39-0.39,0.39
		c-7.02,0.05-14.04,0.05-21.11-0.05c-3.15-0.05-4.74-1.69-4.74-4.94c0-6.1,0-12.88,0-18.98c0-0.05-4.07,1.21-4.07,1.4l-0.05,7.79
		c0.05,3.53-0.05,7.07-0.29,10.6c-0.1,1.31-0.39,2.23-0.87,2.81c-0.77,0.87-1.94,1.11-3.44,1.16c-1.89,0.1-2.32,0.15-3.68,0.15
		c-1.79,0.05-3.15-0.15-4.12-1.11c-0.63-0.63-1.02-1.74-1.16-3.24c-0.19-1.98-0.24-3.97-0.15-6l0,0c0.1-1.65,0.1-3.24,0.05-4.89
		c0-0.1,0-0.29,0.05-0.58c0.05-0.48-0.19-0.63-0.68-0.34l-3.1,0.82c-0.19,0.05-0.29,0.24-0.29,0.48c0,2.71,0,5.37,0,7.99
		c0,1.4-0.1,2.66-0.29,3.68s-0.58,1.79-1.21,2.23c-0.68,0.53-1.55,0.82-2.61,0.87c-1.79,0.1-3.39,0.05-4.84-0.15
		c-1.4-0.19-2.57-0.58-3.49-1.16c-1.11-0.73-1.94-1.69-2.47-2.86c-0.58-1.21-1.65-3.97-3.29-8.23c-0.87-2.37-2.76-4.02-5.52-4.89
		l-0.87-0.24c-0.97-0.24-1.98-0.24-2.66-0.24c-0.34,0-0.73,0.05-1.07,0.15l-1.69,0.44c-2.13,0.77-3.97,1.89-5.47,3.53
		c-0.1,0.1-0.15,0.29-0.1,0.39c0.19,0.53,0.58,0.97,1.11,1.21c0.15,0.05,0.97,0.73,1.36,0.34c0.58-0.58,1.36-1.07,2.28-1.6
		c0.92-0.48,1.74-0.82,2.57-0.97c2.57-0.53,4.74,0.34,6.54,2.47c0.44,0.53,0.73,1.21,0.82,2.08v0.05c0,0.15-0.1,0.24-0.24,0.24
		c-1.31,0-2.61,0-3.92-0.05c-1.98-0.05-3.87,0.34-5.66,1.16c-3.53,1.6-5.57,4.36-6.15,8.23c-0.48,3.24,0.24,6.05,2.23,8.38
		c2.47,2.9,5.76,4.26,9.83,3.97c2.32-0.15,4.26-0.68,5.71-1.55c0.15-0.1,0.24-0.24,0.24-0.39l0.05-3.39c0-0.29-0.1-0.34-0.34-0.15
		c-1.26,0.92-2.61,1.5-4.07,1.79c-1.31,0.24-2.52,0.29-3.63,0.15c-1.26-0.19-2.42-0.68-3.44-1.45c-1.55-1.21-2.42-2.81-2.52-4.79
		c-0.19-3.53,1.02-6,3.73-7.46c1.02-0.53,2.42-0.82,4.16-0.87c1.6-0.05,3.34-0.05,5.13,0c0.29,0,0.58,0.24,0.63,0.53
		c1.11,5.08,3.97,7.99,8.57,8.71c1.31,0.19,2.81,0.34,4.55,0.34c1.55,0,3.05-0.15,4.55-0.48c0.63-0.15,1.21-0.39,1.79-0.73
		c0.53-0.29,1.11-0.63,1.65-1.02c0.19-0.1,0.39-0.1,0.53,0.05c1.36,1.21,2.95,1.89,4.79,2.03c1.36,0.1,2.76,0.15,4.12,0.1
		c2.13-0.05,3.49-0.15,4.12-0.29c1.45-0.29,2.76-0.92,3.97-1.94c0.1-0.1,0.29-0.1,0.44,0c2.13,1.5,4.41,2.23,6.73,2.28
		c10.55,0.05,21.11,0,31.66-0.15c2.42-0.05,4.16-0.24,5.13-0.63c1.84-0.68,3.15-1.94,4.02-3.73c0.48-1.02,0.73-2.52,0.77-4.55
		C757.56,519.62,757.56,513.32,757.46,506.84z"/>
	<path class="st140" d="M281.47,535.2c-0.68-0.15-1.36-0.29-2.03-0.39c-2.23-0.34-3.34-1.45-3.39-3.34c0-1.02,0.29-1.11,0.87-0.29
		c0.82,1.16,1.98,1.89,3.39,2.23c1.21,0.24,3.15,0.24,5.81,0c2.08-0.19,3.49-1.16,4.21-2.86c0.34-0.77,0.53-2.32,0.58-4.55
		c0.1-3.15,0.1-6.25,0.05-9.39c0-1.11,0.48-1.55,1.45-1.26c0.15,0.05,0.24,0.15,0.24,0.29c0.05,3.49,0.05,6.97,0.05,10.46
		c0,2.18-0.24,3.82-0.73,4.84c-1.26,2.76-3.78,4.16-7.6,4.16c-0.44,0-0.82,0.34-0.87,0.82c-0.15,2.81-1.36,4.94-3.53,6.29
		c-1.4,0.87-3,1.36-4.79,1.5c-1.6,0.15-3.24,0.05-4.89-0.19c-3.39-0.48-5.71-2.23-7.07-5.13c-0.87-1.84-1.21-4.12-1.11-6.78
		c0.1-2.32,0.53-4.6,1.31-6.83c0.1-0.29,0.24-0.53,0.44-0.77c1.11-1.16,1.36-0.77,0.77,1.16c-0.53,1.69-0.82,3.44-0.87,5.18
		c-0.1,1.84-0.05,3.29,0.15,4.41c0.24,1.55,0.82,2.9,1.79,4.12c1.16,1.45,2.66,2.42,4.55,2.86c1.74,0.39,3.63,0.39,5.62-0.05
		c3.53-0.77,5.47-2.81,5.86-6.15C281.71,535.35,281.62,535.2,281.47,535.2z"/>
	<path class="st140" d="M428.69,520.83c0.24-0.97,0.34-1.79,0.19-2.52c-0.19-1.16,0-2.13,0.63-2.95c0.68-0.34,1.07-0.15,1.11,0.58
		c0.15,2.03,0.15,3.68,0,4.94c-0.1,0.92-0.1,2.66,0,5.28c0.1,2.32,0.39,3.92,0.87,4.79c0.92,1.6,2.86,2.08,5.23,2.08
		c1.89,0,3.15-0.1,3.87-0.24c2.08-0.44,3.05-1.4,3.53-3.53c0.34-1.5,0.48-2.95,0.44-4.26c-0.1-2.52,0.39-4.6,1.36-6.25
		c1.02-1.69,2.71-2.61,5.03-2.81c4.41-0.34,7.07,1.6,7.94,5.81c0.53,2.42,0.53,4.94,0.05,7.5c-0.34,1.79-1.16,3.24-2.42,4.21
		c-1.16,0.92-2.61,1.45-4.31,1.55c-2.47,0.1-4.55-0.87-6.29-3c-0.15-0.19-0.44-0.19-0.63-0.05l-0.05,0.05
		c-1.45,1.74-3.34,2.86-5.52,3.1c-1.6,0.15-3.15,0.15-4.74,0c-2.03-0.24-3.58-1.31-4.94-3c-0.1-0.15-0.34-0.15-0.48-0.05
		c0,0,0,0-0.05,0.05c-1.6,1.69-3.29,2.66-5.18,2.86c-1.94,0.24-4.79,0.24-8.57,0.05c-0.15,0-0.29,0.1-0.29,0.24
		c-0.15,0.48-0.39,1.45-0.68,2.9c-0.29,1.36-0.97,2.52-1.98,3.39c-0.82,0.73-1.94,1.26-3.34,1.65c-2.13,0.58-4.45,0.77-7.02,0.53
		c-4.84-0.44-7.89-3.05-9-7.79c-0.24-1.02-0.53-3.2-0.92-6.49c-0.15-1.36,0.39-2.03,1.55-2.13c0.15,0,0.24,0.1,0.24,0.19l0,0
		c0,0.87,0.05,1.79,0.1,2.66c0,0,0,0.68,0.05,1.89c0.05,1.5,0.34,2.9,0.82,4.31c0.53,1.5,1.31,2.66,2.37,3.58
		c1.21,1.02,2.57,1.69,4.16,1.94c1.26,0.19,2.76,0.29,4.45,0.19c1.6-0.05,3.05-0.44,4.41-1.07c0.48-0.24,0.97-0.63,1.4-1.21
		c0.34-0.44,0.63-0.97,0.82-1.6c0.44-1.5,0.63-3.1,0.58-4.89c-0.1-3.29-0.05-7.55,0.15-12.68c0-0.15,0.05-0.34,0.15-0.44
		c0.82-1.21,1.26-1.02,1.31,0.53c0.29,6.25,0.39,10.02,0.24,11.38c-0.1,1.07,0.24,1.55,1.11,1.5c0.44-0.05,0.68-0.05,0.68-0.05
		c1.31,0,2.66,0,3.97-0.05c2.18-0.05,3.53-0.15,3.97-0.29c1.07-0.29,1.94-0.87,2.61-1.74c0.48-0.68,0.82-1.6,0.92-2.81
		C428.69,526.01,428.79,523.44,428.69,520.83z M447.53,519.95c-1.02,2.08-1.4,4.26-1.21,6.49c0.1,1.36,0.29,2.42,0.53,3.24
		c0.34,1.21,1.02,2.13,1.98,2.76c1.94,1.31,3.97,1.26,6.1-0.15c0.68-0.19,1.11-0.63,1.31-1.36c1.4-3.53,1.45-7.07,0.1-10.65
		c-0.44-1.45-1.5-2.32-3.24-2.66C450.48,517.15,448.64,517.92,447.53,519.95z"/>
	<path class="st140" d="M429.52,515.36c-0.63,0.82-0.82,1.79-0.63,2.95c0.15,0.73,0.05,1.55-0.19,2.52
		c-0.19-1.65-0.15-3.29,0.1-4.94c0.05-0.19,0.1-0.34,0.19-0.44C429.13,515.36,429.27,515.31,429.52,515.36z"/>
	<path class="st140" d="M309.79,533.46c0-0.1-0.1-0.19-0.19-0.19c-0.05,0-0.05,0-0.1,0.05c-1.31,0.87-2.71,1.4-4.21,1.6
		c-1.6,0.19-3,0-4.36-0.58c-1.94-0.87-3.2-2.52-3.68-4.79c-0.29-1.31-0.39-2.71-0.39-4.26c0.05-1.94,0.19-3.34,0.44-4.26
		c0.39-1.45,1.11-2.66,2.23-3.63c0.97-0.82,2.23-1.36,3.78-1.55c3.73-0.44,6.34,0.97,7.75,4.31c0.48,1.11,0.73,2.57,0.77,4.36
		c0.05,2.18,0,4.36-0.05,6.58c-0.1,3.49-0.24,5.62-0.44,6.34c-0.53,2.28-1.89,4.12-3.97,5.42c-1.07,0.68-2.37,1.02-3.87,0.97
		c-1.21,0-1.98-0.05-2.37-0.15c-0.87-0.15-1.55-0.63-2.08-1.36c-0.63-0.87-0.48-1.11,0.53-0.68c1.31,0.53,2.66,0.77,4.12,0.68
		c2.32-0.15,3.97-1.21,5.03-3.24C309.6,537.19,309.99,535.35,309.79,533.46z M301.08,532.2c2.13,1.4,4.12,1.55,5.86,0.48
		c1.26-0.73,2.08-1.98,2.57-3.68c0.53-1.98,0.58-4.16,0.19-6.54c-0.24-1.5-0.82-2.71-1.69-3.63c-0.87-0.87-2.03-1.4-3.44-1.5
		c-1.5-0.1-2.76,0.34-3.78,1.4c-0.73,0.77-1.31,1.89-1.65,3.39c-0.58,2.52-0.48,5.03,0.29,7.6
		C299.77,530.9,300.3,531.72,301.08,532.2z"/>
	<path class="st143" d="M849.01,515.31c-0.05-0.1-0.15-0.19-0.29-0.15l-3.34,1.02c-0.15,0.05-0.24,0.19-0.24,0.39
		c0,3.24,0,6.49,0,9.73c0,1.31-0.19,2.37-0.63,3.24c-0.39,0.77-0.97,1.31-1.74,1.65c-0.48,0.19-1.26,0.29-2.28,0.34
		c-2.37,0.05-4.94,0-7.7-0.05c0,0,0,0-0.05,0c-0.29,0-0.48-0.24-0.48-0.53c0.15-1.98,0.05-3.87-0.19-5.66
		c-0.34-2.28-0.87-4.07-1.55-5.37c-1.11-2.08-2.86-3.49-5.33-4.26c-1.5-0.63-3.15-0.82-4.74-0.68l-0.68,0.05
		c-2.71,0.53-5.23,1.84-7.6,3.87l-0.05,0.05c-0.24,0.24-0.24,0.63,0,0.82l2.23,2.03l0,0c0.1,0.1,0.24,0.05,0.34-0.05
		c1.16-1.36,2.61-2.28,4.31-2.86c1.26-0.24,2.57-0.29,3.82-0.15h0.05c2.23,0.39,3.68,1.55,4.31,3.44c0.92,2.66,1.26,5.66,1.07,9
		c0,0.24-0.19,0.44-0.44,0.44c-7.79,0.05-15.35,0-22.75-0.1c-0.77,0-1.36-0.24-1.74-0.68c-0.29-0.34-0.44-0.87-0.44-1.65
		c-0.1-7.36-0.19-14.86-0.19-22.41v-0.05c-0.05-0.1-0.15-0.19-0.24-0.15l-3.1,0.92c-0.24,0.05-0.39,0.29-0.39,0.58
		c-0.05,7.36-0.05,14.57,0.1,21.64c0,1.16,0.24,2.08,0.68,2.76c0.58,0.92,1.36,1.6,2.32,2.03c0.77,0.34,2.13,0.53,4.12,0.58
		c11.13,0.15,22.22,0.15,33.36,0c2.32-0.05,3.97-0.29,5.03-0.73c1.79-0.77,3.05-2.03,3.82-3.78c0.48-1.11,0.73-3.05,0.73-5.71
		c0-3.1,0-6.25,0-9.44C849.01,515.36,849.01,515.36,849.01,515.31z"/>
	<path class="st140" d="M381.1,507.75c0-0.58,0-0.92-0.05-0.97c-0.15-0.29-1.16-0.29-1.94,0.05c-0.19,0.1-0.34,0.29-0.34,0.48
		l0.05,5.37c0,6.97,0,13.89-0.1,20.87c0,0.53,0.05,0.87,0.15,1.07c0.19,0.34,1.16,0.48,1.69,0.48c0.29,0,0.53-0.24,0.53-0.53v-22.37
		C381.06,510.71,381.1,509.21,381.1,507.75z M380.91,518.89L380.91,518.89c0.05,0.05,0.05,0.05,0.05,0.05
		C380.91,518.94,380.91,518.89,380.91,518.89z M380.96,519.04v-0.05C380.96,519.04,380.96,519.04,380.96,519.04z"/>
	<circle class="st143" cx="663.88" cy="532.64" r="2.08"/>
	<path class="st143" d="M852.01,543.82c-0.58,0-0.73-0.24-0.34-0.73c0.29-0.39,0.77-0.68,1.45-0.82c0.15-0.05,0.24-0.15,0.24-0.29
		c-0.1-2.23,0.92-3.29,3.15-3.2c0.92,0.05,1.26,0.44,1.07,1.16c-0.05,0.15-0.19,0.19-0.34,0.15c-1.69-0.44-2.57,0.19-2.52,1.89
		c0,0.15,0.1,0.29,0.24,0.34c0.68,0.24,1.4,0.29,2.18,0.24c0.73-0.1,1.11,0.1,1.16,0.58c0.05,0.39-0.24,0.73-0.58,0.77
		c-0.05,0-0.05,0-0.1,0L852.01,543.82z"/>
	<circle class="st141" cx="554.9" cy="541.55" r="2.08"/>
	<circle class="st141" cx="560.86" cy="541.5" r="2.08"/>
	<circle class="st144" cx="694.28" cy="541.6" r="2.08"/>
	<circle class="st144" cx="730.69" cy="509.11" r="2.08"/>
	<circle class="st144" cx="688.14" cy="541.6" r="2.08"/>
	<circle class="st140" cx="270.09" cy="549.49" r="1.16"/>
	<circle class="st140" cx="274.89" cy="549.49" r="1.16"/>
	<circle class="st141" cx="537.23" cy="507.66" r="1.98"/>
	<circle class="st141" cx="531.09" cy="507.66" r="1.98"/>
	<circle class="st140" cx="432.37" cy="542.52" r="1.11"/>
	<circle class="st140" cx="427.63" cy="542.52" r="1.11"/>
	<circle class="st140" cx="404.15" cy="521.75" r="1.11"/>
</g>
</svg>
