<?xml version="1.0" encoding="utf-8"?>
<!-- Generator: Adobe Illustrator 27.6.1, SVG Export Plug-In . SVG Version: 6.00 Build 0)  -->
<svg version="1.1" id="Layer_1" xmlns="http://www.w3.org/2000/svg" xmlns:xlink="http://www.w3.org/1999/xlink" x="0px" y="0px"
	 viewBox="0 0 1000 1000" style="enable-background:new 0 0 1000 1000;" xml:space="preserve">
<style type="text/css">
	.st0{fill:#EEF2F8;}
	.st1{fill:#49A17B;}
	.st2{fill:#7631CD;}
	.st3{clip-path:url(#SVGID_00000183237686215215607390000004590761079037754000_);}
	.st4{fill:#404041;}
	.st5{clip-path:url(#SVGID_00000145057808139551978140000013974200048718671292_);}
	.st6{clip-path:url(#SVGID_00000017479734903375550320000015683928709463230115_);}
	.st7{fill:#7163EB;}
	.st8{fill:url(#SVGID_00000114069086202940128800000007152673834555282071_);}
	.st9{fill:url(#SVGID_00000033351037930524166840000000465554427610916774_);}
	.st10{fill:url(#SVGID_00000134939439081720716100000014181673844447622542_);}
	.st11{fill:url(#SVGID_00000158000134108213668260000011772215966715241871_);}
	.st12{fill:url(#SVGID_00000036232023415836891520000016932978428149546423_);}
	.st13{fill:url(#SVGID_00000120521394429551676240000005440980778941209733_);}
	.st14{fill:url(#SVGID_00000054945852720473449470000010505112449687247753_);}
	.st15{fill:url(#SVGID_00000075140558418584905930000006316519418228070041_);}
	.st16{fill:url(#SVGID_00000023264277092252010940000005237060167601403821_);}
	.st17{fill:url(#SVGID_00000005269043629830753260000010766051818795097274_);}
	.st18{fill:url(#SVGID_00000076594516284239086450000011607432518883297457_);}
	.st19{fill:url(#SVGID_00000121973388170294936790000014002874078372460442_);}
	.st20{fill:url(#SVGID_00000046303031920454332240000006128876134393050766_);}
	.st21{fill:url(#SVGID_00000079482643364192546280000001342666019639403915_);}
	.st22{fill:url(#SVGID_00000016046095208985814980000012087017493156760979_);}
	.st23{fill:url(#SVGID_00000171688217330967358760000002678405700441670069_);}
	.st24{fill:url(#SVGID_00000175312416211050968250000007909951846834741633_);}
	.st25{fill:url(#SVGID_00000067941266940102584110000003581013615147648445_);}
	.st26{fill:url(#SVGID_00000016035690102801834540000007475078792568928189_);}
	.st27{fill:url(#SVGID_00000083059611461847283950000006542673917814202765_);}
	.st28{fill:url(#SVGID_00000083051732455724694360000015849919551303954562_);}
	.st29{fill:url(#SVGID_00000057862828232505910420000008222584955648145082_);}
	.st30{fill:url(#SVGID_00000079470173454040640690000004283676581264157615_);}
	.st31{fill:url(#SVGID_00000006691619160199087850000001197979104491767433_);}
	.st32{fill:url(#SVGID_00000077289543067658326470000014044970386113948812_);}
	.st33{fill:url(#SVGID_00000128480574138032142640000014403208013478471577_);}
	.st34{fill:url(#SVGID_00000161589333030498034250000000549314816963748748_);}
	.st35{fill:url(#SVGID_00000011719726469098787260000003256616743318243991_);}
	.st36{fill:url(#SVGID_00000074419153596260590080000013097739766963853954_);}
	.st37{fill:url(#SVGID_00000165938439679555151960000001895024726052668051_);}
	.st38{fill:url(#SVGID_00000100354932376182319970000001891327390847666324_);}
	.st39{fill:url(#SVGID_00000067929294369597418840000015067795694101630385_);}
	.st40{fill:#3F4144;}
	.st41{fill:#2E3B89;}
	.st42{clip-path:url(#SVGID_00000002379374082644550910000008224447030368591778_);}
	.st43{clip-path:url(#SVGID_00000053520838520575784020000006434419466095918720_);}
	.st44{clip-path:url(#SVGID_00000047057127008980871250000015550863627377536679_);}
	.st45{fill:#F3B840;}
	.st46{fill:#E04430;}
	.st47{fill:#CA5C6C;}
	.st48{fill:#DD9033;}
	.st49{fill:#CD412D;}
	.st50{fill:#D47935;}
	.st51{fill:#D5709F;}
	.st52{fill:#E9BD8D;}
	.st53{fill:#E19F4B;}
	.st54{fill:#EABF4B;}
	.st55{fill:#CA582D;}
	.st56{fill:#DA8F38;}
	.st57{fill:#C04624;}
	.st58{fill:#C85E26;}
	.st59{fill:#B1341B;}
	.st60{fill:#B24C1F;}
	.st61{fill:#9E2B17;}
	.st62{opacity:0.52;fill:#5EC9E8;enable-background:new    ;}
	.st63{opacity:0.49;fill:#8462DA;enable-background:new    ;}
	.st64{opacity:0.52;fill:#2D63E5;enable-background:new    ;}
	.st65{fill-rule:evenodd;clip-rule:evenodd;fill:#439579;}
	.st66{fill:#3273C2;}
	.st67{fill:#575756;}
	.st68{fill:#1D2C66;}
	.st69{fill:#BCC0DA;}
	.st70{fill:#464B6F;}
	.st71{display:none;fill:#FFFFFF;}
	.st72{fill:#303030;}
	.st73{fill:#B73533;}
	.st74{fill:#04B15C;}
	.st75{fill:url(#SVGID_00000111156926367701044220000018145938933784903556_);}
	.st76{fill:url(#SVGID_00000109752317520996924360000005345583814019718791_);}
	.st77{fill:url(#SVGID_00000090998948736483514270000010074145154592792244_);}
	.st78{fill:url(#SVGID_00000071527221010860514120000017353945589696565124_);}
	.st79{fill:#D33B30;}
	.st80{fill:url(#SVGID_00000160890582337221291890000007510658608725840518_);}
	.st81{fill:url(#SVGID_00000021840677135609683920000003236807351060549761_);}
	.st82{fill:url(#SVGID_00000003794003220917417860000010532758373945676217_);}
	.st83{fill:url(#SVGID_00000134250343037185995540000000100450430274021520_);}
	.st84{fill-rule:evenodd;clip-rule:evenodd;fill:#469BC7;}
	.st85{fill:#222943;}
	.st86{fill-rule:evenodd;clip-rule:evenodd;fill:#1E4B91;}
	.st87{fill-rule:evenodd;clip-rule:evenodd;fill:#F0A140;}
	.st88{fill:#72D24C;}
	.st89{fill-rule:evenodd;clip-rule:evenodd;}
	.st90{display:none;fill:#FBFAFA;}
	.st91{fill:#242323;}
	.st92{fill:#BA3630;}
	.st93{opacity:0.35;fill:#53A0B1;enable-background:new    ;}
	.st94{fill:#20465E;}
	.st95{fill:url(#SVGID_00000093155367190697104500000013326129070847940486_);}
	.st96{fill:#367A8D;}
	.st97{fill:url(#SVGID_00000060007868311976100310000014900900237180287882_);}
	.st98{fill:url(#SVGID_00000142153204818969192280000001393751974805808573_);}
	.st99{opacity:0.88;fill:url(#SVGID_00000060010301747945886670000002856995806505132178_);enable-background:new    ;}
	.st100{fill:url(#SVGID_00000154402406762031574290000018281577107307618739_);}
	.st101{fill:#143661;}
	.st102{fill:#56BC8E;}
	.st103{fill:#2B2B37;}
	.st104{fill:#334C71;}
	.st105{fill:#3777E6;}
	.st106{fill:#A8EDE6;}
	.st107{fill:#EBC18E;}
	.st108{fill:#2A2F44;}
	.st109{fill:#1B4625;}
	.st110{fill:#98C355;}
	.st111{fill:#60B258;}
	.st112{fill:#41914D;}
	.st113{fill:#2B663D;}
	.st114{fill:#CCDA70;}
	.st115{fill:#34516A;}
	.st116{fill:url(#Path_164488_00000114069172262885561550000006843575679459991197_);}
	.st117{fill:#FFFFFF;}
	.st118{fill:#58595B;}
	.st119{fill:#55AC9B;}
	.st120{fill:#464442;}
	.st121{fill:#B7A891;}
	.st122{fill:#265674;}
	.st123{fill:#759ECF;}
	.st124{fill:#C9CACB;}
	.st125{fill:#F2F2F2;}
	.st126{fill:#2B3777;}
	.st127{fill:#27599E;}
	.st128{fill:#25589C;}
	.st129{fill:#2B63A5;}
	.st130{fill-rule:evenodd;clip-rule:evenodd;fill:#B9B9B9;}
	.st131{fill:#B9B9B9;}
	.st132{fill:#7185B5;}
	.st133{fill:#1C4882;}
	.st134{fill:#0F2C5A;}
	.st135{fill:#091C46;}
	.st136{fill:#54565A;}
	.st137{fill:#306541;}
	.st138{fill-rule:evenodd;clip-rule:evenodd;fill:#CAAD5D;}
	.st139{fill-rule:evenodd;clip-rule:evenodd;fill:#0D0D0D;}
	.st140{fill:#181818;stroke:#181818;stroke-width:0.3631;stroke-miterlimit:10;}
	.st141{fill:#305E3C;}
	.st142{fill:#181818;stroke:#181818;stroke-width:0.3631;stroke-miterlimit:9.9999;}
	.st143{fill:#181818;}
	.st144{fill:#141414;}
	.st145{fill:#1F4169;}
	.st146{fill:#49A2D9;}
	.st147{fill:#59585A;}
	.st148{fill:#030F97;}
	.st149{fill:#56A9DC;}
	.st150{fill:#4AA3DB;}
	.st151{fill:#545352;}
	.st152{fill:#412C6F;}
	.st153{fill:#BF2F7C;}
	.st154{fill:#215280;}
	.st155{fill:#7D7D7D;}
	.st156{fill:#456790;}
	.st157{fill:url(#C_00000052074618632463572520000010206464760867452804_);}
	.st158{fill:#C6C7C8;}
	.st159{fill:url(#SVGID_00000029043327198606991210000013345277767256321189_);}
	.st160{fill:#285E96;}
	.st161{fill:#61993F;}
	.st162{fill:#23568C;}
	.st163{fill:#4FA4DA;}
	.st164{fill:#6F80B0;}
	.st165{fill:#265896;}
	.st166{fill:#3B81B6;}
	.st167{fill:#275A6B;}
	.st168{fill:#595A5C;}
	.st169{fill:#D7393A;}
	.st170{fill:#8AC9D5;}
	.st171{fill:#D63939;}
	.st172{fill:#D63838;}
	.st173{fill:#3172B5;}
	.st174{fill:#3475B7;}
	.st175{fill:#3374B7;}
	.st176{fill:#7B7C7F;}
	.st177{fill:#7A7B7E;}
	.st178{fill:#3373B6;}
	.st179{fill:#7B7B7E;}
	.st180{fill:#7C7C7F;}
	.st181{fill:#7E7F81;}
	.st182{fill:#797A7D;}
	.st183{fill:#7D7D80;}
	.st184{fill:#7C7D80;}
	.st185{fill:#7C7B7E;}
	.st186{fill:#808184;}
	.st187{fill:#214167;}
	.st188{fill-rule:evenodd;clip-rule:evenodd;fill:#C8AC47;}
	.st189{fill:none;stroke:#C8AC47;stroke-width:9.5261;}
	.st190{fill:none;stroke:#E6BA5D;stroke-width:9.5261;stroke-miterlimit:10;}
	.st191{fill-rule:evenodd;clip-rule:evenodd;fill:#304567;}
	.st192{fill:#CFCECC;}
	.st193{clip-path:url(#SVGID_00000026843920279626733850000015440968856910231436_);}
	.st194{fill:#265B65;}
	.st195{fill:#767A52;}
	.st196{fill:#808082;}
	.st197{fill-rule:evenodd;clip-rule:evenodd;fill:url(#SVGID_00000145754938361952568730000009726806450603051451_);}
	.st198{fill-rule:evenodd;clip-rule:evenodd;fill:url(#SVGID_00000074428301302420077460000009380861421984069537_);}
	.st199{fill:#3A5CA5;}
	.st200{fill:#2F3A89;}
	.st201{fill:#6D6E71;}
	.st202{fill:#41918E;}
	.st203{fill:#445DA5;}
	.st204{clip-path:url(#SVGID_00000147907520310075367950000011233678426219094916_);}
	.st205{fill:#4A6EAF;}
	.st206{fill:#381D13;}
	.st207{clip-path:url(#SVGID_00000005968209487822778600000015704562969540420533_);}
	.st208{clip-path:url(#SVGID_00000073687986736335847220000015308543558384563129_);}
	.st209{clip-path:url(#SVGID_00000132086514297884981620000012506333765542319252_);}
	.st210{clip-path:url(#SVGID_00000044900110724060468840000013956112247559247541_);}
	.st211{clip-path:url(#SVGID_00000028306698082149207870000011353897778417434282_);}
	.st212{clip-path:url(#SVGID_00000134225381811486790950000004883671487784562056_);}
	.st213{clip-path:url(#SVGID_00000101072783045234515770000007351615309706242210_);}
	.st214{clip-path:url(#SVGID_00000077326482981316522180000012343586651404865675_);}
	.st215{clip-path:url(#SVGID_00000111165086871557184720000009753765084818112412_);}
	.st216{clip-path:url(#SVGID_00000143615525631753946070000017729443596410439333_);}
	.st217{clip-path:url(#SVGID_00000079482290846801587030000001829752547991356810_);}
	.st218{fill:#A2A8AC;}
	.st219{fill:#41834F;}
	.st220{fill:#265BB2;}
	.st221{fill:#293B90;}
	.st222{fill:#C99378;}
	.st223{fill:none;}
	.st224{enable-background:new    ;}
	.st225{fill:#203D35;}
	.st226{fill:#817771;}
	.st227{fill:#265C80;}
	.st228{fill:#2C2926;}
	.st229{fill:#59BCF8;}
	.st230{fill-rule:evenodd;clip-rule:evenodd;fill:#0101C2;}
	.st231{fill-rule:evenodd;clip-rule:evenodd;fill:#0202C6;}
	.st232{fill:#3A42F4;}
	.st233{fill-rule:evenodd;clip-rule:evenodd;fill:#050386;}
	.st234{fill:#3038F4;}
	.st235{clip-path:url(#SVGID_00000068663846616046332810000016732482383881459859_);}
	.st236{fill:#ED7D30;}
	.st237{fill:#479EE6;}
	.st238{fill:url(#Path_6_00000008140833756812729660000013679712285518658961_);}
	.st239{fill:#CC2C79;}
	.st240{fill:#1A1818;}
	.st241{fill-rule:evenodd;clip-rule:evenodd;fill:#FFFFFF;}
	.st242{fill-rule:evenodd;clip-rule:evenodd;fill:#469B88;}
	.st243{fill-rule:evenodd;clip-rule:evenodd;fill:#2C2E6A;}
	.st244{fill:#469B88;}
	.st245{fill:#1E1C44;}
	.st246{fill:#DA6D2A;}
	.st247{clip-path:url(#SVGID_00000090256618850777517880000017700337896312286625_);}
	.st248{fill:#273669;}
	.st249{fill:#567DF6;}
	.st250{fill:#70D3FA;}
	.st251{fill:#88FAC1;}
	.st252{fill:#070E51;}
	.st253{opacity:0.5;}
	.st254{fill:url(#SVGID_00000168077222031023224190000000940315317622130338_);}
	.st255{fill:url(#SVGID_00000151522901437063793260000013204803822386841277_);}
	.st256{fill:url(#SVGID_00000016049359872068509500000010237897563111999410_);}
	.st257{fill:#05039B;}
	.st258{fill:#406DAF;}
	.st259{fill:#808086;}
	.st260{fill:#84C6C9;}
	.st261{fill:#86398D;}
	.st262{fill:#8E599C;}
	.st263{fill:#E7963E;}
	.st264{fill:#70C3ED;}
	.st265{fill:#4B2A50;}
	.st266{fill:#333333;}
	.st267{fill:#75FAAA;}
	.st268{fill:url(#SVGID_00000098942687731085950780000001086062870663527822_);}
	.st269{fill:#160141;}
	.st270{fill:url(#SVGID_00000155842161704443133120000001007565763328379801_);}
	.st271{fill:url(#SVGID_00000073684218875815442930000012766105167078118287_);}
	.st272{fill:url(#SVGID_00000007410437664156698570000000055674116452782501_);}
	.st273{fill-rule:evenodd;clip-rule:evenodd;fill:url(#SVGID_00000006676557298372513460000003598205005883617213_);}
	.st274{fill-rule:evenodd;clip-rule:evenodd;fill:url(#SVGID_00000102523312638456877310000017313583381612823682_);}
	.st275{fill-rule:evenodd;clip-rule:evenodd;fill:url(#SVGID_00000083783960804536557890000016404199591054999220_);}
	.st276{fill-rule:evenodd;clip-rule:evenodd;fill:url(#SVGID_00000103983501147209688510000006054694426865045126_);}
	.st277{fill:#414042;}
</style>
<path class="st227" d="M310.23,435.13l0.3,110.01c-2.11-3.93-4.91-7.44-8.26-10.37c-8.49-6.73-19.14-10.14-29.96-9.59
	c-10.86-0.48-21.52,2.98-30.03,9.74c-5.24,4.55-9.18,10.41-11.44,16.97c-2.12-6.53-5.94-12.37-11.07-16.93
	c-8.48-6.72-19.11-10.13-29.92-9.59c-10.86-0.48-21.52,2.98-30.03,9.74c-3.58,3.11-6.54,6.87-8.74,11.07l-0.3-110.67L310.23,435.13z
	 M144,430l0.37,140.96h6.71c0-2.1-0.26-21.32,12.84-32.46c7.33-5.77,16.5-8.7,25.82-8.26c9.31-0.56,18.5,2.33,25.82,8.12
	c10.88,9.33,12.25,27.26,12.4,32.43h5.87c0.22-5.2,1.84-23.13,12.8-32.46c7.33-5.77,16.5-8.71,25.82-8.26
	c9.31-0.56,18.5,2.33,25.82,8.12c13.43,11.51,12.4,32.21,12.4,32.43h6.71l-0.41-141L144,430z M272.05,535.51
	c-7.8-0.34-15.45,2.19-21.51,7.12c-11.84,10.26-10.62,27.96-10.62,28.11h5.72c0-0.66-0.77-16.42,9.08-24.9
	c4.9-3.93,11.07-5.93,17.34-5.64c6.32-0.3,12.54,1.67,17.52,5.57c10.26,8.63,9.7,24.68,9.7,24.83h5.76
	c0-1.81,0.22-18.45-11.33-28.07C287.58,537.63,279.88,535.13,272.05,535.51 M271.75,545.32c-5.2-0.23-10.29,1.49-14.28,4.83
	c-7.93,7.01-7.12,19.22-6.97,20.55h5.57c0,0-1.03-11.66,5.53-17.45c2.85-2.37,6.48-3.58,10.18-3.39c3.7-0.18,7.35,1.01,10.22,3.36
	c6.2,5.39,5.87,16.16,5.87,17.41h5.61c0-1.36,0.77-13.58-7.38-20.55c-4.02-3.3-9.12-5-14.31-4.76 M189.23,535.69
	c-7.83-0.31-15.5,2.22-21.62,7.12c-11.88,10.11-11.07,27.41-11.07,28.15h5.76c0-1.62,0-16.64,9.59-24.86
	c4.94-3.94,11.14-5.96,17.45-5.68c6.27-0.33,12.45,1.64,17.38,5.53c9.92,8.45,9.26,24.2,9.26,24.86h5.5
	c0-0.7,1.03-17.93-10.77-28.07c-6.1-4.86-13.75-7.35-21.54-7.01"/>
<path class="st227" d="M189.56,545.51c-5.2-0.2-10.29,1.53-14.28,4.87c-8.26,7.38-7.16,20.03-7.12,20.55h5.57
	c0-0.44-0.77-11.77,5.64-17.45c2.85-2.36,6.49-3.55,10.18-3.36c3.69-0.23,7.34,0.95,10.18,3.32c6.2,5.39,5.76,16.2,5.64,17.41h5.61
	c0-0.52,1.07-13.32-7.12-20.51c-4.01-3.32-9.11-5.03-14.31-4.8 M402.02,569.89c1.84-0.5,3.13-2.15,3.17-4.06v-45.3
	c0.01-0.7,0.1-1.39,0.26-2.07l-1.11,2.07l-29.18,50.69l-29.51-49.1l-0.89-2.43v2.43v43.86c0,1.99,1.33,3.25,3.39,4.02H334.8
	c1.8-0.56,3.05-2.18,3.14-4.06v-53.12c0-1.73-1.96-3.32-3.91-4.06h21.4l24.42,41.28l23.39-41.39h20.4
	c-1.87,0.45-3.19,2.13-3.17,4.06v53.12c0.05,1.9,1.34,3.55,3.17,4.06L402.02,569.89z M486.17,569.71h-52.27
	c2.03-0.92,3.69-1.92,3.69-4.06v-53.12c0-2.1-1.7-3.36-3.69-4.06h48.88l0.41,7.93c-2.57-2.38-6.03-3.56-9.52-3.25H453v20.7h18.45
	c1.75-0.14,3.35-1.06,4.35-2.51v9.37c-0.94-1.52-2.57-2.48-4.35-2.58H453v26.49c2.43,0.26,9.85,0.52,15.83,0.41
	c10.55-0.3,15.42,0,19.88-5.76L486.17,569.71z M523.98,569.6h-31.25c1.8-0.55,3.07-2.17,3.17-4.06v-53.12
	c-0.03-1.91-1.33-3.56-3.17-4.06h32.35c39.99,0,47.96,20.88,47.96,29.51c0,15.68-16.23,31.58-49.07,31.65 M522.39,512.78
	c-2.95,0-9.37,0-11.07,0.22v51.87h9.74c27.48,0,35.08-13.76,35.05-26.89c0-10.81-8.56-25.2-33.72-25.16 M660.11,546.58v13.32
	c0.04,1.47,0.77,2.83,1.96,3.69c-11.95,4.23-24.51,6.48-37.19,6.68c-24.2,0-45.63-12.06-45.71-31.25c0-15.75,15.86-31.84,47-31.91
	c9.74,0.08,19.4,1.71,28.63,4.83l0.89,14.31c-6.27-12.43-21.69-14.31-27.41-14.31c-20.66,0-32.54,11.33-32.5,25.82
	c0,12.32,8.34,27.52,33.5,27.45c5.31,0.1,10.57-0.92,15.46-2.99v-15.6c-0.05-1.93-1.35-3.6-3.21-4.13h21.77
	c-1.81,0.58-3.07,2.23-3.14,4.13 M734.55,511.93l-0.3,36.89c0,15.35-12.25,21.32-28.78,21.36c-14.24,0-32.35-4.61-32.39-20.55
	v-37.48c0-2.07-1.96-3.32-3.87-4.02h23.32c-1.96,0.74-3.69,1.99-3.69,4.06v37.74c0,6.31,2.95,15.2,18.78,15.16
	c14.46,0,19.66-7.05,19.63-15.97l-0.37-37.19c-0.07-1.93-1.41-3.58-3.28-4.06h14.13C735.89,508.38,734.6,510.03,734.55,511.93
	 M797.56,568.93H746.4c1.91-0.47,3.29-2.13,3.39-4.09v-53.12c-0.07-1.98-1.49-3.64-3.43-4.02h22.13c-1.86,0.46-3.16,2.14-3.14,4.06
	v52.05l13.5,0.44c13.5-0.3,17.74-0.52,21.51-5.76L797.56,568.93z M845.45,512.45c-3.69,0-23.46-0.3-23.46-0.3v20.7h18.96
	c1.82-0.08,3.49-1.03,4.5-2.55v9.55c-0.96-1.57-2.66-2.54-4.5-2.58h-18.89v27.56c0,2.14,1.22,3.14,3.69,4.02h-22.61
	c2.29-0.92,3.69-1.92,3.69-4.06v-53.12c0-2.1-1.48-3.36-3.69-4.06h51.65l0.63,8.71c-1.48-2.14-4.02-3.69-9.74-3.69 M429.69,483.86
	c0.31-6.86,3.7-13.22,9.22-17.3c5.19-3.53,11.36-5.31,17.63-5.09v22.32L429.69,483.86z M612.08,483.42h-34.05
	c-6.18-1.07-10.78-6.28-11.07-12.54c0.34-4.63,3.77-8.45,8.34-9.3c7.69-0.63,15.41-0.86,23.13-0.7h13.39l2.4-9.59
	c-4.21,3.25-1.88,2.66-15.49,2.91h-15.53c-4.74-0.03-9.47,0.25-14.17,0.85c-5.13,0.89-15.94,5.02-16.93,14.17
	c-0.24,5.77,2.69,11.22,7.64,14.2h-39.69l0,0v-50.95c0-1.99,1.33-2.91,3.69-3.69h-22.8c2.32,0.85,3.69,1.77,3.69,3.69v50.95h-34.16
	v-25.6c0-2.03,1.33-2.95,3.69-3.69h-11.07c-17.23,0-23.5,2.36-29.51,6.09c-7.96,5.29-13.09,13.91-13.94,23.43h-54.93
	c-3.2,0.28-6.42-0.13-9.44-1.22c-1.81-0.93-3.04-2.7-3.28-4.72v-18.96c0-2.03,1.33-2.95,3.69-3.69h-22.8
	c2.32,0.81,3.69,1.73,3.69,3.69v16.23c0.2,4.76,2.69,9.13,6.68,11.73c3.17,2.08,6.81,3.35,10.59,3.69c2.8,0.37,9.89,0.41,9.89,0.41
	l240.9-0.55l0,0h26.49l2.69-11.88c-3.69,4.87-8.08,4.87-21.69,5.13 M458.05,445.53c0,2.91-3.17,5.28-7.08,5.28
	c-3.91,0-7.12-2.32-7.12-5.24s3.17-5.24,7.08-5.24C454.85,440.33,458.05,442.65,458.05,445.53"/>
<path class="st227" d="M600.16,445.09c0,2.88-3.17,5.24-7.12,5.28c-3.95,0.04-7.08-2.36-7.12-5.24c-0.04-2.88,3.17-5.24,7.12-5.28
	C596.99,439.81,600.12,442.21,600.16,445.09 M768.13,489.8c3.91,0,7.08,2.36,7.12,5.24c0.04,2.88-3.17,5.24-7.08,5.28
	s-7.12-2.36-7.16-5.24C760.97,492.2,764.18,489.8,768.13,489.8 M750.82,489.8c3.95,0,7.12,2.36,7.12,5.24
	c0,2.88-3.14,5.24-7.08,5.28s-7.12-2.32-7.12-5.24C743.74,492.16,746.91,489.84,750.82,489.8 M839.14,482.9h-28.26v-12.91
	c0-11.33,9.74-12.95,14.06-12.95c4.32,0,14.17,1.51,14.2,12.65V482.9z M852.72,486.59v-14.76c0-13.91-14.42-20.18-27.78-20.14
	c-13.35,0.04-27.67,6.38-27.63,20.51v10.85h-30.99v-25.82c0-2.03,1.36-2.91,3.69-3.69h-22.8c2.36,0.85,3.69,1.73,3.69,3.69v25.82
	h-27.48c-2.76-5.68-5.98-11.12-9.63-16.27c-8.19-12.03-22.91-12.8-28-12.76h-6.38c-13.61,0-11.77,0.26-15.53-2.88l2.47,9.04h16.79
	c5.96-0.66,11.82,1.93,15.35,6.79c3.92,4.89,7.11,10.34,9.44,16.16h-49.58c-7.67-0.33-11.07-1.29-13.91-5.05l2.73,11.88h0.22h38.11
	h57.4c4.74-3.76,11.45-3.76,16.2,0h1c2.31-1.83,5.17-2.82,8.12-2.8c2.93-0.05,5.79,0.93,8.08,2.77h66.77H856
	c-1.73-0.77-2.95-1.7-3.28-3.06"/>
</svg>
