<svg xmlns="http://www.w3.org/2000/svg" xmlns:xlink="http://www.w3.org/1999/xlink" viewBox="0 0 500 500" width="500" height="500" preserveAspectRatio="xMidYMid meet" style="width: 100%; height: 100%; transform: translate3d(0px, 0px, 0px); content-visibility: visible;"><defs><clipPath id="__lottie_element_2"><rect width="500" height="500" x="0" y="0"></rect></clipPath></defs><g clip-path="url(#__lottie_element_2)"><g transform="matrix(0.8067600131034851,0,0,0.8067600131034851,204.05267333984375,233.86480712890625)" opacity="1" style="display: block;"><g opacity="1" transform="matrix(1,0,0,1,0,0)"><path fill="rgb(0,56,50)" fill-opacity="1" d=" M90.98690032958984,18.31920051574707 C90.98690032958984,18.31920051574707 103.28199768066406,18.31920051574707 103.28199768066406,18.31920051574707 C103.28199768066406,15.212499618530273 101.29900360107422,13.163399696350098 97.3324966430664,13.163399696350098 C93.49870300292969,13.163399696350098 91.25129699707031,15.146400451660156 90.98690032958984,18.31920051574707 C90.98690032958984,18.31920051574707 90.98690032958984,18.31920051574707 90.98690032958984,18.31920051574707z M97.5969009399414,40 C87.35140228271484,40 80.67530059814453,32.86119842529297 80.67530059814453,22.219100952148438 C80.67530059814453,11.709199905395508 87.4175033569336,4.834780216217041 97.3324966430664,4.834780216217041 C107.70999908447266,4.834780216217041 113.92400360107422,11.510899543762207 113.92400360107422,22.219100952148438 C113.92400360107422,23.541099548339844 113.85800170898438,24.92919921875 113.7249984741211,26.25119972229004 C113.7249984741211,26.25119972229004 91.0530014038086,26.25119972229004 91.0530014038086,26.25119972229004 C91.51570129394531,29.55620002746582 93.8292007446289,31.274799346923828 97.66300201416016,31.274799346923828 C100.0989990234375,31.274799346923828 101.63700103759766,30.377300262451172 102.3290023803711,29.254100799560547 C102.43599700927734,29.080699920654297 102.61799621582031,28.961299896240234 102.8219985961914,28.961299896240234 C102.8219985961914,28.961299896240234 112.69300079345703,28.961299896240234 112.69300079345703,28.961299896240234 C113.04399871826172,28.961299896240234 113.2969970703125,29.298500061035156 113.18699645996094,29.631900787353516 C111.125,35.86909866333008 106.08799743652344,40 97.5969009399414,40 C97.5969009399414,40 97.5969009399414,40 97.5969009399414,40z"></path></g><g opacity="1" transform="matrix(1,0,0,1,0,0)"><path fill="rgb(0,56,50)" fill-opacity="1" d=" M56.16429901123047,18.31920051574707 C56.16429901123047,18.31920051574707 68.45890045166016,18.31920051574707 68.45890045166016,18.31920051574707 C68.45890045166016,15.212499618530273 66.47589874267578,13.163399696350098 62.5098991394043,13.163399696350098 C58.67610168457031,13.163399696350098 56.4286994934082,15.146400451660156 56.16429901123047,18.31920051574707 C56.16429901123047,18.31920051574707 56.16429901123047,18.31920051574707 56.16429901123047,18.31920051574707z M62.77429962158203,40 C52.52880096435547,40 45.852699279785156,32.86119842529297 45.852699279785156,22.219100952148438 C45.852699279785156,11.709199905395508 52.59489822387695,4.834780216217041 62.5098991394043,4.834780216217041 C72.88760375976562,4.834780216217041 79.10099792480469,11.510899543762207 79.10099792480469,22.219100952148438 C79.10099792480469,23.541099548339844 79.03489685058594,24.92919921875 78.90270233154297,26.25119972229004 C78.90270233154297,26.25119972229004 56.23040008544922,26.25119972229004 56.23040008544922,26.25119972229004 C56.69309997558594,29.55620002746582 59.00659942626953,31.274799346923828 62.84040069580078,31.274799346923828 C65.2760009765625,31.274799346923828 66.81420135498047,30.377300262451172 67.50650024414062,29.254100799560547 C67.6134033203125,29.080699920654297 67.79560089111328,28.961299896240234 67.99929809570312,28.961299896240234 C67.99929809570312,28.961299896240234 77.87039947509766,28.961299896240234 77.87039947509766,28.961299896240234 C78.22149658203125,28.961299896240234 78.47450256347656,29.298500061035156 78.36430358886719,29.631900787353516 C76.30269622802734,35.86909866333008 71.26480102539062,40 62.77429962158203,40 C62.77429962158203,40 62.77429962158203,40 62.77429962158203,40z"></path></g><g opacity="1" transform="matrix(1,0,0,1,0,0)"><path fill="rgb(0,56,50)" fill-opacity="1" d=" M24.5674991607666,38.94279861450195 C24.27630043029785,38.94279861450195 24.040199279785156,38.70669937133789 24.040199279785156,38.41559982299805 C24.040199279785156,38.41559982299805 24.040199279785156,6.4199700355529785 24.040199279785156,6.4199700355529785 C24.040199279785156,6.128799915313721 24.27630043029785,5.892749786376953 24.5674991607666,5.892749786376953 C24.5674991607666,5.892749786376953 32.661598205566406,5.892749786376953 32.661598205566406,5.892749786376953 C32.95280075073242,5.892749786376953 33.18880081176758,6.128799915313721 33.18880081176758,6.4199700355529785 C33.18880081176758,6.4199700355529785 33.18880081176758,8.745169639587402 33.18880081176758,8.745169639587402 C33.18880081176758,9.433050155639648 33.138999938964844,10.119999885559082 33.03969955444336,10.800700187683105 C33.03969955444336,10.800700187683105 32.71289825439453,13.04069995880127 32.71289825439453,13.04069995880127 C32.71289825439453,13.04069995880127 34.376399993896484,13.04069995880127 34.376399993896484,13.04069995880127 C35.10530090332031,8.634099960327148 37.94029998779297,5.892749786376953 41.865699768066406,5.892749786376953 C41.865699768066406,5.892749786376953 47.26689910888672,5.892749786376953 47.26689910888672,5.892749786376953 C47.26689910888672,5.892749786376953 46.89789962768555,11.242199897766113 46.89789962768555,11.242199897766113 C46.7047004699707,14.042099952697754 44.37710189819336,16.214799880981445 41.57040023803711,16.214799880981445 C41.57040023803711,16.214799880981445 39.904300689697266,16.214799880981445 39.904300689697266,16.214799880981445 C36.334800720214844,16.214799880981445 34.6161994934082,17.80120086669922 34.6161994934082,21.238399505615234 C34.6161994934082,21.238399505615234 34.6161994934082,38.41559982299805 34.6161994934082,38.41559982299805 C34.6161994934082,38.70669937133789 34.38019943237305,38.94279861450195 34.0890007019043,38.94279861450195 C34.0890007019043,38.94279861450195 24.5674991607666,38.94279861450195 24.5674991607666,38.94279861450195 C24.5674991607666,38.94279861450195 24.5674991607666,38.94279861450195 24.5674991607666,38.94279861450195z"></path></g><g opacity="1" transform="matrix(1,0,0,1,0,0)"><path fill="rgb(0,56,50)" fill-opacity="1" d=" M9.121809959411621,38.942298889160156 C2.908400058746338,38.942298889160156 0,36.43050003051758 0,29.820499420166016 C0,29.820499420166016 0,0.5272129774093628 0,0.5272129774093628 C0,0.23604099452495575 0.23604099452495575,0 0.5272129774093628,0 C0.5272129774093628,0 10.048800468444824,0 10.048800468444824,0 C10.34000015258789,0 10.576000213623047,0.23604099452495575 10.576000213623047,0.5272129774093628 C10.576000213623047,0.5272129774093628 10.576000213623047,5.8922600746154785 10.576000213623047,5.8922600746154785 C10.576000213623047,5.8922600746154785 21.479400634765625,5.8922600746154785 21.479400634765625,5.8922600746154785 C21.770599365234375,5.8922600746154785 22.00659942626953,6.128300189971924 22.00659942626953,6.419479846954346 C22.00659942626953,6.419479846954346 22.00659942626953,14.619099617004395 22.00659942626953,14.619099617004395 C22.00659942626953,14.910200119018555 21.770599365234375,15.146300315856934 21.479400634765625,15.146300315856934 C21.479400634765625,15.146300315856934 10.576000213623047,15.146300315856934 10.576000213623047,15.146300315856934 C10.576000213623047,15.146300315856934 10.576000213623047,27.11039924621582 10.576000213623047,27.11039924621582 C10.576000213623047,28.82900047302246 11.237000465393066,29.68829917907715 13.153900146484375,29.68829917907715 C13.153900146484375,29.68829917907715 21.479400634765625,29.68829917907715 21.479400634765625,29.68829917907715 C21.770599365234375,29.68829917907715 22.00659942626953,29.924299240112305 22.00659942626953,30.215499877929688 C22.00659942626953,30.215499877929688 22.00659942626953,38.41510009765625 22.00659942626953,38.41510009765625 C22.00659942626953,38.706199645996094 21.770599365234375,38.942298889160156 21.479400634765625,38.942298889160156 C21.479400634765625,38.942298889160156 9.121809959411621,38.942298889160156 9.121809959411621,38.942298889160156 C9.121809959411621,38.942298889160156 9.121809959411621,38.942298889160156 9.121809959411621,38.942298889160156z"></path></g></g></g></svg>