<?xml version="1.0" encoding="utf-8"?>
<!-- Generator: Adobe Illustrator 27.6.1, SVG Export Plug-In . SVG Version: 6.00 Build 0)  -->
<svg version="1.1" id="Layer_1" xmlns="http://www.w3.org/2000/svg" xmlns:xlink="http://www.w3.org/1999/xlink" x="0px" y="0px"
	 viewBox="0 0 1000 1000" style="enable-background:new 0 0 1000 1000;" xml:space="preserve">
<style type="text/css">
	.st0{fill:#EEF2F8;}
	.st1{fill:#49A17B;}
	.st2{fill:#7631CD;}
	.st3{clip-path:url(#SVGID_00000052082952216213188370000017399616356144683943_);}
	.st4{fill:#404041;}
	.st5{clip-path:url(#SVGID_00000062893495841725047410000005647056938538365321_);}
	.st6{clip-path:url(#SVGID_00000044162732847250575700000015189815288174334094_);}
	.st7{fill:#7163EB;}
	.st8{fill:url(#SVGID_00000174581004549088119200000000769248462261141383_);}
	.st9{fill:url(#SVGID_00000169538360358242332570000002422025234893226396_);}
	.st10{fill:url(#SVGID_00000020364998024989868100000000781365499645108112_);}
	.st11{fill:url(#SVGID_00000181046259830688359720000006784541467837330325_);}
	.st12{fill:url(#SVGID_00000094620042908918262900000000836517596858592691_);}
	.st13{fill:url(#SVGID_00000052087117088092280470000018412568162446705827_);}
	.st14{fill:url(#SVGID_00000131330189011884604290000001970801980031478440_);}
	.st15{fill:url(#SVGID_00000037690568599755563960000007448795216511496320_);}
	.st16{fill:url(#SVGID_00000065765352009212842840000016251544395666569637_);}
	.st17{fill:url(#SVGID_00000147934069028275271990000001447145977292744623_);}
	.st18{fill:url(#SVGID_00000173879651023639893390000002430931842811594132_);}
	.st19{fill:url(#SVGID_00000182513494751107410380000018227685862857491125_);}
	.st20{fill:url(#SVGID_00000032650384954022100940000016303033528996797352_);}
	.st21{fill:url(#SVGID_00000050654766672512892120000002460469927209367940_);}
	.st22{fill:url(#SVGID_00000045591335602980747440000017572480979853843126_);}
	.st23{fill:url(#SVGID_00000092451180703943029060000014711838964621873025_);}
	.st24{fill:url(#SVGID_00000175286705630510734670000015659909416161472389_);}
	.st25{fill:url(#SVGID_00000129189024708853754310000010465080461356917948_);}
	.st26{fill:url(#SVGID_00000172428568738683357490000010829400056970966160_);}
	.st27{fill:url(#SVGID_00000088811383937752953280000002610807117517171864_);}
	.st28{fill:url(#SVGID_00000181049969273326873650000003174784704136206479_);}
	.st29{fill:url(#SVGID_00000043423211319614765810000013501320488802758297_);}
	.st30{fill:url(#SVGID_00000031189173913303964690000013778956566995115449_);}
	.st31{fill:url(#SVGID_00000085957056703284814210000015059607211928340118_);}
	.st32{fill:url(#SVGID_00000079443620665538297860000018066899928927582356_);}
	.st33{fill:url(#SVGID_00000143588219230402748990000016751870636642278301_);}
	.st34{fill:url(#SVGID_00000003793414576790995780000007871425205984020412_);}
	.st35{fill:url(#SVGID_00000011026663058878193860000002903329734136625555_);}
	.st36{fill:url(#SVGID_00000031166710314036579790000006668545681182296486_);}
	.st37{fill:url(#SVGID_00000127032661166374465460000014927145647398623642_);}
	.st38{fill:url(#SVGID_00000059995306898970749300000007415582900568861371_);}
	.st39{fill:url(#SVGID_00000142884363410654759380000010758637300853816721_);}
	.st40{fill:#3F4144;}
	.st41{fill:#2E3B89;}
	.st42{clip-path:url(#SVGID_00000182486285875346674340000012730013638702839201_);}
	.st43{clip-path:url(#SVGID_00000117657743683106101630000005688304470643367343_);}
	.st44{clip-path:url(#SVGID_00000101811392543863748910000015891612302815914930_);}
	.st45{fill:#F3B840;}
	.st46{fill:#E04430;}
	.st47{fill:#CA5C6C;}
	.st48{fill:#DD9033;}
	.st49{fill:#CD412D;}
	.st50{fill:#D47935;}
	.st51{fill:#D5709F;}
	.st52{fill:#E9BD8D;}
	.st53{fill:#E19F4B;}
	.st54{fill:#EABF4B;}
	.st55{fill:#CA582D;}
	.st56{fill:#DA8F38;}
	.st57{fill:#C04624;}
	.st58{fill:#C85E26;}
	.st59{fill:#B1341B;}
	.st60{fill:#B24C1F;}
	.st61{fill:#9E2B17;}
	.st62{opacity:0.52;fill:#5EC9E8;enable-background:new    ;}
	.st63{opacity:0.49;fill:#8462DA;enable-background:new    ;}
	.st64{opacity:0.52;fill:#2D63E5;enable-background:new    ;}
	.st65{fill-rule:evenodd;clip-rule:evenodd;fill:#439579;}
	.st66{fill:#3273C2;}
	.st67{fill:#575756;}
	.st68{fill:#1D2C66;}
	.st69{fill:#BCC0DA;}
	.st70{fill:#464B6F;}
	.st71{display:none;fill:#FFFFFF;}
	.st72{fill:#303030;}
	.st73{fill:#B73533;}
	.st74{fill:#04B15C;}
	.st75{fill:url(#SVGID_00000009591525662503017780000017771096071564516224_);}
	.st76{fill:url(#SVGID_00000176762852184411096770000009980357025655540882_);}
	.st77{fill:url(#SVGID_00000047778201418646290150000010063318590950852232_);}
	.st78{fill:url(#SVGID_00000072998059944240612860000002785559621428581544_);}
	.st79{fill:#D33B30;}
	.st80{fill:url(#SVGID_00000132047563733281255160000010467231884819644555_);}
	.st81{fill:url(#SVGID_00000123443404963504824340000006294514309827312008_);}
	.st82{fill:url(#SVGID_00000081605954365361077890000009943744208543383189_);}
	.st83{fill:url(#SVGID_00000103950940562272121720000005583637247177386169_);}
	.st84{fill-rule:evenodd;clip-rule:evenodd;fill:#469BC7;}
	.st85{fill:#222943;}
	.st86{fill-rule:evenodd;clip-rule:evenodd;fill:#1E4B91;}
	.st87{fill-rule:evenodd;clip-rule:evenodd;fill:#F0A140;}
	.st88{fill:#72D24C;}
	.st89{fill-rule:evenodd;clip-rule:evenodd;}
	.st90{display:none;fill:#FBFAFA;}
	.st91{fill:#242323;}
	.st92{fill:#BA3630;}
	.st93{opacity:0.35;fill:#53A0B1;enable-background:new    ;}
	.st94{fill:#20465E;}
	.st95{fill:url(#SVGID_00000127039241978215946110000008274158828353037440_);}
	.st96{fill:#367A8D;}
	.st97{fill:url(#SVGID_00000037678478086294881130000007195144767249334174_);}
	.st98{fill:url(#SVGID_00000072986784900322948830000014279750887824839860_);}
	.st99{opacity:0.88;fill:url(#SVGID_00000112631453694150581650000017536448845271596220_);enable-background:new    ;}
	.st100{fill:url(#SVGID_00000033364433849346157750000009013868614988445847_);}
	.st101{fill:#143661;}
	.st102{fill:#56BC8E;}
	.st103{fill:#2B2B37;}
	.st104{fill:#334C71;}
	.st105{fill:#3777E6;}
	.st106{fill:#A8EDE6;}
	.st107{fill:#EBC18E;}
	.st108{fill:#2A2F44;}
	.st109{fill:#1B4625;}
	.st110{fill:#98C355;}
	.st111{fill:#60B258;}
	.st112{fill:#41914D;}
	.st113{fill:#2B663D;}
	.st114{fill:#CCDA70;}
	.st115{fill:#34516A;}
	.st116{fill:url(#Path_164488_00000109729988464195737890000013293989446255006881_);}
	.st117{fill:#FFFFFF;}
	.st118{fill:#58595B;}
	.st119{fill:#55AC9B;}
	.st120{fill:#464442;}
	.st121{fill:#B7A891;}
	.st122{fill:#265674;}
	.st123{fill:#759ECF;}
	.st124{fill:#C9CACB;}
	.st125{fill:#F2F2F2;}
	.st126{fill:#2B3777;}
	.st127{fill:#27599E;}
	.st128{fill:#25589C;}
	.st129{fill:#2B63A5;}
	.st130{fill-rule:evenodd;clip-rule:evenodd;fill:#B9B9B9;}
	.st131{fill:#B9B9B9;}
	.st132{fill:#7185B5;}
	.st133{fill:#1C4882;}
	.st134{fill:#0F2C5A;}
	.st135{fill:#091C46;}
	.st136{fill:#54565A;}
	.st137{fill:#306541;}
	.st138{fill-rule:evenodd;clip-rule:evenodd;fill:#CAAD5D;}
	.st139{fill-rule:evenodd;clip-rule:evenodd;fill:#0D0D0D;}
	.st140{fill:#181818;stroke:#181818;stroke-width:0.3631;stroke-miterlimit:10;}
	.st141{fill:#305E3C;}
	.st142{fill:#181818;stroke:#181818;stroke-width:0.3631;stroke-miterlimit:9.9999;}
	.st143{fill:#181818;}
	.st144{fill:#141414;}
	.st145{fill:#1F4169;}
	.st146{fill:#49A2D9;}
	.st147{fill:#59585A;}
	.st148{fill:#030F97;}
	.st149{fill:#56A9DC;}
	.st150{fill:#4AA3DB;}
	.st151{fill:#545352;}
	.st152{fill:#412C6F;}
	.st153{fill:#BF2F7C;}
	.st154{fill:#215280;}
	.st155{fill:#7D7D7D;}
	.st156{fill:#456790;}
	.st157{fill:url(#C_00000031193805341943852460000006693081372949608589_);}
	.st158{fill:#C6C7C8;}
	.st159{fill:url(#SVGID_00000044141251656194507800000009654946235692035773_);}
	.st160{fill:#285E96;}
	.st161{fill:#61993F;}
	.st162{fill:#23568C;}
	.st163{fill:#4FA4DA;}
	.st164{fill:#6F80B0;}
	.st165{fill:#265896;}
	.st166{fill:#3B81B6;}
	.st167{fill:#275A6B;}
	.st168{fill:#595A5C;}
	.st169{fill:#D7393A;}
	.st170{fill:#8AC9D5;}
	.st171{fill:#D63939;}
	.st172{fill:#D63838;}
	.st173{fill:#3172B5;}
	.st174{fill:#3475B7;}
	.st175{fill:#3374B7;}
	.st176{fill:#7B7C7F;}
	.st177{fill:#7A7B7E;}
	.st178{fill:#3373B6;}
	.st179{fill:#7B7B7E;}
	.st180{fill:#7C7C7F;}
	.st181{fill:#7E7F81;}
	.st182{fill:#797A7D;}
	.st183{fill:#7D7D80;}
	.st184{fill:#7C7D80;}
	.st185{fill:#7C7B7E;}
	.st186{fill:#808184;}
	.st187{fill:#214167;}
	.st188{fill-rule:evenodd;clip-rule:evenodd;fill:#C8AC47;}
	.st189{fill:none;stroke:#C8AC47;stroke-width:9.5261;}
	.st190{fill:none;stroke:#E6BA5D;stroke-width:9.5261;stroke-miterlimit:10;}
	.st191{fill-rule:evenodd;clip-rule:evenodd;fill:#304567;}
	.st192{fill:#CFCECC;}
	.st193{clip-path:url(#SVGID_00000103959569850251034850000015920619315573914547_);}
	.st194{fill:#265B65;}
	.st195{fill:#767A52;}
	.st196{fill:#808082;}
	.st197{fill-rule:evenodd;clip-rule:evenodd;fill:url(#SVGID_00000059268599093191147750000018360117687852951742_);}
	.st198{fill-rule:evenodd;clip-rule:evenodd;fill:url(#SVGID_00000103257728528709067740000012720341536606476215_);}
	.st199{fill:#3A5CA5;}
	.st200{fill:#2F3A89;}
	.st201{fill:#6D6E71;}
	.st202{fill:#41918E;}
	.st203{fill:#445DA5;}
	.st204{clip-path:url(#SVGID_00000091014021273945330200000000626179682643333505_);}
	.st205{fill:#4A6EAF;}
	.st206{fill:#381D13;}
	.st207{clip-path:url(#SVGID_00000024003185447926474640000011793938154674271896_);}
	.st208{clip-path:url(#SVGID_00000098925220253298887270000004702865835827157180_);}
	.st209{clip-path:url(#SVGID_00000181769760025239376630000016117701124081724068_);}
	.st210{clip-path:url(#SVGID_00000054956596065435171630000016992771496716167814_);}
	.st211{clip-path:url(#SVGID_00000129892746890019799780000000613803925861914496_);}
	.st212{clip-path:url(#SVGID_00000122715842366180610710000017776781640947763893_);}
	.st213{clip-path:url(#SVGID_00000177476709905534090410000014592030273193631416_);}
	.st214{clip-path:url(#SVGID_00000174600950691705143430000002288361665857178534_);}
	.st215{clip-path:url(#SVGID_00000085939080704833111940000006093973915040343695_);}
	.st216{clip-path:url(#SVGID_00000008147780785187998910000009013875535499308963_);}
	.st217{clip-path:url(#SVGID_00000134935078270340089760000017542083393586713738_);}
	.st218{fill:#A2A8AC;}
	.st219{fill:#41834F;}
	.st220{fill:#265BB2;}
	.st221{fill:#293B90;}
	.st222{fill:#C99378;}
	.st223{fill:none;}
	.st224{enable-background:new    ;}
	.st225{fill:#203D35;}
	.st226{fill:#817771;}
	.st227{fill:#265C80;}
	.st228{fill:#2C2926;}
	.st229{fill:#59BCF8;}
	.st230{fill-rule:evenodd;clip-rule:evenodd;fill:#0101C2;}
	.st231{fill-rule:evenodd;clip-rule:evenodd;fill:#0202C6;}
	.st232{fill:#3A42F4;}
	.st233{fill-rule:evenodd;clip-rule:evenodd;fill:#050386;}
	.st234{fill:#3038F4;}
	.st235{clip-path:url(#SVGID_00000174578300432107239700000008125798425170819717_);}
	.st236{fill:#ED7D30;}
	.st237{fill:#479EE6;}
	.st238{fill:url(#Path_6_00000156566583109684499310000007518773996061756860_);}
	.st239{fill:#CC2C79;}
	.st240{fill:#1A1818;}
	.st241{fill-rule:evenodd;clip-rule:evenodd;fill:#FFFFFF;}
	.st242{fill-rule:evenodd;clip-rule:evenodd;fill:#469B88;}
	.st243{fill-rule:evenodd;clip-rule:evenodd;fill:#2C2E6A;}
	.st244{fill:#469B88;}
	.st245{fill:#1E1C44;}
	.st246{fill:#DA6D2A;}
	.st247{clip-path:url(#SVGID_00000166669940348929892850000015266551618614287012_);}
	.st248{fill:#273669;}
	.st249{fill:#567DF6;}
	.st250{fill:#70D3FA;}
	.st251{fill:#88FAC1;}
	.st252{fill:#070E51;}
	.st253{opacity:0.5;}
	.st254{fill:url(#SVGID_00000061444174577194855660000015656331068831484848_);}
	.st255{fill:url(#SVGID_00000090990730990911077720000006748359434737299076_);}
	.st256{fill:url(#SVGID_00000120518105180506824930000009588843056529910687_);}
	.st257{fill:#05039B;}
	.st258{fill:#406DAF;}
	.st259{fill:#808086;}
	.st260{fill:#84C6C9;}
	.st261{fill:#86398D;}
	.st262{fill:#8E599C;}
	.st263{fill:#E7963E;}
	.st264{fill:#70C3ED;}
	.st265{fill:#4B2A50;}
	.st266{fill:#333333;}
	.st267{fill:#75FAAA;}
	.st268{fill:url(#SVGID_00000121256285252534173820000007322456881587484093_);}
	.st269{fill:#160141;}
	.st270{fill:url(#SVGID_00000120550885640334336770000014397548734778374580_);}
	.st271{fill:url(#SVGID_00000115502389017506330500000002775428260800754086_);}
	.st272{fill:url(#SVGID_00000162325202000176239260000011119271723774888604_);}
	.st273{fill-rule:evenodd;clip-rule:evenodd;fill:url(#SVGID_00000142154246289733415390000006636533247792065679_);}
	.st274{fill-rule:evenodd;clip-rule:evenodd;fill:url(#SVGID_00000063604710661352773780000015773002119116552114_);}
	.st275{fill-rule:evenodd;clip-rule:evenodd;fill:url(#SVGID_00000118383509037824527170000017151405503303453057_);}
	.st276{fill-rule:evenodd;clip-rule:evenodd;fill:url(#SVGID_00000017500010548126264250000003422777131076108690_);}
	.st277{fill:#414042;}
</style>
<g>
	<path class="st192" d="M166.39,526.83V389.11l217.62,37.74l-1.03,100.64C382.98,527.49,166.39,526.83,166.39,526.83z"/>
	<g>
		<defs>
			<rect id="SVGID_00000132800142315369915180000012086345160928441239_" x="144" y="366.09" width="712" height="267.65"/>
		</defs>
		<clipPath id="SVGID_00000074427453916515042120000004121292523653125261_">
			<use xlink:href="#SVGID_00000132800142315369915180000012086345160928441239_"  style="overflow:visible;"/>
		</clipPath>
		<g style="clip-path:url(#SVGID_00000074427453916515042120000004121292523653125261_);">
			<g>
				<path class="st194" d="M164.47,534.87l9.3,15.13c0.88,1.3,1.96,2.44,3.21,3.39l-1.62-2.91c-1.11-2.25-0.18-1.99-1.33-3.69
					c-1.7-2.69-0.37-0.77-0.92-1.92c-0.55-1.14-1.07-1.62-2.18-3.69s-1.73-4.21-2.47-5.31c-0.74-1.11-2.29-2.21-2.29-1.48
					c0,0.74-1.7,0.55-1.7,0.55 M154.81,517.01c-0.87-1.18-1.45-2.54-1.7-3.98c-0.18-2.07-1.88-6.97-2.25-8.71
					c-0.37-1.73-1.88-4.32-2.1-6.01c-0.22-1.7,0.22-4.91,0.22-6.27c0-1.36-1.92-13.24-1.73-15.13c0.18-1.88,0-5.9,0-7.05
					s0.44-4.72,0.44-5.46v-7.38l0.74,4.94c0.4,1.62,0.65,3.28,0.74,4.94c0,1.33,0.77,3.39,1,1.88c0.22-1.51,0-2.88,0.33-4.76
					c0.33-1.88,0.77-10.81,0.96-12.51c0.28-2.82,0.79-5.6,1.51-8.34c1.07-3.05,2.31-6.04,3.69-8.96l1.4-4.35
					c-0.36-1.92-0.04-3.9,0.89-5.61c1.7-3.17,2.03-2.07,3.91-5.68l4.24-8.52c0.87-1.67,2.13-3.1,3.69-4.17l3.03-2.66
					c1.29-1.11,1.29-1.88,2.88-3.39c1.59-1.51,2.8-3.69,1.66-2.84c-1.73,1.09-3.37,2.33-4.91,3.69l-5.68,6.79
					c0,0,0-6.79,14.94-15.86l24.02-15.09c9.61-4.31,19.63-7.61,29.92-9.85c6.89-0.27,13.78-0.16,20.66,0.33
					c10.95,0.93,21.58,4.11,31.25,9.33c13.38,8.71,24.07,20.97,30.88,35.42c5.09,12.51,7.38,36.71,7.38,45.23
					c0,8.52-6.64,25.82-9.89,32.57c-4.78,9.12-11.66,16.97-20.07,22.91c-7.19,4.79-15.6,7.43-24.24,7.6
					c-6.58,0.28-13.09-1.38-18.74-4.76c-8.09-4.88-13.8-12.89-15.75-22.13c-2.11-9.06-2.67-18.42-1.66-27.67
					c1.46-6.35,4.02-12.39,7.56-17.86c2.16-3.2,5.09-5.8,8.52-7.56c3.26-1.13,6.81-1.13,10.07,0c3.21,1.33,3.95,3.03,3.69,5.16
					c0,1.85-1.24,3.46-3.03,3.95c-1.76,0.33-3.48,0.83-5.13,1.51c-2.98,2.53-5.15,5.88-6.23,9.63c-1.56,5.38-2.57,10.91-3.03,16.49
					c-0.22,5.6,0.62,11.2,2.47,16.49c2.35,4.66,6.27,8.35,11.07,10.4c3.93,1.44,8.1,2.14,12.28,2.07
					c5.29-0.94,10.35-2.86,14.94-5.64c5.67-4.34,10.55-9.62,14.42-15.6c3.81-8.02,6.6-16.48,8.3-25.2
					c0.89-7.93,1.03-15.92,0.41-23.87c-2.13-9.49-5.33-18.71-9.52-27.48c-5.91-8.46-13.12-15.93-21.36-22.13
					c-5.87-3.82-12.42-6.46-19.29-7.78c-6.1-0.97-12.28-1.34-18.45-1.11c-9.1,0.36-18.13,1.8-26.89,4.28
					c-8.97,3.85-17.6,8.43-25.82,13.69c-5.16,3.73-9.93,7.97-14.24,12.65c-2.21,3.21-9.78,12.69-11.07,15.72
					c-1.29,3.03-5.09,10.03-6.46,13.8c-1.68,3.96-2.92,8.09-3.69,12.32c0,3.39-2.25,11.07-2.47,13.83
					c-0.22,2.77,0.22,7.93,0.22,10.77c-0.14,2.5-0.56,4.97-1.25,7.38v-5.9c0-0.92,0.44-3.03,0.44-3.69
					c-0.17-0.75-0.49-1.45-0.96-2.07c0.13,1.33,0.13,2.66,0,3.98c-0.18,1.88-1.33,3.95-1.33,2.47s0-4.76-0.55-3.69
					c-0.36,2.44-0.55,4.91-0.55,7.38c0,0.81-0.22,4.39-0.22,5.31c0.39,2.12,0.9,4.22,1.55,6.27c0.43,1.41,0.61,2.88,0.52,4.35
					c0,1.88-2.1,1.7-1.51,3.39c0.59,1.7,2.07,5.09,2.29,6.09s-0.22-4.17,0.59-1.7c0.81,2.47,1.11,4.91,2.07,7.38
					c0.96,2.47,2.14,8.23,2.14,8.23L154.81,517.01z"/>
				<path class="st194" d="M158.24,512.48v-0.55c-0.4-1.21-0.72-2.44-0.96-3.69c-0.13-1.16-0.39-2.3-0.77-3.39
					c-0.37-1.33,1.14,0.37,1.33,1.14c0.18,0.77,0.41-5.87,0.59-2.66c0.02,2.23,0.28,4.46,0.77,6.64c0.55,2.62,1.14,6.23,0.7,4.94
					c-0.28-0.89-0.79-1.69-1.48-2.32 M155.58,501.52v-0.37c0-0.81-0.18-2.73-0.18-3.69c0-0.96-0.33-2.4-0.33-3.91v-6.05
					c0.21,2.41,0.59,4.8,1.14,7.16c0.53,2.18,0.85,4.4,0.96,6.64L155.58,501.52z"/>
			</g>
			<g>
				<path class="st195" d="M265.74,475.73c0-2.8,3.06-5.09,5.87-5.46c4.19-1.04,7.52-4.21,8.78-8.34c2.12-6.58,3.39-13.39,3.8-20.29
					c-0.37-4.13-1.88-15.31-5.46-18.7c-3.28-3.45-7.4-5.99-11.95-7.38c-4.58-0.78-9.26-0.78-13.83,0
					c-5.19,1.77-10.04,4.4-14.35,7.78c-5.18,5.12-9.47,11.07-12.69,17.6c-3.62,9.23-5.8,18.96-6.46,28.85
					c0,7.05,0.52,22.76,6.6,35.23c6.09,12.47,14.94,24.46,26.34,30.1c10.51,5.69,22.33,8.5,34.27,8.15
					c11.07-0.74,27.23-2.25,41.06-10.59s28.63-17.86,37.11-34.46c6.6-12.75,11.2-26.44,13.65-40.58c0.7-5.38,1.08-10.8,1.14-16.23
					c0-2.29,0.37-6.46,0.37-6.46l0.92,3.03c0.41,1.14,0.59,3.03,1,2.43c0.41-0.59,0.92-0.18,0.92-1.29c0-1.11-1.14-8.15-1.14-9.63
					c0-1.48-0.37-5.16-0.37-5.72c0.09-1.65,0.09-3.3,0-4.94c-0.22-0.74-2.1-2.62-2.1-3.69c0-1.07-1.7-1.4-1.7-1.4
					s1.14-1.29,0.74-1.84c-0.41-0.55-1.84-1.14-1.84-2.03c0-0.89-0.33,0-0.52,1.07c-0.2,0.62-0.72,1.07-1.36,1.18l-0.59-2.84
					l0.44-3.06c0,0,1.7,2.32,1.7,1.73c0-0.59,0.55-0.59,0.55-2.07s-0.22-3.69-0.22-4.39c0-0.7-0.33-3.69-0.33-3.69
					s1.66,5.9,2.03,7.97c0.37,2.07,2.69,6.82,3.06,9.7s1.88,5.87,1.88,6.79c0,0.92,0.96,5.46,0.96,7.38c0,1.92,0.74,6.38,0.74,7.71
					c0,1.33,0.55,15.16,0.22,16.49c-0.33,1.33-1.33,0-1.33,0.59s-0.77-5.31-0.77-3.69c0.07,2.47-0.05,4.93-0.37,7.38
					c-0.37,1.7-2.1,9.85-2.1,11.07c-0.71,4.07-1.77,8.07-3.17,11.95c-1.09,2.7-1.99,5.47-2.69,8.3c-0.47,2.16-1.08,4.29-1.81,6.38
					c-0.71,1.64-1.67,3.15-2.84,4.5c-0.55,0.81-2.47,4.98-3.21,6.27c-0.78,2.1-2.04,3.98-3.69,5.5c-1.89,1.33-3.57,2.92-5.02,4.72
					c-0.7,1.14-3.95,4.21-4.72,5.68c-0.7,1.21-1.6,2.29-2.66,3.21l4.98-3.69c1.42-1.03,2.66-2.27,3.69-3.69
					c0.85-1.55,1.9-2.98,3.1-4.28c1.18-1.18,4.02-5.13,4.02-5.13c-1.53,3.08-3.3,6.03-5.31,8.82c-1.71,2.31-3.67,4.42-5.87,6.27
					c-2.1,1.33-4.76,3.69-8.01,5.64c-3.25,1.96-13.43,8.37-16.27,10.59c-6.78,4.29-14.08,7.69-21.73,10.11
					c-10.55,3.2-21.64,4.28-32.61,3.17c-11.86-1.5-23.35-5.15-33.9-10.77c-8.48-4.98-21.03-17.41-24.39-24.27
					c-3.36-6.86-11.4-23.98-11.95-33.94c-0.55-9.96-0.96-31.25,3.98-42.42c4.67-10.89,11.21-20.88,19.33-29.51
					c5.28-4.54,14.54-11.07,21.91-11.73c7.38-0.66,15.75-1.51,21.43,0.55c7.62,3.66,13.96,9.54,18.19,16.86
					c2.95,7.5,4.61,15.45,4.91,23.5c0.26,6.37-0.45,12.74-2.1,18.89c-1.58,5.77-4.57,11.06-8.71,15.38
					c-3.95,3.69-3.95,3.98-9.08,4.57s-5.87,0-8.15-1.33c-1.33-0.8-2.24-2.15-2.47-3.69 M375.86,417.44l0.37,6.79
					c0.18,1.29,0.96,4.39,1.11,3.69c0.15-0.7,1.33,0,1.33-0.59v-2.43c0-0.77-0.74-0.59-1.14-1.88l-0.77-3.21
					c-0.22-0.85-0.51-1.68-0.89-2.47 M369.96,388.63l-3.39-5.13c-1.33-2.07-1.33-5.68-3.69-8.34l-6.09-7.01c0,0-1.07-0.37,0,1.51
					c0.74,1.53,1.61,2.99,2.62,4.35c2.01,2.41,3.79,5,5.31,7.75c0.37,1.51,0.59,3.25,0.59,3.25L369.96,388.63z"/>
			</g>
			<g>
				<path class="st194" d="M451.19,406.64c3.02,0,5.46-2.45,5.46-5.46s-2.45-5.46-5.46-5.46c-3.02,0-5.46,2.45-5.46,5.46
					c0,1.45,0.58,2.84,1.6,3.86C448.36,406.06,449.74,406.64,451.19,406.64 M435.07,406.64c3.02,0,5.46-2.44,5.46-5.46
					s-2.44-5.46-5.46-5.46c-3.02,0-5.46,2.44-5.46,5.46c-0.02,2.99,2.39,5.44,5.39,5.46C435.02,406.64,435.05,406.64,435.07,406.64
					 M834.49,418.15v2.07c2.02-0.26,3.87,1.16,4.14,3.18c0.02,0.17,0.03,0.34,0.03,0.51v23.76c-0.25,2.76-2.69,4.8-5.45,4.55
					c-0.03,0-0.06-0.01-0.09-0.01h-18.15c-4.35,0-5.09-1.66-5.09-4.69v-24.2c0-3.03,4.54-3.69,4.54-3.69v-1.48H796.2v1.92
					c2.88,0.37,4.39,0.92,4.39,3.03v24.98c0,3.25-2.29,3.98-6.01,3.98h-19c-3.39,0-3.69-1.33-3.69-4.94v-25.27
					c0-2.25,3.69-2.25,3.69-2.25v-1.44h-17.01v2.07c1.48,0,3.69,0.96,3.69,2.47v25.82c0,2.29-2.62,3.69-5.83,3.69h-53.01
					c-2.88,0.25-5.42-1.89-5.66-4.78c-0.01-0.11-0.01-0.21-0.02-0.32v-39.18c0-5.24,9.67-5.46,9.67-5.46v-1.88h-28.48v1.7
					c4.17,0,9.48,3.03,9.48,5.64v39.22c0,2.1-1.48,4.76-3.69,4.76h-16.08c-1.88,0-3.03-2.29-3.03-5.09V412.5
					c0-2.47,4.32-2.47,4.32-2.47v-1.33h-16.08v1.33c1.98,0.14,3.55,1.71,3.69,3.69v34.83c0,2.1-2.8,3.43-4.54,3.43h-27.45
					c-2.8-0.55-4.17-6.05-4.17-6.05l-2.1,0.74l2.88,11.07h214.52c6.38-0.38,11.4-5.57,11.58-11.95v-23.24
					c0-3.03,4.13-2.62,4.13-2.62v-1.77L834.49,418.15z M577.07,454.19c-13.39,0-18.45-14.2-18.45-20.07
					c0.58-10.38,8.91-18.63,19.29-19.11c11.07,0,19.44,11.58,19.44,19.74c-0.42,10.93-9.46,19.55-20.4,19.44 M444.74,454.19
					c-13.35,0-18.45-14.2-18.45-20.07c0.58-10.38,8.91-18.63,19.29-19.11c11.07,0,19.48,11.58,19.48,19.74
					c-0.44,10.94-9.49,19.55-20.44,19.44 M577.95,411.76c-28.41,0-28.85,23.13-28.85,23.13s-0.81,2.07-2.25,5.42
					c-1.44,3.36-7.64,11.07-9.55,11.07c-1.92,0-54.67,0.52-57.59-0.04c-2.91-0.55-4.98-4.76-4.98-6.71v-30.69
					c0-1.62,2.55-2.4,2.55-2.4h-10.74c1.52,0.64,2.58,2.05,2.77,3.69v7.16c0,0-5.79-10.55-23.17-10.55c-19.44,0-29,14.76-29,22.8
					c0,8.04,4.91,23.28,26.6,23.28c21.69,0,25.82-10.85,25.82-10.85l1.92-0.3c1.01,5.77,5.52,10.3,11.29,11.33h54.12
					c3.69,0,4.94-2.25,7.64-5.13c2.42-3.48,4.36-7.28,5.76-11.29c4.53,10.54,15.14,17.15,26.6,16.56
					c22.36,0,29.33-15.79,29.33-22.95s-5.87-23.32-28.04-23.32 M800.66,519.34l11.07-23.28l11.07,23.28H800.66z M842.76,538.08
					c-1.56-1.79-2.81-3.84-3.69-6.05l-23.87-47.96h-1.96l-19.96,41.69c-1.71,4.04-3.86,7.88-6.42,11.44
					c-1.48,1.49-3.47,2.36-5.57,2.43v1.55h19.04v-1.55c-1.56-0.07-3.11-0.32-4.61-0.74c-1.25-0.47-2.04-1.7-1.96-3.03
					c0.08-1.01,0.33-1.99,0.74-2.91c0.48-1.25,2.03-4.65,4.61-10.22h25.09l3.87,8.19c0.52,1.09,0.96,2.21,1.33,3.36
					c0.23,0.71,0.38,1.44,0.44,2.18c0,1.29-0.41,2.03-1.22,2.36c-1.78,0.48-3.61,0.76-5.46,0.81v1.55h24.31v-1.55
					c-1.67-0.12-3.28-0.65-4.69-1.55 M732.12,527.34l-22.13-42.13h-18.96v1.59c2.56-0.14,5.11,0.42,7.38,1.62
					c1.32,1.69,1.91,3.85,1.62,5.98v34.42c0.36,2.95-0.24,5.94-1.7,8.52c-2.23,1.6-4.93,2.43-7.67,2.36v1.55h22.58v-1.55
					c-2.34,0.02-4.64-0.62-6.64-1.84c-1.89-2.61-2.71-5.84-2.29-9.04v-33.79l24.13,46.15h1.33L754.29,493v38
					c0,3.69-0.44,5.87-1.48,6.79c-2.2,1.38-4.79,2.02-7.38,1.84v1.55h26.89v-1.55c-2.38,0.05-4.74-0.54-6.82-1.7
					c-1.07-0.89-1.55-2.88-1.55-5.94V494.4c-0.3-2.1,0.26-4.22,1.55-5.9c2.07-1.21,4.43-1.8,6.82-1.7v-1.59h-19.11L732.12,527.34z
					 M633.25,519.34l11.07-23.28l11.07,23.28H633.25z M671.54,532.03l-23.87-47.96h-1.96l-20.03,41.69
					c-1.7,4.02-3.81,7.85-6.31,11.44c-1.53,1.48-3.55,2.35-5.68,2.43v1.55h19.07v-1.55c-1.57-0.07-3.13-0.32-4.65-0.74
					c-1.22-0.49-2-1.71-1.92-3.03c0.06-1,0.3-1.99,0.7-2.91c0.48-1.25,2.03-4.65,4.65-10.22h25.23l3.69,8.19
					c0.53,1.08,0.98,2.2,1.33,3.36c0.23,0.71,0.4,1.44,0.48,2.18c0,1.29-0.44,2.03-1.25,2.36c-1.77,0.49-3.59,0.76-5.42,0.81v1.55
					h24.31v-1.55c-1.67-0.11-3.28-0.64-4.69-1.55C673.66,536.3,672.41,534.25,671.54,532.03 M596.88,536.2
					c-5.62,1.54-11.45,2.16-17.27,1.84h-4.46h-2.25c-0.9,0-1.75-0.37-2.36-1.03c-0.43-0.66-0.63-1.43-0.59-2.21v-40.58
					c-0.38-2.2,0.37-4.45,1.99-5.98c2.23-1.07,4.68-1.59,7.16-1.51v-1.59h-27.15v1.59c2.4-0.11,4.77,0.5,6.82,1.73
					c1.29,1.69,1.86,3.83,1.59,5.94v37.56c0.3,2.15-0.27,4.33-1.59,6.05c-2.12,1.05-4.46,1.61-6.82,1.62v1.55h51.65l4.61-14.76h-2.4
					C604.01,530.59,600.86,534.03,596.88,536.2 M492.36,519.45l10.88-23.28l11.07,23.28H492.36z M530.77,532.14l-23.87-47.96h-1.99
					l-20,41.69c-1.7,4.02-3.81,7.85-6.31,11.44c-1.53,1.48-3.55,2.35-5.68,2.43v1.55h19.04v-1.55c-1.56-0.08-3.11-0.32-4.61-0.74
					c-1.22-0.49-2-1.71-1.92-3.03c0.06-1,0.3-1.99,0.7-2.91l4.65-10.22h25.09l3.69,8.19c0.53,1.08,0.98,2.2,1.33,3.36
					c0.23,0.71,0.4,1.44,0.48,2.18c0,1.29-0.41,2.03-1.25,2.36c-1.77,0.49-3.59,0.76-5.42,0.81v1.55h24.31v-1.55
					c-1.67-0.11-3.28-0.64-4.69-1.55c-1.55-1.8-2.8-3.85-3.69-6.05 M446.21,510.37l-8.48-4.61c-2.57-1.28-4.93-2.93-7.01-4.91
					c-1.47-1.48-2.28-3.49-2.25-5.57c-0.08-2.27,1.03-4.42,2.91-5.68c2.04-1.37,4.44-2.09,6.9-2.07c3.67,0.1,7.24,1.21,10.33,3.21
					c3.8,2.76,6.43,6.84,7.38,11.44h2.32l-2.18-18.08h-1.84c-0.2,0.75-0.57,1.44-1.07,2.03c-0.69,0.56-1.59,0.81-2.47,0.7
					c-1.79-0.32-3.55-0.76-5.28-1.33c-2.58-0.84-5.26-1.31-7.97-1.4c-4.61-0.19-9.14,1.28-12.76,4.13c-3.12,2.67-4.88,6.59-4.8,10.7
					c0.09,3.37,1.55,6.56,4.06,8.82c1.78,1.63,3.77,3.03,5.9,4.17l8.26,4.5c3.27,1.66,6.39,3.6,9.33,5.79
					c2.18,1.83,3.43,4.53,3.39,7.38c0.13,2.79-1.13,5.47-3.36,7.16c-2.25,1.71-5.03,2.6-7.86,2.51c-5.3,0.13-10.41-1.97-14.09-5.79
					c-2.41-2.66-4.32-5.74-5.64-9.08h-2.29l3.03,17.93h2.1c0.13-0.72,0.4-1.42,0.81-2.03c0.52-0.7,1.38-1.07,2.25-0.96
					c1.87,0.37,3.7,0.88,5.5,1.51c2.99,0.93,6.09,1.43,9.22,1.48c5.21,0.23,10.34-1.36,14.5-4.5c3.59-2.54,5.71-6.67,5.68-11.07
					c0.04-3.15-1.09-6.2-3.17-8.56c-3.24-3.2-6.98-5.85-11.07-7.86"/>
			</g>
			<g>
				<path class="st196" d="M156.28,591.53h3.28v3.69h-3.28V591.53z M151.38,591.53h3.28v3.69h-3.28V591.53z M168.46,588.14v-14.76
					c-1.77,0-3.69,0.26-3.69,5.53v8.93H144c0.21-3.24,0.85-6.45,1.92-9.52c1.29-4.74,5.81-7.86,10.7-7.38v2.95
					c-3.2-0.41-6.26,1.44-7.38,4.46c-0.75,2.06-1.27,4.2-1.55,6.38h13.76v-6.57l0,0c0-8.04,4.57-8.45,10.26-8.37v14.98h4.83v3.06
					L168.46,588.14z"/>
				<path class="st196" d="M175.36,584.75h6.38v3.25h-6.38V584.75z"/>
				<path class="st196" d="M180.78,584.75h6.38v3.25h-6.38V584.75z"/>
				<g>
					<path id="B" class="st196" d="M186.2,584.75h6.35v3.25h-6.35V584.75z"/>
				</g>
				<g>
					<path id="C_00000076598927915039794160000005685807058899276160_" class="st196" d="M191.63,584.75h6.38v3.25h-6.38V584.75z"/>
				</g>
				<path class="st196" d="M197.01,584.75h6.38v3.25h-6.38V584.75z"/>
				<path class="st196" d="M202.44,584.75h6.35v3.25h-6.35L202.44,584.75z"/>
				<path class="st196" d="M207.9,584.75h6.35v3.25h-6.35V584.75z"/>
				<path class="st196" d="M213.28,584.75h6.38v3.25h-6.38V584.75z"/>
				<path class="st196" d="M218.7,584.75h6.38v3.25h-6.38V584.75z"/>
				<path class="st196" d="M224.13,584.75h6.38v3.25h-6.38V584.75z"/>
				<path class="st196" d="M229.55,584.75h6.35v3.25h-6.35V584.75z"/>
				<path class="st196" d="M234.97,584.75h6.38v3.25h-6.38V584.75z"/>
				<path class="st196" d="M246.15,562.76h3.28v3.69h-3.28V562.76z M241.87,587.85h-1.73v-3.21h1.73c2.99,0,4.35-1.73,4.35-4.61
					v-10.26h3.21v10.7c0.35,3.88-2.51,7.3-6.38,7.65c-0.33,0.03-0.66,0.04-1,0.02 M264.08,572.79h-3.69c-3.25,0-3.69,4.46-3.69,6.9
					s0.41,7.19,3.69,7.19c3.28,0,3.69-4.35,3.69-6.94V572.79z M260.39,596.15L260.39,596.15v-3.03c2.88,0,3.69-3.36,3.69-5.72
					c-0.69,1.67-2.4,2.7-4.21,2.51c-4.32,0-6.71-3.69-6.71-10.11c0-6.42,2.58-10.03,6.79-10.03h7.38v18.45
					c0.49,3.84-2.23,7.35-6.07,7.84c-0.24,0.03-0.48,0.05-0.72,0.05 M270.91,580.47v-17.78h3.28v17.45c-0.28,2.27,1.33,4.33,3.6,4.6
					c0.31,0.04,0.63,0.04,0.94,0.01v3.1c-3.94,0.37-7.42-2.52-7.79-6.46C270.9,581.08,270.89,580.77,270.91,580.47"/>
				<path class="st196" d="M277.73,584.75h6.35v3.25h-6.35V584.75z"/>
				<path class="st196" d="M283.15,584.75h6.35v3.25h-6.35V584.75z"/>
				<path class="st196" d="M288.58,584.75h6.35v3.25h-6.35V584.75z"/>
				<path class="st196" d="M293.96,584.75h6.38v3.25h-6.38V584.75z"/>
				<path class="st196" d="M299.42,584.75h6.35v3.25h-6.35V584.75z"/>
				<path class="st196" d="M304.81,584.75h6.35v3.25h-6.35V584.75z"/>
				<path class="st196" d="M310.27,584.75h6.35v3.25h-6.35V584.75z"/>
				<path class="st196" d="M328.2,572.57L328.2,572.57c-3.21-0.18-5.97,2.27-6.15,5.49c-0.01,0.13-0.01,0.25-0.01,0.38l6.16,5.83
					l6.16-5.83c-0.08-3.29-2.79-5.91-6.09-5.87 M331.96,587.96c-1.26-0.01-2.5-0.22-3.69-0.63c-1.19,0.4-2.43,0.61-3.69,0.63h-8.93
					v-3.21h8.78l-6.01-5.68c0-5.36,4.34-9.7,9.7-9.7s9.7,4.34,9.7,9.7l-6.01,5.68h8.71v3.1L331.96,587.96z"/>
				<path class="st196" d="M339.41,584.75h6.35v3.25h-6.35V584.75z"/>
				<path class="st196" d="M344.8,584.75h6.35v3.25h-6.35V584.75z"/>
				<path class="st196" d="M350.22,584.75h6.35v3.25h-6.35V584.75z"/>
				<path class="st196" d="M360.03,562.69h3.25v3.69h-3.25V562.69z M367.67,587.85c-2.21,0.13-4.35-0.79-5.79-2.47
					c-1.37,1.71-3.5,2.63-5.68,2.47h-0.37v-3.21h0.37c2.03,0.12,3.78-1.43,3.9-3.46c0-0.08,0.01-0.15,0.01-0.23v-11.07h3.21v11.29
					c0,2.36,1.66,3.69,4.35,3.69h0.37v2.99H367.67z M354.91,562.57h3.25v3.69h-3.25V562.57z"/>
				<path class="st196" d="M367.12,587.85v-3.21c2.29,0.26,4.35-1.39,4.61-3.67c0.04-0.31,0.04-0.63,0-0.94v-17.34h3.25v17.78
					c0.01,4.07-3.29,7.39-7.36,7.39C367.45,587.86,367.28,587.86,367.12,587.85 M385.19,562.69h3.28v25.31h-3.28V562.69z
					 M410.94,564.09h3.25v3.69h-3.25V564.09z M424.37,587.85c-1.5,0.04-2.97-0.36-4.24-1.14v0.52c0.31,3.9-2.61,7.31-6.51,7.62
					c-0.15,0.01-0.31,0.02-0.46,0.02h-0.92c-3.91-0.05-7.04-3.26-7-7.17c0-0.17,0.01-0.34,0.02-0.5v-17.41h3.25v17.34
					c0,2.84,1.25,4.65,4.21,4.65c2.95,0,4.13-1.81,4.13-4.65v-17.34h3.28v11.73c0,2.1,1.77,3.25,4.24,3.25h0.59v3.1H424.37z"/>
				<path class="st196" d="M423.78,584.75h6.38v3.25h-6.38V584.75z"/>
				<path class="st196" d="M429.21,584.75h6.35v3.25h-6.35V584.75z"/>
				<path class="st196" d="M434.59,584.75h6.35v3.25h-6.35V584.75z"/>
				<path class="st196" d="M440.05,584.75h6.35v3.25h-6.35V584.75z"/>
				<path class="st196" d="M445.44,584.75h6.38v3.25h-6.38V584.75z"/>
				<path class="st196" d="M450.9,584.75h6.35v3.25h-6.35V584.75z"/>
				<path class="st196" d="M460.78,591.53h3.25v3.69h-3.25V591.53z M468.16,588.14c-2.22,0.14-4.39-0.77-5.83-2.47
					c-1.37,1.69-3.47,2.62-5.64,2.47h-0.55v-3.21h0.55c2.04,0,3.69-1.65,3.69-3.69v-11.07h3.25v11.29c0,2.36,1.7,3.69,4.35,3.69
					h0.55v2.69L468.16,588.14z M455.47,591.53h3.25v3.69h-3.25V591.53z"/>
				<path class="st196" d="M479.08,571.35c-2.58,0-3.95,2.32-3.95,6.94s1.36,6.79,3.95,6.79s4.06-2.25,4.06-6.68
					S481.81,571.35,479.08,571.35 M479.08,587.96c-2.26,0.09-4.4-1.02-5.64-2.91c-1.21,1.85-3.28,2.96-5.5,2.91v-3.21
					c1.54-0.06,2.88-1.08,3.36-2.55c0.44-1.44,0.6-2.96,0.44-4.46l0,0c0-5.76,2.88-9.26,7.38-9.26s7.38,3.69,7.38,9.78
					s-2.73,9.7-7.38,9.7 M490.15,580.47v-17.78h3.25v17.45c-0.28,2.27,1.34,4.32,3.6,4.6c0.3,0.04,0.6,0.04,0.9,0.01v3.1
					c-3.94,0.33-7.4-2.6-7.73-6.54C490.15,581.03,490.14,580.75,490.15,580.47 M487.42,560.77v-1.84h1.59v-0.59
					c0-0.96,0.26-3.69,3.03-3.69c1.62,0,2.29,0.92,2.88,2.36h-1.92c-0.3-0.41-0.41-0.63-0.92-0.63c-0.52,0-1.18,1.14-1.18,2.03v0.41
					h4.28v1.84L487.42,560.77z"/>
				<path class="st196" d="M496.94,584.75h6.38v3.25h-6.38V584.75z"/>
				<path class="st196" d="M502.36,584.75h6.35v3.25h-6.35V584.75z"/>
				<path class="st196" d="M507.78,584.75h6.38v3.25h-6.38V584.75z"/>
				<path class="st196" d="M513.21,584.75h6.35v3.25h-6.35V584.75z"/>
				<path class="st196" d="M518.63,584.75h6.35v3.25h-6.35V584.75z"/>
				<path class="st196" d="M528.44,562.69h3.25v3.69h-3.25V562.69z M536.08,587.96c-2.22,0.14-4.39-0.77-5.83-2.47
					c-1.37,1.68-3.47,2.6-5.64,2.47h-0.41v-3.21h0.41c2.04,0,3.69-1.65,3.69-3.69v-11.07h3.28v11.29c0,2.36,1.66,3.69,4.35,3.69
					h0.37v2.88L536.08,587.96z M523.28,562.69h3.25v3.69h-3.25V562.69z"/>
				<path class="st196" d="M547.55,587.85c-2.22,0.14-4.38-0.78-5.83-2.47c-1.37,1.68-3.47,2.6-5.64,2.47h-0.55v-3.21h0.55
					c2.04,0,3.69-1.65,3.69-3.69v-18.19h3.28v18.45c0,2.36,1.66,3.69,4.35,3.69h0.55v2.95H547.55z"/>
				<path class="st196" d="M547,587.85v-3.21c2.29,0.24,4.34-1.42,4.58-3.71c0.03-0.3,0.03-0.6,0-0.9v-17.34h3.25v17.78
					c0.17,4.07-2.99,7.51-7.06,7.68c-0.25,0.01-0.51,0.01-0.76-0.01 M582.49,562.69h3.25v3.69h-3.25V562.69z M577.43,562.69h3.21
					v3.69h-3.21V562.69z M582.53,572.79h-3.69c-3.06,0-3.69,3.98-3.69,6.35c0,2.36,1,5.61,3.69,5.61h3.69V572.79z M578.62,587.85
					c-2.95,0-6.97-2.21-6.97-8.82s2.69-9.37,6.97-9.37h7.38v14.98h4.39v3.21H578.62z"/>
				<path class="st196" d="M589.09,584.75h6.35v3.25h-6.35V584.75z"/>
				<path class="st196" d="M594.52,584.75h6.35v3.25h-6.35V584.75z"/>
				<path class="st196" d="M599.94,584.75h6.35v3.25h-6.35V584.75z"/>
				<path class="st196" d="M605.32,584.75h6.38v3.25h-6.38V584.75z"/>
				<path class="st196" d="M610.75,584.75h6.38v3.25h-6.38V584.75z"/>
				<path class="st196" d="M627.53,571.35c-2.62,0-3.98,2.32-3.98,6.94s1.36,6.79,3.98,6.79c2.62,0,4.02-2.25,4.02-6.68
					S630.26,571.35,627.53,571.35 M627.53,587.96c-2.28,0.09-4.45-1.01-5.72-2.91c-1.23,1.87-3.37,2.94-5.61,2.8v-3.21
					c1.55-0.05,2.91-1.07,3.39-2.55c0.43-1.45,0.58-2.96,0.44-4.46l0,0c0-5.76,2.88-9.26,7.38-9.26s7.38,3.69,7.38,9.78
					c0,6.09-2.73,9.7-7.38,9.7 M658,587.85h-0.55c-2.2,0.14-4.34-0.78-5.76-2.47c-1.21,1.61-3.12,2.53-5.13,2.47h-8.01v-3.21h3.25
					V562.5h3.32v22.13h1.33c2.47,0,3.69-2.32,3.69-6.97v-14.9h3.25v17.34c0.05,0.71,0.05,1.43,0,2.14c0.48,1.66,1.84,2.51,4.13,2.51
					h0.55L658,587.85z"/>
				<path class="st196" d="M656.86,584.75h6.38v3.25h-6.38V584.75z"/>
				<path class="st196" d="M662.28,584.75h6.35v3.25h-6.35V584.75z"/>
				<path class="st196" d="M667.71,584.75h6.38v3.25h-6.38V584.75z"/>
				<path class="st196" d="M695.56,587.85h-22.13v-3.21h6.2v-14.76h2.99v14.76h6.16v-14.87h3.25v14.98h3.43
					c2.1,0,2.77-0.81,2.77-4.61v-10.37h3.25v11.99c0.4,3.01-1.72,5.77-4.73,6.17c-0.39,0.05-0.78,0.06-1.17,0.03 M729.13,562.69
					h3.17v3.69h-3.17V562.69z M724,562.69h3.25v3.69H724V562.69z M729.13,572.79h-3.69c-3.03,0-3.69,3.98-3.69,6.35
					s1,5.61,3.69,5.61h3.69V572.79z M725.22,587.85c-2.91,0-7.05-2.21-7.05-8.82c0-6.6,2.73-9.37,7.05-9.37h7.16v14.98h4.43v3.21
					H725.22z"/>
				<path class="st196" d="M735.7,584.75h6.35v3.25h-6.35V584.75z"/>
				<path class="st196" d="M741.12,584.75h6.38v3.25h-6.38V584.75z"/>
				<path class="st196" d="M746.51,584.75h6.35v3.25h-6.35V584.75z"/>
				<path class="st196" d="M751.97,584.75h6.35v3.25h-6.35V584.75z"/>
				<path class="st196" d="M757.35,584.75h6.35v3.25h-6.35V584.75z"/>
				<path class="st196" d="M762.81,584.75h6.35v3.25h-6.35V584.75z"/>
				<path class="st196" d="M768.2,584.75h6.35v3.25h-6.35V584.75z"/>
				<path class="st196" d="M773.4,587.85v-3.21h15.31v-5.68c0-2.8-1.51-4.24-4.5-4.24h-9.89v-5.68c-0.03-3.46,2.76-6.29,6.22-6.32
					c0.28,0,0.55,0.01,0.82,0.05h6.68v3.17h-6.68c-2.43,0-3.95,1.36-3.95,3.17v2.32h6.79c3.69-0.39,6.99,2.29,7.38,5.98
					c0.05,0.47,0.05,0.94,0,1.4v9.04H773.4z M804.35,587.85c-1.51,0.05-3-0.35-4.28-1.14v0.26c0.41,3.93-2.45,7.45-6.38,7.86
					c-0.2,0.02-0.4,0.03-0.59,0.04v-2.95c1.45-0.18,2.68-1.17,3.17-2.55c0.48-1.44,0.67-2.95,0.55-4.46v-15.13h3.25v11.51
					c0,2.25,1.7,3.47,4.28,3.47h0.41v3.1H804.35z"/>
				<path class="st196" d="M803.87,584.75h6.38v3.25h-6.38V584.75z"/>
				<path class="st196" d="M809.33,584.75h6.35v3.25h-6.35V584.75z"/>
				<path class="st196" d="M814.72,584.75h6.38v3.25h-6.38V584.75z"/>
				<path class="st196" d="M820.14,584.75h6.38v3.25h-6.38V584.75z"/>
				<path class="st196" d="M843.72,562.76h3.25v3.69h-3.25V562.76z M841.24,557.52h3.21v3.69h-3.21V557.52z M838.66,562.76h3.25
					v3.69h-3.25V562.76z M848.11,587.96h-22.36v-3.21h6.23v-14.76h3.1v14.76h6.16v-14.98h3.25v14.98h3.43
					c2.07,0,2.73-0.81,2.73-4.61v-10.37h3.25v11.99c0.42,2.99-1.66,5.75-4.65,6.16c-0.4,0.06-0.81,0.07-1.22,0.03 M144.96,623.7
					l1.4-1.14c0.96,2.46,2.07,3.69,3.32,3.69c0.55-0.01,1.08-0.19,1.51-0.52c0.48-0.38,0.86-0.87,1.11-1.44
					c0.22-0.62,0.33-1.26,0.33-1.92c0.02-0.78-0.16-1.56-0.52-2.25c-0.75-1.35-1.68-2.59-2.77-3.69c-0.96-0.94-1.81-1.99-2.51-3.14
					c-0.59-1.14-0.87-2.41-0.81-3.69c-0.01-0.92,0.14-1.83,0.44-2.69c0.31-0.76,0.81-1.43,1.44-1.96c0.57-0.43,1.27-0.66,1.99-0.66
					c0.77-0.01,1.51,0.25,2.1,0.74c0.89,0.84,1.61,1.84,2.14,2.95l-1.33,1.44c-0.38-0.84-0.9-1.6-1.55-2.25
					c-0.39-0.35-0.88-0.54-1.4-0.55c-0.64,0-1.23,0.32-1.59,0.85c-0.51,0.73-0.72,1.63-0.59,2.51c-0.07,0.46-0.07,0.94,0,1.4
					c0.18,0.55,0.44,1.07,0.77,1.55l2.1,2.29c1.16,1.13,2.13,2.44,2.88,3.87c0.51,1.09,0.77,2.27,0.77,3.47
					c0.02,1.54-0.45,3.05-1.33,4.32c-0.7,1.1-1.9,1.79-3.21,1.84c-1.01-0.02-1.98-0.43-2.69-1.14c-1.01-1.04-1.77-2.31-2.21-3.69"/>
				<path class="st196" d="M170.6,612.71c-0.88-0.01-1.72,0.32-2.36,0.92c-0.79,0.67-1.39,1.53-1.73,2.51
					c-0.43,1.08-0.65,2.23-0.63,3.39c-0.01,1.17,0.2,2.34,0.63,3.43c0.36,0.97,0.95,1.83,1.73,2.51c0.63,0.59,1.46,0.91,2.32,0.92
					c0.88-0.01,1.73-0.34,2.4-0.92c0.79-0.63,1.4-1.46,1.77-2.4c0.4-1.19,0.59-2.44,0.55-3.69c0.07-1.72-0.39-3.42-1.33-4.87
					c-0.7-1.2-1.97-1.95-3.36-1.99 M176.72,610.87v16.93h-1.51v-2.91c-0.53,0.99-1.27,1.85-2.18,2.51
					c-0.76,0.54-1.68,0.83-2.62,0.81c-1.78-0.05-3.41-1.03-4.28-2.58c-1.27-1.87-1.91-4.09-1.84-6.35c-0.06-2.22,0.58-4.4,1.84-6.23
					c0.9-1.57,2.55-2.56,4.35-2.62c0.96,0,1.89,0.31,2.66,0.89c0.88,0.73,1.58,1.65,2.07,2.69v-3.14H176.72z M187.24,604.56h1.51
					v23.43h-1.51V604.56z M205.02,612.71c-0.88,0.01-1.73,0.34-2.4,0.92c-0.77,0.67-1.34,1.54-1.66,2.51
					c-0.45,1.08-0.67,2.23-0.66,3.39c0,1.18,0.22,2.34,0.66,3.43c0.36,0.96,0.94,1.82,1.7,2.51c0.65,0.58,1.49,0.9,2.36,0.92
					c0.87-0.02,1.71-0.35,2.36-0.92c0.77-0.64,1.37-1.46,1.73-2.4c0.43-1.18,0.64-2.43,0.63-3.69c0.06-1.73-0.41-3.43-1.36-4.87
					c-0.7-1.2-1.97-1.95-3.36-1.99 M211.14,610.87v16.93h-1.51v-2.91c-0.53,0.99-1.27,1.85-2.18,2.51
					c-0.76,0.54-1.68,0.83-2.62,0.81c-1.79-0.06-3.42-1.04-4.32-2.58c-1.24-1.88-1.86-4.1-1.77-6.35c-0.09-2.21,0.53-4.4,1.77-6.23
					c0.91-1.56,2.55-2.55,4.35-2.62c0.96-0.01,1.9,0.3,2.66,0.89c0.9,0.72,1.62,1.64,2.1,2.69v-3.14H211.14z M221.88,611.05h1.51
					v2.91c0.42-0.87,0.98-1.67,1.66-2.36c0.66-0.62,1.53-0.97,2.43-1c0.6,0.02,1.19,0.2,1.7,0.52c0.51,0.3,0.93,0.73,1.22,1.25
					c0.4,0.71,0.68,1.49,0.85,2.29c0.41-1.14,1.06-2.17,1.92-3.03c0.67-0.65,1.57-1.02,2.51-1.03c0.8,0.01,1.57,0.32,2.14,0.89
					c0.68,0.68,1.16,1.54,1.4,2.47c0.36,1.56,0.51,3.16,0.44,4.76v9.26h-1.55v-9.26c0.03-1.24-0.06-2.47-0.26-3.69
					c-0.19-0.61-0.5-1.18-0.92-1.66c-0.43-0.4-1-0.62-1.59-0.63c-0.79,0.03-1.54,0.37-2.07,0.96c-0.64,0.7-1.1,1.55-1.33,2.47
					c-0.32,1.71-0.46,3.46-0.41,5.2v6.64h-1.59v-8.67c0.05-1.39-0.03-2.79-0.26-4.17c-0.12-0.66-0.45-1.26-0.92-1.73
					c-0.41-0.44-0.98-0.7-1.59-0.7c-0.77,0.03-1.5,0.36-2.03,0.92c-0.62,0.72-1.09,1.56-1.36,2.47c-0.33,1.55-0.48,3.14-0.44,4.72
					v7.16h-1.51L221.88,611.05z M255.96,612.71c-0.87,0.02-1.71,0.35-2.36,0.92c-0.79,0.66-1.38,1.53-1.7,2.51
					c-0.46,1.07-0.69,2.23-0.66,3.39c-0.02,1.18,0.21,2.35,0.66,3.43c0.34,0.97,0.93,1.83,1.7,2.51c1.33,1.24,3.39,1.24,4.72,0
					c0.78-0.63,1.38-1.46,1.73-2.4c0.45-1.18,0.66-2.43,0.63-3.69c0.04-1.72-0.43-3.42-1.36-4.87c-0.7-1.2-1.97-1.95-3.36-1.99
					 M262.05,610.87v16.93h-1.48v-2.91c-0.54,0.97-1.26,1.83-2.14,2.51c-0.77,0.53-1.68,0.81-2.62,0.81
					c-1.8-0.04-3.45-1.02-4.35-2.58c-1.22-1.89-1.84-4.1-1.77-6.35c-0.08-2.22,0.56-4.4,1.81-6.23c0.88-1.56,2.52-2.56,4.32-2.62
					c0.96-0.01,1.9,0.3,2.66,0.89c0.9,0.72,1.62,1.64,2.1,2.69v-3.14H262.05z M301.6,609.32l-1.25,1.4
					c-0.6-1.17-1.47-2.17-2.55-2.91c-0.94-0.69-2.08-1.05-3.25-1.03c-1.35-0.03-2.66,0.43-3.69,1.29c-1.16,0.99-2.04,2.26-2.55,3.69
					c-0.64,1.59-0.95,3.3-0.92,5.02c-0.08,2.48,0.63,4.92,2.03,6.97c1.12,1.74,3.06,2.78,5.13,2.77c2.42-0.1,4.59-1.51,5.64-3.69
					l1.25,1.36c-0.71,1.36-1.75,2.51-3.03,3.36c-1.18,0.8-2.59,1.22-4.02,1.18c-2.75-0.01-5.27-1.54-6.53-3.98
					c-1.4-2.49-2.1-5.3-2.03-8.15c-0.1-3.01,0.78-5.98,2.51-8.45c2.19-3.43,6.76-4.44,10.19-2.24c0.03,0.02,0.07,0.04,0.1,0.07
					c1.27,0.97,2.29,2.23,2.95,3.69 M317.39,612.71c-1.36,0.06-2.6,0.83-3.25,2.03c-0.97,1.43-1.46,3.14-1.4,4.87
					c0,1.17,0.21,2.34,0.63,3.43c0.34,0.94,0.91,1.78,1.66,2.43c1.37,1.14,3.35,1.14,4.72,0c0.76-0.65,1.33-1.49,1.66-2.43
					c0.45-1.09,0.67-2.25,0.66-3.43c0.04-1.72-0.44-3.42-1.36-4.87C320.01,613.55,318.77,612.78,317.39,612.71 M317.39,610.61
					c1.92,0.05,3.67,1.14,4.57,2.84c2.26,3.8,2.26,8.53,0,12.32c-0.94,1.64-2.68,2.65-4.57,2.66c-1.85-0.03-3.56-1.03-4.5-2.62
					c-1.14-1.86-1.73-4.01-1.7-6.2c0.01-2.11,0.63-4.17,1.77-5.94c0.87-1.72,2.61-2.82,4.54-2.88 M339.52,612.71
					c-1.36,0.06-2.59,0.83-3.25,2.03c-0.96,1.44-1.44,3.14-1.36,4.87c-0.01,1.17,0.19,2.33,0.59,3.43c0.37,0.92,0.93,1.76,1.66,2.43
					c0.66,0.55,1.5,0.85,2.36,0.85c0.85,0.02,1.68-0.29,2.32-0.85c0.78-0.64,1.37-1.48,1.7-2.43c0.45-1.09,0.67-2.25,0.66-3.43
					c0.04-1.73-0.45-3.43-1.4-4.87C342.13,613.54,340.89,612.78,339.52,612.71 M339.52,610.61c1.92,0.04,3.66,1.13,4.54,2.84
					c1.16,1.83,1.76,3.96,1.7,6.12c0.05,2.19-0.55,4.35-1.73,6.2c-0.93,1.61-2.64,2.62-4.5,2.66c-1.85-0.02-3.55-1.02-4.46-2.62
					c-2.27-3.78-2.27-8.5,0-12.28c0.88-1.71,2.62-2.81,4.54-2.88 M361.99,612.71c-1.39,0.04-2.66,0.79-3.36,1.99
					c-0.92,1.45-1.38,3.15-1.33,4.87c-0.05,1.26,0.15,2.51,0.59,3.69c0.36,0.93,0.96,1.76,1.73,2.4c0.66,0.58,1.51,0.91,2.4,0.92
					c0.86-0.03,1.68-0.35,2.32-0.92c0.78-0.67,1.37-1.54,1.7-2.51c0.46-1.09,0.68-2.25,0.66-3.43c0.02-1.16-0.19-2.32-0.63-3.39
					c-0.35-0.97-0.94-1.84-1.73-2.51c-0.64-0.59-1.49-0.92-2.36-0.92 M355.9,611.23h1.51v3.14c0.47-1.05,1.18-1.97,2.07-2.69
					c0.76-0.58,1.7-0.9,2.66-0.89c1.8,0.06,3.43,1.05,4.32,2.62c1.26,1.83,1.91,4.01,1.84,6.23c0.06,2.25-0.57,4.46-1.81,6.35
					c-0.89,1.55-2.53,2.53-4.32,2.58c-0.94,0.02-1.86-0.27-2.62-0.81c-0.88-0.67-1.61-1.53-2.14-2.51v9.11h-1.51V611.23z
					 M388.48,617.8c-0.14-0.96-0.44-1.9-0.89-2.77c-0.37-0.68-0.91-1.26-1.55-1.7c-1.67-1.1-3.91-0.68-5.05,0.96
					c-0.74,1.11-1.22,2.37-1.4,3.69L388.48,617.8z M388.48,622.38l1.25,0.96c-0.32,1.01-0.8,1.97-1.4,2.84
					c-0.51,0.69-1.16,1.26-1.92,1.66c-0.71,0.39-1.51,0.58-2.32,0.55c-1.91,0.03-3.68-1.01-4.57-2.69c-1.1-1.85-1.67-3.97-1.66-6.12
					c-0.03-2.01,0.45-3.99,1.4-5.76c0.81-1.89,2.66-3.14,4.72-3.17c2.12,0.05,4.01,1.31,4.87,3.25c0.91,1.79,1.36,3.78,1.29,5.79
					h-10.7c-0.04,1.71,0.43,3.39,1.33,4.83c0.65,1.15,1.85,1.87,3.17,1.88c0.61,0.02,1.21-0.13,1.73-0.44
					c0.59-0.28,1.1-0.68,1.51-1.18C387.72,624.03,388.15,623.23,388.48,622.38 M399.77,611.05h1.55v2.62
					c0.35-0.81,0.85-1.55,1.48-2.18c0.42-0.45,1.01-0.71,1.62-0.74c0.5,0.02,0.98,0.23,1.33,0.59l-0.77,1.81
					c-0.25-0.15-0.52-0.25-0.81-0.3c-0.61,0.07-1.17,0.41-1.51,0.92c-0.53,0.84-0.9,1.78-1.07,2.77c-0.23,1.95-0.32,3.91-0.26,5.87
					v5.72h-1.55V611.05z M420.09,612.71c-0.87,0.02-1.71,0.35-2.36,0.92c-0.78,0.67-1.36,1.54-1.7,2.51
					c-0.43,1.08-0.65,2.23-0.63,3.39c0,1.17,0.22,2.33,0.63,3.43c0.34,0.97,0.93,1.83,1.7,2.51c1.37,1.16,3.38,1.16,4.76,0
					c0.77-0.64,1.37-1.46,1.73-2.4c0.44-1.18,0.64-2.43,0.59-3.69c0.06-1.73-0.41-3.43-1.36-4.87c-0.7-1.2-1.97-1.95-3.36-1.99
					 M426.25,610.87v16.93h-1.51v-2.91c-0.54,0.98-1.28,1.84-2.18,2.51c-0.77,0.54-1.68,0.82-2.62,0.81
					c-1.79-0.05-3.43-1.03-4.32-2.58c-1.25-1.87-1.89-4.09-1.81-6.35c-0.08-2.22,0.56-4.4,1.81-6.23c0.91-1.58,2.57-2.57,4.39-2.62
					c0.95,0.01,1.86,0.32,2.62,0.89c0.9,0.72,1.62,1.64,2.1,2.69v-3.14H426.25z M438.32,604.78h1.55v6.27h2.43v1.88h-2.43v15.05
					h-1.55v-15.05h-2.07v-1.88h2.07V604.78z M451.67,611.05h1.51v16.93h-1.51V611.05z M452.45,604.08c0.37,0.02,0.7,0.23,0.89,0.55
					c0.24,0.37,0.35,0.81,0.33,1.25c0.01,0.44-0.1,0.88-0.33,1.25c-0.28,0.5-0.9,0.68-1.4,0.4c-0.17-0.09-0.31-0.23-0.4-0.4
					c-0.23-0.38-0.34-0.81-0.33-1.25c-0.02-0.44,0.1-0.88,0.33-1.25C451.72,604.3,452.06,604.09,452.45,604.08 M462.56,611.05h1.62
					l4.02,12.32l3.95-12.32h1.62l-5.46,16.93h-0.26C468.05,627.98,462.56,611.05,462.56,611.05z M493.43,617.8
					c-0.14-0.96-0.44-1.9-0.89-2.77c-0.35-0.7-0.89-1.28-1.55-1.7c-1.67-1.1-3.91-0.68-5.05,0.96c-0.73,1.11-1.21,2.37-1.4,3.69
					L493.43,617.8z M493.43,622.38l1.29,0.96c-0.34,1.01-0.82,1.97-1.44,2.84c-0.5,0.68-1.15,1.24-1.88,1.66
					c-0.74,0.39-1.56,0.59-2.4,0.55c-1.89,0.01-3.64-1.03-4.54-2.69c-1.09-1.86-1.65-3.97-1.62-6.12c-0.05-2.01,0.43-3.99,1.4-5.76
					c0.81-1.88,2.64-3.12,4.69-3.17c2.12,0.05,4.01,1.31,4.87,3.25c0.93,1.79,1.38,3.78,1.33,5.79h-10.74
					c-0.04,1.71,0.43,3.4,1.36,4.83c0.64,1.14,1.83,1.85,3.14,1.88c0.62,0.02,1.23-0.13,1.77-0.44c0.57-0.29,1.07-0.69,1.48-1.18
					C492.67,624.03,493.11,623.23,493.43,622.38 M518.85,605.11h1.59v22.87h-1.59V605.11z M531.36,611.05h1.55v3.03
					c0.47-1.01,1.16-1.89,2.03-2.58c0.68-0.58,1.54-0.89,2.43-0.89c0.87-0.01,1.71,0.34,2.32,0.96c0.75,0.72,1.3,1.62,1.59,2.62
					c0.39,1.66,0.55,3.36,0.48,5.05v8.74h-1.55v-8.08c0.11-1.3,0.11-2.61,0-3.91c-0.24-0.91-0.75-1.72-1.48-2.32
					c-0.49-0.58-1.23-0.89-1.99-0.85c-0.98,0.04-1.88,0.51-2.47,1.29c-0.76,0.94-1.27,2.06-1.48,3.25c-0.11,1.54-0.11,3.08,0,4.61
					v6.2h-1.44V611.05z M558.14,612.89l-1,1.48c-0.81-1.18-1.59-1.73-2.36-1.73c-0.52,0.01-1,0.27-1.29,0.7
					c-0.37,0.48-0.56,1.06-0.55,1.66c-0.01,0.55,0.14,1.09,0.44,1.55c0.48,0.71,1.11,1.32,1.84,1.77c0.95,0.64,1.74,1.49,2.32,2.47
					c0.92,1.99,0.75,4.32-0.44,6.16c-0.54,0.89-1.51,1.43-2.55,1.44c-0.71,0-1.41-0.22-1.99-0.63c-0.65-0.44-1.19-1.04-1.55-1.73
					l0.96-1.59c0.81,1.29,1.66,1.88,2.51,1.88c0.62,0,1.2-0.3,1.55-0.81c0.44-0.57,0.68-1.27,0.66-1.99
					c0.01-0.58-0.14-1.16-0.44-1.66c-0.53-0.71-1.18-1.32-1.92-1.81c-0.9-0.59-1.65-1.38-2.18-2.32c-0.42-0.81-0.64-1.71-0.63-2.62
					c-0.05-1.14,0.28-2.26,0.96-3.17c0.49-0.82,1.37-1.32,2.32-1.33C556.23,610.8,557.46,611.65,558.14,612.89 M567.95,611.05h1.55
					v7.89c-0.06,1.34,0.02,2.69,0.22,4.02c0.15,0.91,0.59,1.76,1.25,2.4c0.57,0.62,1.37,0.96,2.21,0.96c0.81,0,1.59-0.32,2.18-0.89
					c0.6-0.66,1.03-1.46,1.25-2.32c0.17-1.38,0.25-2.78,0.22-4.17v-7.89h1.55v8.3c0.07,1.78-0.12,3.56-0.59,5.28
					c-0.3,1.06-0.88,2.02-1.7,2.77c-0.81,0.69-1.85,1.04-2.91,1c-1.06,0.05-2.11-0.3-2.91-1c-0.83-0.75-1.43-1.72-1.73-2.8
					c-0.47-1.76-0.67-3.57-0.59-5.39L567.95,611.05z M588.5,611.05h1.59v2.62c0.35-0.81,0.85-1.55,1.48-2.18
					c0.41-0.44,0.98-0.71,1.59-0.74c0.52,0.02,1.02,0.23,1.4,0.59l-0.85,1.81c-0.24-0.15-0.5-0.25-0.77-0.3
					c-0.61,0.07-1.15,0.41-1.48,0.92c-0.58,0.82-0.95,1.77-1.07,2.77c-0.25,1.94-0.35,3.91-0.3,5.87v5.72h-1.59L588.5,611.05z
					 M608.83,612.71c-0.88,0.01-1.73,0.34-2.4,0.92c-0.77,0.68-1.35,1.54-1.7,2.51c-0.43,1.08-0.65,2.23-0.66,3.39
					c0.02,1.17,0.24,2.34,0.66,3.43c0.37,0.96,0.96,1.82,1.73,2.51c0.64,0.57,1.47,0.89,2.32,0.92c0.88-0.01,1.73-0.34,2.4-0.92
					c0.77-0.64,1.37-1.46,1.73-2.4c0.45-1.18,0.66-2.43,0.63-3.69c0.05-1.73-0.44-3.43-1.4-4.87c-0.68-1.2-1.94-1.96-3.32-1.99
					 M614.95,610.87v16.93h-1.55v-2.91c-0.51,0.99-1.25,1.84-2.14,2.51c-0.76,0.54-1.68,0.83-2.62,0.81
					c-1.79-0.05-3.43-1.03-4.32-2.58c-1.25-1.87-1.89-4.09-1.81-6.35c-0.08-2.22,0.56-4.4,1.81-6.23c0.91-1.56,2.55-2.54,4.35-2.62
					c0.96-0.01,1.9,0.3,2.66,0.89c0.9,0.71,1.61,1.64,2.07,2.69v-3.14H614.95z M625.76,611.05h1.51v3.03
					c0.49-0.99,1.18-1.87,2.03-2.58c0.7-0.57,1.57-0.88,2.47-0.89c0.88,0,1.73,0.35,2.36,0.96c0.73,0.72,1.25,1.63,1.51,2.62
					c0.4,1.65,0.58,3.35,0.52,5.05v8.74h-1.51v-8.08c0.05-1.31-0.01-2.61-0.18-3.91c-0.08-0.92-0.44-1.8-1.03-2.51
					c-0.46-0.58-1.18-0.89-1.92-0.85c-0.99,0.02-1.92,0.5-2.51,1.29c-0.76,0.94-1.27,2.06-1.48,3.25c-0.17,1.53-0.24,3.07-0.22,4.61
					v6.2h-1.51L625.76,611.05z M658.3,614.55l-1.22,1.11c-0.71-1.77-2.41-2.95-4.32-2.99c-1.48-0.03-2.88,0.71-3.69,1.96
					c-1,1.42-1.51,3.13-1.44,4.87c0,1.19,0.22,2.37,0.66,3.47c0.34,0.99,0.97,1.87,1.81,2.51c0.73,0.61,1.66,0.94,2.62,0.92
					c1.87-0.09,3.53-1.25,4.24-2.99l1.22,1.18c-0.5,1.13-1.31,2.1-2.32,2.8c-0.94,0.68-2.08,1.03-3.25,1
					c-1.89,0.01-3.65-0.93-4.69-2.51c-1.28-1.82-1.94-4.01-1.88-6.23c-0.01-1.55,0.28-3.09,0.85-4.54c0.54-1.28,1.37-2.42,2.43-3.32
					c0.97-0.76,2.16-1.18,3.39-1.18c0.8,0,1.58,0.19,2.29,0.55c0.71,0.3,1.35,0.74,1.88,1.29c0.53,0.64,0.96,1.35,1.29,2.1
					 M678.59,617.8c-0.15-0.97-0.47-1.9-0.92-2.77c-0.35-0.7-0.89-1.28-1.55-1.7c-0.6-0.4-1.31-0.62-2.03-0.63
					c-1.19,0.01-2.31,0.61-2.99,1.59c-0.78,1.09-1.26,2.36-1.4,3.69L678.59,617.8z M678.59,622.38l1.29,0.96
					c-0.35,1.02-0.84,1.97-1.48,2.84c-0.5,0.69-1.14,1.25-1.88,1.66c-0.72,0.39-1.54,0.58-2.36,0.55c-1.9,0.02-3.64-1.02-4.54-2.69
					c-1.11-1.85-1.69-3.97-1.66-6.12c-0.02-2,0.44-3.98,1.36-5.76c0.83-1.89,2.69-3.13,4.76-3.17c2.1,0.05,3.99,1.32,4.83,3.25
					c0.94,1.78,1.4,3.78,1.33,5.79h-10.7c-0.05,1.7,0.4,3.38,1.29,4.83c0.65,1.15,1.85,1.87,3.17,1.88
					c0.62,0.02,1.23-0.13,1.77-0.44c0.57-0.29,1.07-0.69,1.48-1.18C677.79,624.03,678.24,623.22,678.59,622.38 M719.21,609.32
					l-1.33,1.4c-0.55-1.17-1.41-2.18-2.47-2.91c-0.95-0.68-2.08-1.04-3.25-1.03c-1.35-0.03-2.66,0.43-3.69,1.29
					c-1.17,0.97-2.05,2.25-2.55,3.69c-0.64,1.59-0.95,3.3-0.92,5.02c-0.09,2.48,0.61,4.92,1.99,6.97c1.12,1.73,3.03,2.77,5.09,2.77
					c2.42-0.08,4.6-1.5,5.64-3.69l1.33,1.36c-0.72,1.36-1.77,2.52-3.06,3.36c-1.17,0.67-2.52,0.98-3.87,0.89
					c-2.79,0.03-5.36-1.51-6.64-3.98c-1.46-2.46-2.19-5.29-2.1-8.15c-0.1-3.01,0.78-5.98,2.51-8.45c1.36-2.12,3.71-3.4,6.23-3.39
					c1.43-0.02,2.84,0.41,4.02,1.22c1.3,0.96,2.33,2.23,3.03,3.69 M735.11,612.71c-1.37,0.07-2.61,0.83-3.28,2.03
					c-0.94,1.44-1.42,3.14-1.36,4.87c-0.02,1.17,0.19,2.34,0.63,3.43c0.34,0.94,0.91,1.78,1.66,2.43c0.66,0.55,1.5,0.85,2.36,0.85
					c0.85,0.02,1.68-0.29,2.32-0.85c0.76-0.66,1.34-1.49,1.7-2.43c0.43-1.09,0.65-2.26,0.66-3.43c0.04-1.73-0.45-3.43-1.4-4.87
					C737.71,613.55,736.48,612.78,735.11,612.71 M735.11,610.61c1.92,0.06,3.67,1.14,4.57,2.84c1.11,1.85,1.67,3.97,1.62,6.12
					c0.05,2.19-0.55,4.35-1.73,6.2c-1.39,2.47-4.52,3.33-6.99,1.94c-0.81-0.46-1.48-1.13-1.94-1.94c-1.19-1.84-1.81-4-1.77-6.2
					c0.02-2.08,0.61-4.13,1.7-5.9c0.9-1.72,2.67-2.82,4.61-2.88 M751.45,611.05h1.48v2.91c0.42-0.87,0.98-1.67,1.66-2.36
					c0.67-0.63,1.55-0.98,2.47-1c0.59,0.01,1.17,0.19,1.66,0.52c0.51,0.31,0.94,0.74,1.25,1.25c0.4,0.71,0.68,1.49,0.85,2.29
					c0.4-1.14,1.05-2.18,1.92-3.03c0.67-0.64,1.55-1.01,2.47-1.03c0.81,0,1.6,0.32,2.18,0.89c0.68,0.68,1.16,1.54,1.4,2.47
					c0.36,1.56,0.52,3.16,0.48,4.76v9.26h-1.59v-9.26c0.06-1.24-0.04-2.48-0.3-3.69c-0.15-0.62-0.45-1.19-0.89-1.66
					c-0.45-0.4-1.02-0.63-1.62-0.63c-0.78,0.03-1.51,0.37-2.03,0.96c-0.66,0.69-1.11,1.54-1.33,2.47c-0.38,1.71-0.54,3.45-0.48,5.2
					v6.64h-1.48v-8.67c0.05-1.4-0.05-2.79-0.3-4.17c-0.11-0.66-0.43-1.27-0.92-1.73c-0.4-0.43-0.96-0.69-1.55-0.7
					c-0.77,0.03-1.5,0.36-2.03,0.92c-0.63,0.71-1.1,1.56-1.36,2.47c-0.37,1.55-0.53,3.13-0.48,4.72v7.16h-1.48L751.45,611.05z
					 M785.91,612.71c-1.38,0.03-2.64,0.79-3.32,1.99c-0.98,1.43-1.47,3.14-1.4,4.87c-0.03,1.26,0.17,2.51,0.59,3.69
					c0.36,0.94,0.97,1.77,1.77,2.4c0.66,0.58,1.51,0.91,2.4,0.92c0.86-0.03,1.68-0.35,2.32-0.92c0.77-0.68,1.35-1.54,1.7-2.51
					c0.43-1.09,0.64-2.26,0.63-3.43c0.02-1.16-0.19-2.32-0.63-3.39c-0.33-0.97-0.92-1.84-1.7-2.51c-0.65-0.58-1.49-0.9-2.36-0.92
					 M779.75,611.23h1.59v3.14c0.46-1.04,1.15-1.96,2.03-2.69c0.77-0.57,1.7-0.89,2.66-0.89c1.8,0.07,3.45,1.06,4.35,2.62
					c1.25,1.83,1.88,4.02,1.81,6.23c0.07,2.25-0.55,4.46-1.77,6.35c-0.91,1.55-2.55,2.53-4.35,2.58c-0.94,0.01-1.85-0.28-2.62-0.81
					c-0.88-0.67-1.6-1.53-2.1-2.51v9.11h-1.59V611.23z M808.04,612.71c-0.88,0-1.72,0.33-2.36,0.92c-0.79,0.67-1.39,1.53-1.73,2.51
					c-0.43,1.08-0.65,2.23-0.63,3.39c0,1.17,0.22,2.33,0.63,3.43c0.37,0.97,0.98,1.84,1.77,2.51c0.63,0.59,1.46,0.91,2.32,0.92
					c0.87-0.02,1.71-0.35,2.36-0.92c0.79-0.63,1.4-1.46,1.77-2.4c0.42-1.18,0.62-2.43,0.59-3.69c0.04-1.72-0.43-3.42-1.36-4.87
					c-0.7-1.2-1.97-1.95-3.36-1.99 M814.17,610.87v16.93h-1.51v-2.91c-0.54,0.97-1.26,1.83-2.14,2.51
					c-0.77,0.53-1.68,0.81-2.62,0.81c-1.8-0.06-3.44-1.03-4.35-2.58c-1.22-1.89-1.84-4.1-1.77-6.35c-0.08-2.22,0.56-4.4,1.81-6.23
					c0.91-1.56,2.55-2.55,4.35-2.62c0.96,0,1.89,0.31,2.66,0.89c0.9,0.71,1.61,1.64,2.07,2.69v-3.14H814.17z M824.97,611.05h1.51
					v3.03c0.46-1,1.14-1.88,1.99-2.58c0.69-0.57,1.55-0.88,2.43-0.89c0.88-0.01,1.73,0.34,2.36,0.96c0.74,0.72,1.28,1.62,1.55,2.62
					c0.39,1.66,0.55,3.36,0.48,5.05v8.74h-1.44v-8.08c0.1-1.3,0.1-2.61,0-3.91c-0.11-0.91-0.47-1.78-1.03-2.51
					c-0.49-0.57-1.21-0.88-1.96-0.85c-0.99,0.03-1.91,0.5-2.51,1.29c-0.76,0.93-1.26,2.05-1.44,3.25c-0.11,1.54-0.11,3.08,0,4.61
					v6.2h-1.59L824.97,611.05z M844.71,611.05h1.62l4.06,13.02l3.98-13.02H856l-7.08,23.13h-1.62l2.29-7.49L844.71,611.05z"/>
			</g>
		</g>
	</g>
</g>
</svg>
