<svg xmlns="http://www.w3.org/2000/svg" width="84" height="35" viewBox="0 0 84 35" fill="none">
<path d="M64.2715 29.2511C64.0266 29.2463 63.7852 29.3123 63.5765 29.4412C63.3789 29.5635 63.2151 29.7336 63.0999 29.936V27.6254H62.2318V33.331H63.0978V31.2812C63.0744 30.9638 63.1704 30.6492 63.367 30.3997C63.455 30.3062 63.5612 30.2317 63.6788 30.1807C63.7964 30.1298 63.923 30.1036 64.0511 30.1036C64.1791 30.1036 64.3057 30.1298 64.4233 30.1807C64.5409 30.2317 64.6472 30.3062 64.7351 30.3997C64.9321 30.649 65.0281 30.9638 65.0043 31.2812V33.331H65.8697V31.2812C65.9096 30.7381 65.7548 30.1986 65.4336 29.7601C65.2905 29.5918 65.112 29.4583 64.9103 29.3696C64.7086 29.2808 64.4895 29.2391 64.2695 29.2476M67.6698 9.91397H67.1073C67.0697 9.91429 67.032 9.90665 66.9974 9.89155C66.9629 9.87645 66.9322 9.85423 66.9068 9.82632C66.8796 9.79829 66.8579 9.76511 66.8436 9.72871C66.8292 9.69231 66.8223 9.65343 66.823 9.61428C66.8223 9.57724 66.8292 9.54047 66.8436 9.50638C66.858 9.47228 66.8798 9.44162 66.9068 9.41636C66.9333 9.39045 66.9644 9.37006 66.9988 9.35635C67.0332 9.34264 67.0703 9.33589 67.1073 9.33648C67.1557 9.33568 67.2034 9.34573 67.2474 9.36591C67.2915 9.38608 67.3303 9.41586 67.3614 9.4531L67.5943 9.22692C67.5326 9.15329 67.4558 9.09412 67.369 9.05358C67.2821 9.01304 67.1873 8.99211 67.0915 8.99225C67.0126 8.99029 66.9343 9.00416 66.8608 9.03304C66.7872 9.06193 66.7197 9.10525 66.663 9.16048C66.6067 9.21256 66.562 9.27599 66.5318 9.34664C66.5016 9.41729 66.4866 9.49357 66.4878 9.57044C66.4892 9.69574 66.5333 9.81687 66.6121 9.91397H66.3134V10.2674H67.6677L67.6698 9.91397ZM62.9728 20.1957H62.1074V22.2456C62.1312 22.563 62.0352 22.8777 61.8382 23.127C61.7503 23.2207 61.6441 23.2953 61.5264 23.3463C61.4088 23.3973 61.2816 23.4236 61.1535 23.4236C61.0253 23.4236 60.8989 23.3973 60.7812 23.3463C60.6636 23.2953 60.5574 23.2207 60.4694 23.127C60.2734 22.8773 60.1777 22.5628 60.2009 22.2456V20.1957H59.3349V22.2456C59.2941 22.7902 59.4491 23.3314 59.7717 23.7709C59.9163 23.9388 60.0969 24.0717 60.2998 24.1597C60.5027 24.2477 60.7226 24.2885 60.9433 24.2792C61.1919 24.2829 61.4362 24.2142 61.6466 24.0813C61.8483 23.9541 62.015 23.7778 62.1308 23.5688L62.1809 24.2198H62.9749L62.9728 20.1957ZM65.753 20.1738C65.5144 20.1568 65.2761 20.2074 65.0648 20.3199C64.8534 20.4323 64.678 20.6021 64.5579 20.81L64.4996 20.195H63.7091V24.2184H64.5751V22.4513C64.5567 22.2545 64.5785 22.0561 64.639 21.8681C64.6994 21.6801 64.7973 21.5065 64.9267 21.3578C65.1674 21.1328 65.4876 21.013 65.8161 21.0248C65.8631 21.0241 65.9096 21.0264 65.9562 21.0319L66.1307 20.1979C66.0195 20.1828 65.9077 20.1755 65.7955 20.1759L65.753 20.1738ZM60.9495 32.5606C60.8532 32.5663 60.7573 32.5502 60.6679 32.5135C60.5786 32.4768 60.4985 32.4204 60.4337 32.3485C60.3008 32.1698 60.2363 31.9491 60.2517 31.7265V30.0803H61.1906V29.3027H60.2517V27.9859H59.5313L59.4145 29.3027H58.852V30.0803H59.3836V31.7413C59.3643 31.9675 59.3899 32.1952 59.4592 32.4113C59.5285 32.6273 59.6404 32.8273 59.7875 32.9995C59.9242 33.1337 60.0865 33.2385 60.2648 33.3077C60.4431 33.3768 60.6335 33.4088 60.8245 33.4017C61.041 33.4038 61.2562 33.3639 61.4577 33.2844L61.2387 32.5068C61.145 32.5398 61.0466 32.5572 60.9475 32.5584M54.9435 24.2177V22.1678C54.9831 21.6247 54.8288 21.0852 54.5074 20.6467C54.3644 20.4784 54.1851 20.3449 53.9834 20.2561C53.7816 20.1674 53.5626 20.1257 53.3426 20.1342C53.0907 20.1287 52.843 20.1975 52.6297 20.3322C52.4294 20.46 52.2636 20.6362 52.1482 20.8446L52.0974 20.1929H51.3042V24.2163H52.175V22.1664C52.1513 21.849 52.2473 21.5343 52.4442 21.285C52.5322 21.1915 52.6385 21.1169 52.7561 21.066C52.8737 21.015 53.0002 20.9888 53.1283 20.9888C53.2564 20.9888 53.3829 21.015 53.5005 21.066C53.6181 21.1169 53.7244 21.1915 53.8123 21.285C54.0092 21.5343 54.1053 21.849 54.0816 22.1664V24.2163L54.9435 24.2177ZM67.564 21.3465C67.6729 21.2323 67.8041 21.142 67.9493 21.0812C68.0946 21.0204 68.2508 20.9904 68.4081 20.9931C68.7276 20.9931 69.0338 21.1206 69.2597 21.3477C69.4857 21.5748 69.6127 21.8828 69.6127 22.2039C69.6127 22.525 69.4857 22.833 69.2597 23.06C69.0338 23.2871 68.7276 23.4147 68.4081 23.4147C68.2504 23.4172 68.0939 23.3865 67.9486 23.3248C67.8033 23.2631 67.6722 23.1717 67.564 23.0563C67.4507 22.9467 67.3615 22.8148 67.301 22.6689C67.2405 22.523 67.2101 22.3662 67.2124 22.2081C67.2097 22.0483 67.2398 21.8897 67.3003 21.7419C67.3608 21.5941 67.4503 21.4603 67.564 21.3486M68.2549 24.2714C68.5447 24.2731 68.8294 24.1946 69.0777 24.0445C69.3158 23.909 69.5107 23.7086 69.6402 23.4663L69.691 24.2198H70.4843V20.1964H69.691L69.6402 20.957C69.5118 20.7113 69.3168 20.5071 69.0777 20.3682C68.8301 20.216 68.5452 20.1362 68.2549 20.1378C67.9991 20.1352 67.7455 20.1881 67.5118 20.2929C67.2782 20.3977 67.0702 20.5519 66.9013 20.7449C66.5371 21.1428 66.3347 21.6636 66.3347 22.2042C66.3347 22.7448 66.5371 23.2657 66.9013 23.6635C67.0711 23.8565 67.2797 24.0105 67.5139 24.1153C67.7481 24.22 68.0021 24.273 68.2584 24.2707M57.9963 21.9261C57.7623 21.8466 57.5235 21.7805 57.282 21.7282C57.0761 21.6864 56.8746 21.6266 56.679 21.5493C56.5138 21.4786 56.4311 21.3931 56.4311 21.2857C56.4325 21.226 56.4511 21.1679 56.4847 21.1186C56.5182 21.0693 56.5658 21.0308 56.6206 21.0079C56.7772 20.933 56.9495 20.8978 57.1227 20.9054C57.3282 20.9066 57.5318 20.9413 57.7264 21.0079C57.9115 21.0642 58.0781 21.1706 58.2071 21.3154L58.7312 20.7888C58.5272 20.5612 58.2745 20.383 57.9922 20.2677C57.7098 20.1523 57.4048 20.1028 57.1007 20.1229C56.7044 20.1033 56.3129 20.2165 55.9874 20.4445C55.8724 20.532 55.7766 20.642 55.7051 20.7679C55.6337 20.8938 55.5883 21.033 55.5719 21.177C55.5555 21.321 55.5683 21.4668 55.6097 21.6057C55.651 21.7445 55.7199 21.8735 55.8123 21.9848C55.9758 22.1663 56.1845 22.3012 56.4167 22.3756C56.6497 22.4526 56.8864 22.5175 57.1261 22.57C57.3321 22.6118 57.5329 22.6743 57.7264 22.7566C57.8914 22.8297 57.9743 22.9272 57.9743 23.0493C57.9755 23.117 57.9575 23.1836 57.9221 23.2413C57.8867 23.2989 57.8353 23.3452 57.7745 23.3744C57.6062 23.4577 57.4199 23.4966 57.2326 23.4875C57.0002 23.4869 56.7692 23.445 56.5513 23.3638C56.3505 23.2962 56.1679 23.1836 56.017 23.0344L55.427 23.6048C55.6535 23.8444 55.9344 24.0251 56.2457 24.1314C56.5614 24.2465 56.8947 24.306 57.2305 24.3075C57.6396 24.3226 58.0429 24.2086 58.3843 23.9816C58.5357 23.8751 58.6572 23.7317 58.738 23.5647C58.8189 23.3977 58.8566 23.2128 58.8465 23.0273C58.8553 22.7702 58.7662 22.5193 58.5979 22.3255C58.4353 22.1414 58.2275 22.0038 57.9949 21.9268M57.2958 31.3547C57.3194 31.672 57.2236 31.9866 57.0272 32.2361C56.9392 32.3297 56.8331 32.4042 56.7154 32.4552C56.5978 32.5061 56.4706 32.5324 56.3425 32.5324C56.2144 32.5324 56.0879 32.5061 55.9703 32.4552C55.8526 32.4042 55.7465 32.3297 55.6584 32.2361C55.4622 31.9865 55.3662 31.672 55.3892 31.3547V29.3048H54.5232V31.3547C54.4824 31.8993 54.6374 32.4406 54.96 32.8801C55.1047 33.0478 55.2853 33.1806 55.4881 33.2686C55.691 33.3566 55.9109 33.3975 56.1316 33.3883C56.3801 33.3924 56.6244 33.3239 56.8349 33.1911C57.0366 33.064 57.2034 32.8877 57.3191 32.6786L57.3699 33.3296H58.1632V29.3062H57.2971L57.2958 31.3547ZM81.2127 32.0425L80.1784 29.307H79.2512L80.8233 33.2271C80.6001 33.8567 80.2948 34.1712 79.9085 34.1708C79.7458 34.1721 79.5848 34.1396 79.4353 34.0753L79.188 34.8528C79.4283 34.951 79.6855 35.0007 79.9449 34.9992C80.1308 35.0044 80.3159 34.9724 80.4895 34.9052C80.6631 34.838 80.8214 34.7368 80.9558 34.6076C81.2905 34.241 81.5413 33.8053 81.6907 33.331L83.1543 29.3077H82.2401L81.2127 32.0425ZM78.3014 32.562C78.2049 32.5677 78.1079 32.5517 78.0184 32.515C77.929 32.4783 77.8491 32.4219 77.7842 32.3499C77.6514 32.1712 77.5872 31.9504 77.6029 31.7279V30.0816H78.5411V29.3041H77.6029V27.9873H76.8818L76.765 29.3041H76.2025V30.0816H76.7341V31.7427C76.7148 31.9689 76.7403 32.1966 76.8097 32.4127C76.879 32.6287 76.9908 32.8287 77.1379 33.0009C77.2748 33.135 77.437 33.2399 77.6153 33.309C77.7936 33.3781 77.984 33.4102 78.175 33.4031C78.3915 33.4052 78.6067 33.3653 78.8082 33.2858L78.5898 32.5083C78.4962 32.5411 78.3985 32.5585 78.2993 32.5599M77.3598 23.3921C77.1606 23.3882 76.9656 23.3336 76.7932 23.2333C76.6207 23.1329 76.4767 22.9902 76.3742 22.8184C76.2717 22.6467 76.2143 22.4516 76.2073 22.2515C76.2004 22.0513 76.244 21.8527 76.3344 21.6742C76.4248 21.4958 76.5594 21.3433 76.7245 21.2312C76.8896 21.1191 77.0803 21.051 77.2787 21.0333C77.4772 21.0155 77.6769 21.0488 77.8591 21.1299C78.0413 21.211 78.1996 21.3374 78.3199 21.497L79.0411 21.0142C78.8484 20.7476 78.5966 20.5298 78.3055 20.3781C78.0142 20.2228 77.6888 20.1422 77.3591 20.1434C76.8137 20.1434 76.2908 20.3612 75.9052 20.7488C75.5195 21.1364 75.3028 21.6621 75.3028 22.2102C75.3028 22.7584 75.5195 23.2841 75.9052 23.6717C76.2908 24.0593 76.8137 24.277 77.3591 24.277C77.6971 24.2785 78.0299 24.1941 78.3268 24.0318C78.6216 23.8737 78.872 23.6435 79.0548 23.3624L78.3412 22.8796C78.2344 23.0425 78.0878 23.1752 77.9154 23.2649C77.743 23.3546 77.5504 23.3984 77.3563 23.3921M80.2677 21.878C80.2805 21.7515 80.3179 21.6288 80.3782 21.5171C80.4386 21.4053 80.5207 21.3067 80.6193 21.227C80.8322 21.0451 81.1044 20.9486 81.3837 20.9563C81.668 20.9474 81.9453 21.0423 82.1653 21.2235C82.2649 21.303 82.348 21.4021 82.4084 21.5146C82.4688 21.6271 82.5054 21.7507 82.5169 21.878H80.2677ZM83.4118 22.2074C83.4166 21.9368 83.3668 21.6679 83.2655 21.4171C83.1643 21.1662 83.0136 20.9386 82.8225 20.7478C82.6332 20.5563 82.4079 20.4043 82.1598 20.3007C81.9117 20.1972 81.6455 20.144 81.3768 20.1443C81.1082 20.1446 80.8425 20.1985 80.5946 20.3026C80.3467 20.4068 80.1214 20.5593 79.9325 20.7513C79.7404 20.9408 79.5886 21.1674 79.4861 21.4176C79.3836 21.6677 79.3327 21.9362 79.3364 22.2067C79.3318 22.4804 79.3837 22.752 79.4888 23.0044C79.594 23.2569 79.7504 23.4847 79.9476 23.6734C80.1477 23.8718 80.3854 24.0275 80.6468 24.1313C80.9082 24.235 81.1879 24.2846 81.4689 24.277C81.8061 24.2766 82.1388 24.2018 82.4441 24.0579C82.7411 23.9259 83.0011 23.7222 83.201 23.4649L82.5094 23.0259C82.3786 23.1712 82.218 23.2858 82.0382 23.3617C81.8585 23.4375 81.6643 23.4728 81.4696 23.4649C81.1869 23.4708 80.9101 23.3821 80.6832 23.2126C80.4702 23.0604 80.3222 22.8333 80.2684 22.5764H83.3905C83.4053 22.3424 83.4118 22.218 83.4118 22.2032M50.9175 31.2303L51.594 29.2511L52.2856 31.2303H50.9175ZM51.0995 27.9901L49.2143 33.3303H50.2252L50.6551 32.0941H52.5397L52.9696 33.3303H53.9813L52.096 27.9901H51.0995ZM75.0817 27.8947C75.0134 27.8941 74.9452 27.9079 74.8825 27.935C74.8198 27.9621 74.7635 28.0021 74.717 28.0523C74.6682 28.1004 74.6299 28.1578 74.6037 28.2212C74.5775 28.2846 74.564 28.3526 74.5645 28.4213C74.5645 28.559 74.6188 28.691 74.7156 28.7884C74.8125 28.8858 74.944 28.9404 75.081 28.9404C75.218 28.9404 75.3495 28.8858 75.4464 28.7884C75.5432 28.691 75.5975 28.559 75.5975 28.4213C75.598 28.3526 75.5852 28.2846 75.559 28.2212C75.5328 28.1578 75.4938 28.1004 75.445 28.0523C75.3985 28.0021 75.3422 27.9621 75.2795 27.935C75.2168 27.9079 75.15 27.8941 75.0817 27.8947ZM73.5597 29.2843C73.3212 29.2674 73.0822 29.318 72.8709 29.4305C72.6596 29.5429 72.4842 29.7127 72.364 29.9205L72.3057 29.3062H71.5152V33.3296H72.3812V31.5625C72.3629 31.3658 72.3839 31.1674 72.4444 30.9794C72.5049 30.7914 72.6034 30.6177 72.7328 30.469C72.9733 30.2441 73.2926 30.1243 73.6209 30.1361C73.6679 30.1353 73.715 30.1377 73.7617 30.1432L73.9361 29.3091C73.825 29.2937 73.7125 29.2864 73.6003 29.2872L73.5597 29.2843ZM74.6442 33.3296H75.5096V29.3062H74.6442V33.3296ZM69.4919 32.1555C69.2713 32.3778 68.9718 32.5029 68.6595 32.5033C68.3472 32.5037 68.0475 32.3793 67.8264 32.1576C67.6053 31.936 67.4806 31.6351 67.4802 31.3212C67.4798 31.0073 67.6038 30.7061 67.8243 30.4839C68.0449 30.2616 68.3444 30.1365 68.6567 30.1361C68.969 30.1357 69.2687 30.2601 69.4898 30.4817C69.7109 30.7034 69.8356 31.0043 69.8359 31.3182C69.8363 31.6321 69.7124 31.9333 69.4919 32.1555ZM68.6615 29.2575C68.1837 29.2551 67.7197 29.4195 67.3491 29.7226C66.9784 30.0257 66.7235 30.4487 66.6286 30.9194C66.5337 31.3901 66.6045 31.8792 66.8285 32.3035C67.0525 32.7277 67.4163 33.0606 67.8573 33.2455C68.2983 33.4303 68.7892 33.4556 69.2467 33.317C69.7042 33.1784 70.0996 32.8845 70.3655 32.4854C70.6314 32.0864 70.7514 31.607 70.7047 31.129C70.6581 30.6511 70.4479 30.2042 70.11 29.8647C69.9224 29.6696 69.697 29.5151 69.4479 29.4107C69.1988 29.3063 68.9314 29.2542 68.6615 29.2575ZM74.8619 24.2226V22.1728C74.9015 21.6296 74.7465 21.0901 74.4251 20.6516C74.2822 20.4833 74.1035 20.3497 73.9018 20.261C73.7001 20.1722 73.481 20.1306 73.261 20.1392C73.0092 20.1338 72.7608 20.2026 72.5474 20.3371C72.3471 20.4648 72.1822 20.641 72.0673 20.8496L72.0165 20.1979H71.2233V24.2212H72.0886V22.1714C72.0656 21.854 72.1616 21.5395 72.3579 21.2899C72.4459 21.1964 72.552 21.1218 72.6697 21.0709C72.7873 21.0199 72.9138 20.9937 73.0419 20.9937C73.17 20.9937 73.2972 21.0199 73.4148 21.0709C73.5325 21.1218 73.6379 21.1964 73.726 21.2899C73.9222 21.5395 74.0189 21.854 73.9959 22.1714V24.2212L74.8619 24.2226ZM54.5767 15.5058C54.5315 15.5492 54.4959 15.6014 54.4717 15.6593C54.4475 15.7172 54.4351 15.7795 54.436 15.8423C54.4353 15.9062 54.4475 15.9696 54.4717 16.0287C54.4958 16.0879 54.5316 16.1415 54.5767 16.1865C54.6199 16.2332 54.6723 16.2704 54.7306 16.2956C54.7888 16.3208 54.8519 16.3335 54.9153 16.3328C54.9792 16.333 55.042 16.3202 55.1008 16.295C55.1595 16.2698 55.2126 16.2329 55.2567 16.1865C55.3015 16.1413 55.3369 16.0876 55.3611 16.0285C55.3852 15.9694 55.3977 15.9061 55.3975 15.8423C55.3964 15.7146 55.3451 15.5924 55.2553 15.5021C55.1655 15.4118 55.0444 15.3606 54.9174 15.3595C54.8534 15.3582 54.7895 15.3706 54.7306 15.3958C54.6717 15.421 54.6188 15.4585 54.5754 15.5058M70.0908 7.26472C70.1356 7.21961 70.1717 7.16604 70.1958 7.10708C70.22 7.04812 70.2318 6.98495 70.2315 6.9212C70.2303 6.79344 70.1793 6.67128 70.0894 6.581C69.9994 6.49072 69.8779 6.43952 69.7508 6.43842C69.6237 6.43934 69.5021 6.49049 69.4122 6.58083C69.3223 6.67117 69.271 6.79345 69.27 6.9212C69.2693 6.98502 69.2816 7.04832 69.3057 7.10734C69.3299 7.16636 69.3656 7.2199 69.4108 7.26472C69.454 7.31139 69.5064 7.34849 69.5647 7.37368C69.6229 7.39887 69.686 7.4116 69.7494 7.41104C69.8133 7.41145 69.8767 7.39867 69.9355 7.37351C69.9943 7.34834 70.0468 7.31132 70.0908 7.26472ZM66.4555 10.5685V13.3188C66.4382 13.7134 66.5725 14.0996 66.8305 14.3975C66.955 14.5341 67.1076 14.6418 67.2776 14.7132C67.4477 14.7846 67.6313 14.818 67.8154 14.811H72.8297C72.939 14.6656 73.0802 14.5477 73.2424 14.4665C73.4047 14.3853 73.5838 14.343 73.7651 14.343C73.9464 14.343 74.1248 14.3853 74.2871 14.4665C74.4494 14.5477 74.5912 14.6656 74.7005 14.811H79.7436C79.9279 14.8186 80.1113 14.7856 80.2814 14.7141C80.4515 14.6427 80.6038 14.5346 80.7278 14.3975C80.9836 14.0985 81.1166 13.7128 81.0994 13.3188V9.10604H80.2478V13.3195C80.2478 13.7488 80.0803 13.9632 79.745 13.9628H74.7019C74.6297 13.967 74.5576 13.9536 74.4917 13.9237C74.4258 13.8938 74.368 13.8483 74.3235 13.791C74.2287 13.6529 74.182 13.487 74.1916 13.3195V11.1559H73.3482V13.3217C73.3578 13.4892 73.3111 13.6551 73.2164 13.7931C73.1707 13.851 73.1118 13.8968 73.0447 13.9267C72.9775 13.9567 72.9043 13.9698 72.8311 13.9649H67.8168C67.4769 13.9649 67.3065 13.7505 67.3065 13.3217V10.5713L66.4555 10.5685ZM71.3785 7.26472C71.4248 7.22044 71.462 7.16712 71.487 7.10805C71.512 7.04898 71.5244 6.98541 71.5241 6.9212C71.5247 6.85748 71.5121 6.79431 71.487 6.73578C71.4619 6.67724 71.4249 6.6246 71.3785 6.5812C71.3349 6.53636 71.2828 6.50075 71.2253 6.47647C71.1678 6.45219 71.1064 6.43974 71.044 6.43984C70.9803 6.43831 70.9169 6.45006 70.8579 6.4744C70.7989 6.49873 70.7456 6.5351 70.7013 6.5812C70.6122 6.67269 70.5632 6.79583 70.5639 6.92383C70.5647 7.05183 70.6152 7.17435 70.7054 7.26472C70.7486 7.31146 70.801 7.34861 70.8593 7.37381C70.9175 7.399 70.9806 7.41169 71.044 7.41104C71.1068 7.41086 71.1691 7.39778 71.2267 7.37262C71.2843 7.34746 71.3356 7.31075 71.3785 7.26472ZM51.9484 1.86656C52.0113 1.86709 52.0736 1.85482 52.1318 1.83053C52.1899 1.80624 52.243 1.77041 52.287 1.72518C52.3316 1.68025 52.3672 1.62693 52.3914 1.56825C52.4155 1.50957 52.4278 1.44667 52.4278 1.38317C52.4277 1.31966 52.4149 1.25679 52.3907 1.19813C52.3665 1.13947 52.331 1.08619 52.2863 1.04131C52.2416 0.996427 52.1888 0.96083 52.1304 0.936558C52.072 0.912287 52.0095 0.899811 51.9463 0.899844C51.8831 0.899877 51.8206 0.91242 51.7623 0.936752C51.7039 0.961084 51.651 0.996726 51.6064 1.04165C51.5388 1.10911 51.4924 1.19527 51.4738 1.28912C51.4552 1.38297 51.4653 1.48025 51.502 1.56855C51.5386 1.65685 51.6004 1.73217 51.6798 1.78487C51.7593 1.83757 51.8525 1.86526 51.9477 1.86442M73.4684 10.6392C73.5149 10.5966 73.5518 10.5446 73.5769 10.4866C73.602 10.4286 73.6147 10.366 73.614 10.3027C73.6145 10.239 73.6013 10.1759 73.5762 10.1174C73.5512 10.0589 73.5148 10.0062 73.4684 9.96274C73.4237 9.9175 73.3698 9.8817 73.3111 9.85743C73.2524 9.83315 73.1898 9.8209 73.1264 9.82138C73.0638 9.82057 73.0014 9.8327 72.9437 9.85702C72.886 9.88134 72.8345 9.91732 72.7912 9.96274C72.7449 10.0069 72.7078 10.0602 72.6827 10.1193C72.6577 10.1784 72.6452 10.242 72.6456 10.3063C72.644 10.3702 72.6557 10.4338 72.68 10.4929C72.7042 10.5521 72.7398 10.6055 72.7857 10.6498C72.8307 10.6946 72.8843 10.7301 72.943 10.754C73.0017 10.778 73.0644 10.79 73.1278 10.7893C73.1911 10.7886 73.2536 10.7754 73.3118 10.7502C73.37 10.725 73.423 10.6885 73.467 10.6427M83.0732 9.10675H82.2216V14.8124H83.0732V9.10675ZM50.4965 3.37071C50.5845 3.27764 50.6905 3.2039 50.8083 3.15414C50.9261 3.10438 51.0528 3.07969 51.1805 3.08162H52.0754V4.06201C52.0864 4.32211 51.9947 4.57607 51.8206 4.76885C51.7392 4.85702 51.6398 4.92676 51.5294 4.97343C51.4191 5.02011 51.3002 5.04265 51.1805 5.03957C51.0528 5.0415 50.9261 5.0168 50.8083 4.96705C50.6905 4.91729 50.5845 4.84355 50.4965 4.75047C50.3144 4.56696 50.2122 4.31836 50.2122 4.05918C50.2122 3.8 50.3144 3.55141 50.4965 3.36789M79.5287 3.96729C79.5863 3.90708 79.6556 3.85902 79.732 3.82593C79.8083 3.79284 79.8906 3.77538 79.9737 3.77457C80.0568 3.77376 80.1392 3.78963 80.2162 3.82123C80.2931 3.85283 80.3627 3.89952 80.4215 3.95859C80.4803 4.01767 80.5267 4.08793 80.5582 4.16527C80.5896 4.24261 80.6057 4.32548 80.6049 4.40902C80.6041 4.49256 80.5863 4.57509 80.5534 4.65181C80.5205 4.72852 80.4732 4.79786 80.4133 4.85578C80.2953 4.96986 80.1374 5.03288 79.9737 5.03129C79.81 5.02969 79.6534 4.96362 79.5376 4.84726C79.4218 4.73091 79.3558 4.57356 79.3542 4.40902C79.3526 4.24448 79.4152 4.08587 79.5287 3.96729ZM80.8652 3.0484C81.005 2.95402 81.17 2.9047 81.3384 2.90702C81.4593 2.90344 81.5793 2.92695 81.69 2.97585C81.8007 3.02476 81.8994 3.09783 81.9785 3.18975C82.1504 3.39737 82.2391 3.66216 82.2264 3.93195V5.04382H80.9675C81.0563 4.96536 81.1264 4.86847 81.1742 4.75986C81.2221 4.65124 81.2462 4.53348 81.2443 4.41472C81.242 4.19713 81.1741 3.9854 81.0492 3.80764C80.9244 3.62987 80.7484 3.49449 80.5451 3.41949C80.617 3.26951 80.7278 3.14179 80.8659 3.0498M51.1778 5.89202C51.4228 5.90309 51.6664 5.8519 51.8866 5.74318C52.1067 5.63446 52.2964 5.47171 52.4374 5.26999C52.5171 5.46601 52.6561 5.63173 52.835 5.74344C53.014 5.85515 53.2238 5.90715 53.4339 5.89202H60.5306C60.7127 5.90003 60.8936 5.86127 61.0567 5.7794C61.2197 5.69752 61.3596 5.57525 61.4625 5.4241C61.5637 5.57687 61.7031 5.70042 61.8664 5.7825C62.0297 5.86458 62.2115 5.90233 62.3938 5.89202H69.45C69.5592 5.74665 69.6998 5.62875 69.862 5.54755C70.0243 5.46635 70.2035 5.42408 70.3847 5.42408C70.5659 5.42408 70.7444 5.46635 70.9067 5.54755C71.0689 5.62875 71.2102 5.74665 71.3194 5.89202H83.0705V3.93124C83.0865 3.43714 82.9123 2.95593 82.5835 2.58824C82.4268 2.41409 82.2339 2.27614 82.019 2.18389C81.8041 2.09164 81.572 2.04728 81.3384 2.05386C80.9877 2.04956 80.645 2.15721 80.359 2.36133C80.0758 2.55913 79.8565 2.83646 79.7292 3.15865C79.4371 3.20507 79.1733 3.36058 78.9902 3.59408C78.7977 3.82464 78.6933 4.11657 78.6956 4.41754C78.6926 4.53574 78.715 4.65319 78.7615 4.7618C78.808 4.8704 78.8773 4.96759 78.9648 5.04664H71.3187C71.2455 5.05127 71.1722 5.03806 71.1051 5.00816C71.0381 4.97826 70.9792 4.93254 70.9334 4.87487C70.8389 4.73644 70.7929 4.57038 70.8023 4.4027V2.23765L69.9582 2.2447V4.4027C69.9675 4.57038 69.9209 4.73644 69.8263 4.87487C69.7817 4.93206 69.724 4.97756 69.6581 5.00747C69.5922 5.03738 69.5201 5.05082 69.4479 5.04664H62.3925C62.0528 5.04664 61.8829 4.83458 61.8829 4.4027V2.23765H61.0312V4.4027C61.0312 4.83199 60.8637 5.04664 60.5285 5.04664H53.4408C53.1009 5.04664 52.9312 4.83199 52.9312 4.4027V2.23765H51.1902C50.9517 2.23398 50.7154 2.2795 50.4951 2.37141C50.2748 2.46332 50.0757 2.59966 49.91 2.77201C49.7363 2.94046 49.5989 3.14292 49.5061 3.36685C49.4134 3.59079 49.3668 3.83147 49.3702 4.07402C49.3704 4.31381 49.4179 4.55118 49.5096 4.77256C49.6012 4.99394 49.7354 5.19498 49.9045 5.36417C50.0735 5.53336 50.2745 5.6674 50.4951 5.75858C50.7158 5.84976 50.9516 5.8963 51.1902 5.89556M50.6586 1.87221C50.7227 1.87318 50.7866 1.86116 50.8461 1.83687C50.9055 1.81259 50.9594 1.77652 51.0047 1.73083C51.0495 1.68603 51.0849 1.63279 51.1091 1.57414C51.1334 1.51549 51.1462 1.4526 51.1462 1.38908C51.1462 1.32556 51.1334 1.26267 51.1091 1.20402C51.0849 1.14537 51.0495 1.0921 51.0047 1.0473C50.9597 1.00128 50.9056 0.965011 50.8461 0.9407C50.7866 0.916389 50.7228 0.904566 50.6586 0.905949C50.5636 0.906468 50.4709 0.935217 50.3921 0.988588C50.3133 1.04196 50.2518 1.11757 50.2156 1.2059C50.1794 1.29422 50.1702 1.3913 50.1888 1.48496C50.2074 1.57862 50.2535 1.66467 50.3207 1.73225C50.3647 1.77742 50.4171 1.81321 50.4752 1.8375C50.5333 1.86179 50.5956 1.87406 50.6586 1.87361M62.1219 1.52019H61.5594C61.522 1.52062 61.4853 1.51338 61.4509 1.49892C61.4164 1.48445 61.3848 1.46308 61.3588 1.43608C61.3314 1.40893 61.3101 1.37641 61.2957 1.34054C61.2813 1.30468 61.2748 1.26622 61.2757 1.22755C61.2751 1.19094 61.2819 1.15459 61.2957 1.12069C61.3094 1.08679 61.3295 1.05606 61.3554 1.03035C61.3822 1.00369 61.4144 0.982792 61.4495 0.968937C61.4846 0.955082 61.5217 0.948548 61.5594 0.94976C61.6073 0.947639 61.6554 0.956398 61.6995 0.975365C61.7436 0.994332 61.7827 1.02302 61.8142 1.05932L62.047 0.832434C61.9848 0.759923 61.9073 0.702026 61.8204 0.66282C61.7335 0.623614 61.6395 0.604044 61.5443 0.605527C61.3855 0.601638 61.2314 0.660816 61.1157 0.770223C61.0588 0.822556 61.0141 0.88656 60.9839 0.957892C60.9536 1.02922 60.9387 1.10624 60.9406 1.18374C60.9394 1.30736 60.9833 1.42709 61.0642 1.52019H60.7661V1.87361H62.1198L62.1219 1.52019ZM49.5803 24.2283H50.5047V18.8881H49.5803V24.2283ZM55.8748 15.5072C55.8299 15.5516 55.7946 15.6045 55.7704 15.6629C55.7462 15.7213 55.7336 15.784 55.734 15.8472C55.7333 15.9111 55.7455 15.9745 55.7697 16.0337C55.7939 16.0928 55.8296 16.1465 55.8748 16.1915C55.918 16.2376 55.9701 16.2744 56.0279 16.2995C56.0858 16.3246 56.1483 16.3376 56.2113 16.3376C56.2744 16.3376 56.3368 16.3246 56.3947 16.2995C56.4526 16.2744 56.5046 16.2376 56.5478 16.1915C56.5942 16.1471 56.6312 16.0937 56.6564 16.0345C56.6815 15.9753 56.6943 15.9116 56.6941 15.8472C56.6945 15.7835 56.6815 15.7203 56.6564 15.6618C56.6312 15.6033 56.5943 15.5506 56.5478 15.5072C56.5043 15.4623 56.4522 15.4267 56.3947 15.4024C56.3372 15.3781 56.2758 15.3657 56.2134 15.3659C56.1498 15.3643 56.0861 15.3761 56.0273 15.4004C55.9684 15.4247 55.9154 15.4611 55.8714 15.5072M51.9333 10.6463C51.9793 10.6003 52.0155 10.5456 52.0404 10.4854C52.0653 10.4251 52.0782 10.3606 52.0782 10.2953C52.0782 10.2301 52.0653 10.1655 52.0404 10.1053C52.0155 10.045 51.9793 9.99034 51.9333 9.94436C51.8873 9.89774 51.8322 9.86078 51.7719 9.83566C51.7115 9.81054 51.647 9.79776 51.5816 9.79804C51.4514 9.79915 51.3269 9.85163 51.2348 9.94419C51.1427 10.0367 51.0903 10.162 51.0892 10.2928C51.0877 10.3594 51.1 10.4255 51.1249 10.4871C51.1498 10.5487 51.1869 10.6046 51.2341 10.6512C51.2796 10.6986 51.3343 10.736 51.3948 10.7612C51.4553 10.7863 51.5203 10.7987 51.5858 10.7975C51.6526 10.7976 51.7187 10.7839 51.7801 10.7574C51.8415 10.7309 51.8969 10.6922 51.9429 10.6434M63.0882 12.2932C63.1773 12.2017 63.2839 12.129 63.4014 12.0794C63.5188 12.0298 63.6448 12.0042 63.7722 12.0042C63.8996 12.0042 64.0257 12.0298 64.1431 12.0794C64.2606 12.129 64.3672 12.2017 64.4563 12.2932C64.638 12.4769 64.7399 12.7254 64.7399 12.9845C64.7399 13.2436 64.638 13.4921 64.4563 13.6758C64.3205 13.8114 64.1476 13.9035 63.9597 13.9405C63.7719 13.9775 63.5774 13.9578 63.4007 13.8839C63.224 13.8099 63.0735 13.6851 62.9673 13.525C62.8611 13.3649 62.8045 13.1769 62.8045 12.9845C62.8024 12.8561 62.8262 12.7287 62.8746 12.6098C62.923 12.491 62.9944 12.3833 63.0854 12.2932M57.0375 14.8131H63.7722C64.1316 14.8125 64.4827 14.7049 64.7811 14.5037C65.0796 14.3026 65.3118 14.017 65.4487 13.6831C65.5856 13.3492 65.6211 12.9819 65.5503 12.6278C65.4796 12.2737 65.3056 11.9487 65.051 11.6938C64.7965 11.4389 64.4723 11.2657 64.1198 11.1959C63.7672 11.1262 63.402 11.1631 63.0703 11.302C62.7386 11.4409 62.4555 11.6756 62.2565 11.9764C62.0575 12.2771 61.9521 12.6304 61.9529 12.9916C61.9469 13.1809 61.9872 13.3689 62.071 13.5386C62.1549 13.7083 62.2793 13.8545 62.433 13.9642H56.506C56.4327 13.969 56.3595 13.9559 56.2924 13.926C56.2252 13.8961 56.1663 13.8502 56.1207 13.7924C56.0259 13.6543 55.9792 13.4884 55.9888 13.321V11.1559L55.1447 11.163V13.321C55.154 13.4884 55.108 13.6542 55.0135 13.7924C54.969 13.8497 54.9112 13.8952 54.8453 13.9251C54.7794 13.955 54.7073 13.9684 54.6351 13.9642H54.0726C53.7374 13.9642 53.5701 13.7498 53.5706 13.321V11.1559H52.7183V14.3529C52.7339 14.6942 52.6174 15.0284 52.3941 15.286C52.2903 15.3979 52.1649 15.4871 52.0253 15.5481C51.8857 15.6092 51.7353 15.6406 51.583 15.6406C51.4308 15.6406 51.2803 15.6092 51.1407 15.5481C51.0011 15.4871 50.8751 15.3979 50.7712 15.286C50.5474 15.0287 50.4313 14.6944 50.447 14.3529V11.8875H49.5954V14.3529C49.5854 14.634 49.6313 14.9142 49.73 15.1772C49.8288 15.4403 49.9788 15.681 50.171 15.8854C50.5268 16.2571 51.0137 16.4735 51.5267 16.4879C52.0397 16.5023 52.5374 16.3136 52.9133 15.9624C53.29 15.6034 53.5188 15.1152 53.5541 14.5947C53.6176 14.6686 53.6974 14.7268 53.7869 14.7648C53.8764 14.8028 53.9736 14.8196 54.0706 14.8138H54.6331C54.7423 14.6684 54.8836 14.5505 55.0458 14.4693C55.2081 14.3881 55.3865 14.3459 55.5678 14.3459C55.749 14.3459 55.9282 14.3881 56.0904 14.4693C56.2527 14.5505 56.394 14.6684 56.5032 14.8138H57.0348L57.0375 14.8131ZM74.7699 10.6505C74.8146 10.6053 74.8502 10.5517 74.8743 10.4927C74.8984 10.4338 74.9102 10.3706 74.91 10.3069C74.9098 10.2432 74.8973 10.1801 74.8729 10.1213C74.8484 10.0625 74.8128 10.0091 74.7678 9.96416C74.7228 9.91923 74.6692 9.88364 74.6105 9.85943C74.5519 9.83523 74.4892 9.82287 74.4258 9.82306C74.3624 9.82326 74.2996 9.836 74.2411 9.86058C74.1825 9.88515 74.1298 9.92107 74.0851 9.96628C73.9949 10.0576 73.944 10.1812 73.9444 10.3099C73.9447 10.4386 73.9964 10.5619 74.0872 10.6526C74.178 10.7434 74.3012 10.7941 74.4292 10.7937C74.5573 10.7933 74.6796 10.7418 74.7699 10.6505ZM20.8283 1.09325L9.24418 33.3338H15.1458L24.9216 5.22193L34.6975 33.3338H40.5991L29.0149 1.09325H20.8283ZM0.00610352 33.3338H5.68177V1.09114H0.00610352V33.3338Z" fill="#163E36"/>
<path d="M19.2555 21.5006L15.1423 33.331C16.3265 31.9187 17.5908 30.5765 18.9293 29.3112C23.7334 24.8535 29.1777 21.1479 35.0793 18.319C38.0975 16.8485 41.2014 15.5614 44.373 14.4646C35.6641 15.3601 27.1698 17.7394 19.2555 21.5006Z" fill="#69EE00"/>
</svg>